<?xml version="1.0" encoding="utf-8"?>
<svg xmlns="http://www.w3.org/2000/svg" version="1.1" width="1020.0" height="1020.0">
<polygon stroke="white" stroke-width="1" fill="none" points="465,89 846,670 733,763 261,186 371,237 184,132 403,203 579,434 441,97 466,34 598,433 829,720 335,301 313,53 512,107 671,536 438,165 805,678 277,255 472,197 715,550 829,685 837,647 299,193 46,242 599,792 492,450 981,612 259,605 368,184 729,836 520,270 190,115 266,166 723,770 509,423 163,87 589,116 420,307 467,182 258,83 566,102 235,63 400,242 53,186 532,109 464,259 372,351 529,287 538,310 605,846 506,791 524,115 244,503 263,159 478,141 431,128 390,142 836,648 462,239 457,245 670,452 610,130 358,170 93,159 459,170 792,544 472,165 837,608 365,286 758,599 729,799 151,115 420,182 725,774 900,571 615,509 354,53 592,321 485,782 262,132 689,516 196,115 241,502 242,70 368,227 839,689 426,48 440,94 444,294 452,139 338,228 496,400 490,395 98,206 574,338 647,537 217,236 661,513 499,54 244,537 372,242 238,677 608,782 702,545 386,266 558,420 499,395 385,104 290,155 489,100 256,170 209,235 184,129 69,156 599,392 171,612 569,105 592,503 90,107 729,764 427,138 801,557 648,529 457,77 494,251 648,503 692,761 620,481 484,226 908,574 512,331 609,410 668,500 636,496 483,36 476,232 562,64 122,103 139,263 344,196 145,86 548,66 801,749 378,324 197,121 478,286 79,277 176,112 306,273 722,572 674,513 775,462 551,763 602,498 482,404 331,118 663,478 248,129 231,103 444,182 653,411 506,409 345,248 321,292 270,135 493,430 581,110 696,454 215,162 146,120 805,734 651,812 203,156 670,510 1002,596 202,666 207,214 497,129 396,224 351,217 242,114 304,141 423,48 397,292 358,190 969,600 644,462 512,461 214,557 533,294 506,134 215,138 469,269 252,124 567,802 396,132 190,121 430,67 567,117 468,169 543,283 995,603 490,97 454,310 579,89 435,245 891,675 115,275 153,149 379,311 420,375 375,129 546,107 105,160 279,256 709,802 372,183 393,142 450,241 115,148 511,102 430,120 283,248 742,500 688,878 531,372 369,228 736,557 149,81 395,74 275,232 273,208 729,774 595,349 815,602 200,521 306,197 169,591 330,182 733,593 234,148 712,523 131,191 173,94 421,254 495,142 390,180 143,79 840,558 519,465 612,382 246,88 527,791 696,492 632,493 589,82 423,279 175,143 296,162 437,251 466,165 297,255 445,428 324,125 695,517 448,56 646,829 504,260 93,248 457,221 428,176 578,300 493,406 557,387 348,272 722,775 476,88 411,269 651,811 296,136 725,887 125,272 165,677 468,27 338,206 55,222 615,131 498,187 235,156 395,246 553,373 127,139 530,368 427,275 283,235 512,46 392,151 380,104 488,777 661,464 562,428 127,186 835,719 314,222 310,190 403,155 177,115 585,342 674,526 335,214 373,228 344,217 548,91 140,526 681,516 318,183 375,299 208,190 589,337 55,152 221,585 520,365 470,53 417,290 527,311 380,163 993,593 356,132 818,543 414,196 201,537 272,108 535,78 550,435 239,187 489,330 371,307 340,215 128,256 842,643 431,231 375,167 200,187 598,387 248,598 163,575 445,142 509,82 184,131 325,268 485,235 523,392 348,218 320,69 380,204 543,313 469,100 600,417 553,128 445,135 283,238 492,197 242,565 479,107 141,167 603,118 646,485 654,416 469,197 576,107 864,679 301,248 572,62 623,448 413,112 503,109 484,76 514,458 285,184 672,543 237,239 494,144 849,675 218,237 571,75 293,265 502,444 491,40 389,352 512,101 476,90 788,751 375,227 648,560 479,375 589,83 56,251 524,275 505,61 427,296 270,220 423,314 364,187 383,206 504,106 681,488 651,516 533,327 763,465 430,170 812,678 466,402 406,55 997,613 567,404 211,100 153,100 513,407 826,665 789,499 386,57 675,727 971,584 519,416 108,213 782,777 441,177 492,351 489,178 729,502 464,130 688,774 417,135 719,806 619,469 578,361 427,121 490,287 568,406 349,73 417,184 445,98 471,145 259,540 156,111 340,200 361,365 192,632 349,167 480,177 365,304 539,97 410,132 366,244 509,121 166,685 467,239 379,201 226,617 249,187 568,79 245,128 424,366 471,51 592,341 283,186 234,198 705,479 712,842 987,586 471,173 486,94 547,58 382,320 407,238 327,255 519,457 286,166 756,763 600,379 554,437 324,364 263,155 988,570 21,190 73,222 540,328 416,215 458,121 706,531 323,221 548,366 488,361 537,119 423,139 159,79 385,251 349,146 383,230 485,96 702,806 127,170 784,530 115,277 165,208 585,86 407,337 448,31 404,304 190,534 603,323 458,159 537,115 431,132 441,204 163,187 592,782 387,63 576,330 505,781 524,330 354,221 93,187 191,537 620,489 713,529 19,184 987,605 733,576 634,537 513,293 457,169 424,200 349,301 524,327 520,372 307,80 567,75 289,159 327,273 500,362 569,364 644,533 535,83 345,186 217,91 576,802 516,461 602,117 771,770 53,135 122,220 444,173 494,142 525,136 474,87 688,464 182,602 524,272 481,205 320,176 444,163 832,689 279,179 537,488 215,189 215,125 467,87 454,159 32,220 616,351 344,341 846,727 433,221 332,141 538,441 389,77 443,125 468,225 545,376 868,647 327,200 248,115 480,79 823,664 441,301 619,383 390,158 881,674 720,468 389,187 510,406 543,105 324,368 352,93 232,241 228,215 206,118 552,70 338,309 440,232 570,99 568,77 892,692 390,289 613,822 584,392 479,204 287,169 822,751 543,481 430,38 509,366 664,514 84,251 250,680 197,231 235,176 65,173 791,718 450,56 314,270 334,220 550,111 520,275 149,158 806,600 804,679 847,640 79,239 213,665 368,218 380,221 545,387 196,135 122,115 224,503 826,723 596,325 475,223 136,138 345,262 809,715 269,88 410,241 658,444 523,454 230,138 542,100 777,777 393,399 358,337 251,125 206,197 222,166 316,259 292,165 526,392 829,640 369,198 208,204 589,85 829,715 426,175 191,593 249,136 327,59 511,116 675,469 797,616 551,116 373,279 486,365 837,619 470,90 466,304 609,478 561,64 544,424 526,376 97,146 141,97 643,799 283,149 648,459 572,402 392,132 509,114 681,551 490,334 100,182 868,685 373,358 798,600 570,106 145,550 478,380 505,60 311,371 282,193 400,63 366,275 646,513 692,516 806,675 863,654 118,167 902,555 593,348 830,555 402,382 438,129 564,413 383,354 911,558 818,691 636,450 681,512 382,101 351,311 825,663 96,179 135,131 573,55 483,85 184,652 480,195 175,135 440,148 169,104 318,80 189,606 821,685 541,307 424,266 524,116 253,661 454,124 32,175 608,490 117,269 448,138 352,207 530,117 492,256 438,103 679,500 396,141 788,743 435,114 404,190 359,279 310,266 512,457 210,127 696,551 277,125 544,64 540,121 732,540 539,127 847,694 129,112 163,654 513,111 430,293 380,349 241,186 595,103 187,616 404,265 667,516 490,311 356,193 506,103 399,266 378,345 485,186 334,358 667,471 619,481 462,233 826,746 170,134 615,489 434,129 172,128 632,481 582,349 272,118 671,423 587,113 98,258 110,180 248,207 358,355 539,71 276,110 472,167 269,554 466,120 712,586 433,365 715,536 324,309 658,445 512,325 521,334 475,130 410,105 300,114 698,829 609,129 241,558 201,578 615,423 480,147 330,263 822,655 608,373 571,98 151,203 358,139 767,596 122,268 383,117 292,96 551,112 237,169 232,169 620,490 486,245 268,86 234,227 237,184 489,332 134,210 299,148 823,609 644,502 403,379 529,318 246,242 464,185 997,623 545,389 709,736 352,277 397,156 220,118 327,222 423,112 657,503 76,149 450,321 485,81 582,413 533,104 385,204 63,248 455,158 452,167 715,808 176,622 502,469 219,659 589,767 406,330 310,182 506,375 22,187 285,251 378,84 458,371 323,234 386,245 826,687 445,207 596,380 83,201 230,105 719,770 632,794 96,204 356,287 511,88 973,575 276,348 134,87 378,273 455,874 245,505 134,543 608,386 542,87 409,141 493,106 584,334 307,128 545,403 617,129 397,283 373,354 380,354 191,170 325,138 471,264 431,182 313,176 463,189 733,551 557,300 431,125 496,285 510,99 603,372 313,159 974,608 228,672 221,142 356,122 293,167 475,209 517,355 523,362 747,764 413,155 270,238 410,290 263,210 327,368 517,101 230,104 409,159 351,149 32,234 483,83 640,416 455,57 562,379 705,771 279,255 847,648 753,763 447,324 574,68 441,100 218,94 165,681 227,193 228,131 1005,598 671,457 812,647 486,78 466,323 385,344 414,197 198,632 574,828 87,201 473,102 981,585 238,73 434,32 73,122 654,447 444,191 485,265 632,792 534,53 406,275 521,132 67,251 530,307 434,372 365,211 480,25 568,809 563,81 237,238 182,114 317,91 857,585 495,123 712,527 443,213 84,143 445,201 754,761 564,469 870,664 586,94 201,538 541,365 435,390 213,100 515,85 811,768 484,228 139,214 733,799 560,324 413,294 379,62 1007,603 261,91 101,269 337,294 378,285 655,499 207,678 592,110 466,129 301,83 500,448 135,135 451,320 520,369 587,103 63,117 444,389 31,175 262,553 553,111 837,692 507,82 520,472 983,574 97,110 469,226 696,830 428,235 450,125 375,276 598,116 544,794 578,304 390,48 514,383 480,220 276,225 560,337 97,179 523,407 499,389 234,107 176,204 270,125 420,165 207,224 293,217 517,118 492,252 608,479 672,512 509,355 232,121 351,283 234,237 397,196 495,296 200,231 562,61 523,105 691,770 390,214 648,462 414,356 328,187 285,107 141,198 573,85 63,122 107,141 584,433 474,115 682,548 682,544 242,87 819,756 396,60 311,249 242,169 399,241 465,95 832,636 97,276 309,269 492,182 349,135 799,778 438,177 663,434 547,488 215,134 533,107 563,85 276,258 512,88 530,428 737,603 362,225 115,273 541,111 665,441 235,69 245,503 264,607 843,548 561,383 224,605 530,55 158,251 410,337 468,131 341,354 327,169 615,805 480,189 511,123 496,361 320,275 457,344 487,175 296,182 397,239 536,369 238,111 472,106 121,163 818,624 110,159 468,141 722,780 682,770 534,68 69,176 193,198 533,286 385,162 699,726 571,100 490,279 166,550 580,102 232,59 452,138 392,225 390,162 31,193 328,270 514,378 805,668 364,331 452,423 967,582 547,438 52,165 148,76 469,311 988,608 316,263 729,771 395,63 603,777 586,121 96,200 596,464 521,417 505,138 397,127 476,290 344,191 525,104 108,282 373,376 211,165 244,505 499,122 522,77 309,276 362,217 369,121 570,62 386,283 576,56 160,244 788,726 608,492 242,206 503,782 585,789 17,179 464,280 156,69 443,238 338,273 443,189 654,413 447,211 63,152 524,419 881,650 517,771 382,266 235,160 426,142 833,730 396,287 587,92 826,708 282,129 523,327 241,214 393,186 423,101 310,120 589,816 427,146 306,262 174,538 400,290 433,214 486,383 440,373 529,416 438,397 576,773 268,184 499,365 232,69 517,330 97,129 242,173 637,794 348,279 151,235 310,373 481,175 115,111 526,54 414,118 191,121 235,165 373,309 545,410 802,632 204,145 396,128 544,58 575,299 482,364 695,514 378,227 90,198 466,221 215,131 481,106 389,372 746,758 382,80 241,172 138,237 237,60 818,668 599,385 542,97 225,165 689,469 492,320 908,531 196,129 546,93 781,777 276,198 183,107 259,548 327,366 495,87 166,117 627,433 473,256 850,682 613,428 722,877 463,261 777,540 743,448 213,145 653,444 495,72 976,579 279,203 476,266 595,802 445,111 189,121 100,121 445,309 551,342 903,571 481,119 836,740 694,538 812,665 888,694 493,356 435,176 104,135 462,878 543,317 423,143 561,368 194,191 562,98 791,756 410,369 545,300 547,386 589,355 331,354 615,368 435,139 136,125 45,225 138,94 417,142 458,129 488,97 159,172 117,143 458,152 421,316 472,93 387,103 379,244 529,114 558,778 586,83 503,797 634,505 773,584 758,760 987,578 428,36 548,317 413,74 809,648 400,215 853,665 692,833 720,839 514,85 373,258 470,258 544,372 788,753 279,175 248,208 840,665 806,716 294,251 224,170 448,153 1004,602 407,207 744,780 246,138 703,524 252,149 517,403 691,457 599,777 575,390 606,376 613,380 591,390 314,371 400,165 155,88 598,416 493,276 451,414 402,225 103,146 572,474 120,275 351,200 214,151 756,765 185,607 491,260 373,190 468,159 409,354 588,426 624,499 478,98 362,316 395,38 300,371 441,266 727,588 410,399 196,169 544,421 485,279 878,531 324,124 764,754 569,402 801,610 749,558 464,106 689,486 550,420 565,392 742,777 435,289 228,179 337,191 380,242 799,655 177,220 749,773 634,476 536,396 551,396 248,680 538,378 235,204 691,498 505,466 389,132 328,276 292,134 519,770 499,77 574,115 55,114 196,231 877,660 335,139 729,569 813,663 550,321 512,335 313,115 175,132 428,303 128,224 481,440 172,125 730,520 365,292 493,110 671,825 688,847 289,131 773,771 722,550 190,96 819,586 72,175 513,286 541,801 407,26 476,138 674,450 822,653 427,189 671,482 911,543 445,84 692,544 584,389 168,566 526,112 485,345 145,88 451,332 193,177 341,81 854,640 463,223 482,249 811,753 366,354 706,517 266,103 366,359 269,162 172,218 801,641 62,213 131,245 255,139 605,133 571,84 489,452 552,102 506,371 507,434 874,648 105,272 523,114 719,555 496,316 423,242 798,723 488,151 138,170 541,290 489,102 655,474 372,354 220,136 445,118 437,230 230,672 661,533 372,362 495,117 382,379 277,76 231,673 290,211 538,410 438,100 380,125 320,97 533,72 703,527 863,653 462,427 66,200 521,421 345,275 454,424 285,143 473,263 466,247 97,167 354,96 304,371 487,261 1001,606 729,763 486,232 641,538 41,200 244,77 206,631 242,560 379,111 524,270 366,296 646,524 222,239 383,221 571,402 524,386 420,120 577,95 378,108 251,100 809,767 251,680 509,444 701,531 347,91 501,186 706,457 481,273 475,300 334,242 496,362 685,771 452,390 679,519 445,282 481,63 471,423 382,135 517,372 617,354 262,104 616,496 354,94 516,469 443,121 362,318 876,516 176,540 407,245 592,416 742,568 551,292 266,553 345,203 471,247 361,139 474,272 194,203 847,675 93,148 479,28 554,500 863,640 640,471 576,359 526,86 466,183 341,28 881,688 263,127 519,356 531,121 598,345 337,145 730,581 375,258 146,227 231,534 538,287 454,204 421,94 543,110 389,400 344,201 499,290 364,327 292,220 843,710 135,189 579,375 586,430 465,61 648,427 535,77 201,179 127,197 149,98 389,293 488,447 815,749 255,193 478,447 110,184 863,681 282,241 479,86 513,129 567,345 190,595 461,129 434,94 533,414 362,98 464,304 320,276 479,100 393,292 152,152 262,603 390,200 382,215 794,736 526,409 544,366 500,785 189,112 87,163 345,269 633,538 547,83 553,294 317,268 420,62 224,593 211,193 729,847 461,364 538,387 88,120 517,378 485,64 457,337 584,835 330,289 447,120 806,679 867,670 396,186 861,557 502,801 492,93 378,231 266,172 863,646 502,426 708,850 196,182 153,145 513,404 818,679 592,387 443,241 695,548 169,96 153,138 433,107 206,136 256,153 163,165 337,227 364,300 430,203 644,488 465,174 414,376 583,100 356,272 276,191 435,215 227,100 96,232 25,187 674,498 646,489 592,58 534,410 448,203 448,248 557,362 320,86 122,251 837,703 485,195 826,692 214,104 362,301 321,184 825,729 218,191 541,382 183,103 554,389 33,117 747,536 891,694 235,62 354,296 643,811 124,222 385,73 632,496 599,366 448,105 791,770 428,200 392,256 811,595 235,166 696,856 461,77 725,784 619,488 344,224 740,777 660,416 836,689 242,245 275,258 292,193 258,230 465,75 237,66 579,95 103,230 114,111 455,282 213,236 273,204 347,162 734,592 585,351 289,84 518,50 504,122 303,191 125,276 379,285 423,18 477,122 409,293 421,270 488,75 854,651 232,124 254,551 100,238 564,122 392,249 481,340 348,96 540,115 87,285 371,272 678,531 385,303 815,761 679,451 237,208 612,340 606,120 254,159 476,59 297,197 682,520 561,428 787,639 876,520 481,169 262,190 155,182 487,86 613,134 320,84 435,197 575,362 695,533 537,289 211,121 533,94 610,835 457,242 591,307 722,513 650,512 709,582 296,177 549,88 107,272 606,440 445,173 431,152 430,397 222,235 856,646 468,130 143,532 472,245 475,443 509,125 427,179 273,182 434,358 406,220 228,141 567,427 348,175 727,812 523,483 494,110 715,585 527,74 550,95 311,262 461,113 986,571 297,121 224,218 170,228 364,286 545,426 488,376 242,125 314,179 246,69 678,530 685,440 476,32 313,196 547,96 658,534 410,400 423,26 225,125 225,510 239,121 397,211 450,160 280,122 496,84 553,110 472,37 183,175 521,117 792,775 349,201 477,262 347,237 511,131 356,146 124,273 375,143 280,110 378,248 541,117 81,282 423,159 533,324 169,237 301,221 616,474 639,795 337,290 785,765 510,399 427,311 101,176 619,373 490,290 554,383 482,105 760,592 383,299 165,584 482,268 643,483 387,25 483,143 385,128 577,99 785,534 46,135 416,63 165,84 529,282 887,671 650,802 488,273 671,520 543,383 464,148 588,475 612,371 337,222 863,531 864,668 224,136 282,261 997,617 424,409 599,311 771,540 242,506 787,753 311,241 376,156 486,331 610,382 523,335 224,238 390,318 749,761 874,692 492,331 390,299 307,217 224,241 258,132 582,100 454,98 464,60 699,763 193,592 506,379 826,641 416,283 576,118 545,122 402,251 606,821 382,246 479,124 582,364 483,376 538,407 475,179 404,175 467,237 483,299 313,190 795,734 272,170 909,537 516,300 131,94 41,193 428,128 431,38 804,586 491,107 148,83 584,112 210,120 574,330 716,499 660,414 799,654 331,225 466,244 332,198 840,712 692,537 701,884 427,206 572,303 536,812 382,299 805,492 431,169 402,306 206,574 543,91 795,774 467,236 646,416 474,428 175,128 634,486 324,79 914,536 837,740 576,307 571,110 703,517 414,369 330,187 593,431 262,609 506,378 622,475 461,139 208,187 778,760 403,237 433,283 632,417 536,92 830,653 703,496 90,165 488,186 101,160 993,599 84,279 242,201 919,561 857,517 368,248 448,190 440,330 508,136 571,64 316,217 578,109 189,93 715,849 441,186 340,177 689,482 565,104 517,778 627,417 304,169 988,593 263,141 292,215 554,101 488,240 475,90 492,249 166,108 231,218 691,768 457,277 624,507 292,152 369,215 365,289 475,386 431,190 627,498 703,553 325,175 208,172 691,472 815,672 428,358 65,224 859,640 368,149 554,310 462,116 462,236 514,812 258,193 379,182 587,116 661,553 868,651 571,301 866,682 142,94 495,366 826,664 435,347 407,21 440,222 258,224 199,655 100,225 216,635 694,773 812,609 1010,593 806,720 578,365 519,57 414,304 383,149 335,143 170,175 162,94 616,465 485,409 842,592 471,275 445,237 356,269 574,297 433,307 473,266 467,230 517,283 376,283 474,152 545,110 780,754 584,413 366,347 682,448 569,791 263,81 483,163 230,115 670,437 166,584 565,321 303,248 406,114 65,125 478,86 407,340 380,211 701,544 80,242 602,489 478,254 573,103 539,106 570,96 880,658 665,509 599,84 606,826 773,615 689,789 588,108 548,67 537,364 479,292 387,93 518,93 366,189 610,348 250,613 307,104 486,275 32,122 320,369 362,143 134,79 414,338 528,108 325,208 447,217 563,79 684,533 856,639 320,215 637,465 395,213 598,393 342,316 443,242 553,95 441,269 430,378 277,170 486,130 584,822 232,153 209,625 586,416 477,119 478,267 626,837 342,287 395,334 493,122 266,96 615,815 441,151 715,771 244,115 474,378 770,774 472,136 378,220 249,108 158,101 487,126 818,560 239,163 782,574 313,57 237,93 789,720 805,726 417,251 373,45 213,211 410,146 482,171 823,603 121,197 615,127 603,368 450,204 725,792 519,80 407,162 461,204 303,182 502,361 561,395 863,643 129,269 167,97 740,538 472,243 287,135 578,354 485,458 544,331 399,112 304,231 653,402 942,551 238,514 465,152 455,165 148,121 176,117 574,351 167,582 525,48 433,62 678,426 376,148 850,653 519,125 761,483 461,227 332,306 228,114 208,138 713,884 461,348 447,434 696,479 426,42 145,93 400,327 461,372 221,640 301,251 310,134 619,468 561,87 131,268 246,194 1001,603 313,189 719,521 397,244 490,292 390,39 229,238 316,273 591,471 493,362 763,598 497,106 77,251 596,307 512,368 192,633 660,514 541,285 269,84 386,45 602,393 592,481 103,148 517,414 368,347 617,386 991,585 371,259 496,458 657,424 427,117 806,777 805,675 411,234 568,354 444,341 708,832 424,107 170,211 902,565 145,172 617,364 222,152 494,90 826,624 399,80 603,120 570,80 861,657 241,246 365,96 303,52 131,145 478,413 466,184 548,61 739,540 531,310 691,849 163,584 400,33 564,100 475,125 465,18 454,332 162,139 541,361 496,423 538,337 445,208 430,285 275,244 767,591 103,179 566,98 785,496 868,687 884,665 527,390 670,479 568,74 543,435 870,682 672,833 643,537 552,66 443,220 819,672 334,276 771,768 471,351 577,94 172,93 373,361 895,517 756,555 547,424 746,780 201,125 416,362 413,143 592,472 249,200 368,56 718,829 551,82 221,661 108,273 610,128 392,246 290,251 476,389 458,275 165,169 994,612 279,196 252,193 402,272 237,84 259,242 442,427 445,194 306,200 331,227 268,110 376,66 286,97 584,440 538,283 773,780 443,134 91,175 262,110 825,706 435,124 386,252 435,59 485,262 317,269 197,122 279,129 232,88 811,639 589,782 244,146 438,230 505,282 341,55 584,407 725,804 617,402 334,293 499,787 479,356 579,314 379,320 297,252 230,88 251,211 524,119 458,378 404,162 552,96 428,301 584,768 737,589 568,66 409,186 90,179 545,369 262,111 495,82 181,529 39,239 498,130 516,267 390,131 567,102 355,63 795,726 383,270 479,193 368,355 578,126 526,368 718,878 182,180 455,214 431,362 605,378 504,259 163,207 244,57 995,605 33,120 737,585 993,595 558,81 545,437 208,586 474,273 564,107 440,191 494,135 482,199 733,765 249,115 115,280 584,344 523,382 142,132 378,90 703,507 108,190 221,227 386,120 463,124 682,516 644,411 568,816 541,476 452,392 347,198 304,266 361,98 59,210 262,122 342,309 468,379 844,562 490,366 117,125 214,100 632,410 444,235 104,231 677,471 464,94 572,347 349,354 760,599 447,231 734,778 832,647 943,576 716,527 450,364 537,368 310,191 204,574 627,396 483,245 239,155 613,129 371,304 502,320 675,526 293,121 469,163 572,385 754,568 561,340 244,244 510,417 804,739 373,252 444,101 259,100 712,547 351,207 670,498 376,90 550,80 283,201 158,145 355,138 213,172 718,856 221,136 180,93 379,283 708,732 421,180 600,393 558,114 330,39 513,434 225,83 562,430 475,293 579,469 826,750 186,91 378,210 509,63 272,241 995,619 249,681 402,259 462,251 450,228 602,371 183,218 419,167 376,235 465,166 499,399 407,134 148,125 472,344 469,433 782,613 254,93 129,272 513,313 530,355 368,57 465,105 530,461 785,567 434,22 471,112 91,172 487,259 90,108 479,402 633,506 351,337 606,424 529,364 465,186 619,419 519,128 535,118 424,316 558,293 331,98 104,275 530,63 936,572 387,191 411,134 485,253 830,619 461,396 543,389 73,177 901,557 570,78 584,383 564,761 573,97 450,172 18,177 107,177 434,170 317,246 419,331 531,112 509,387 467,159 734,507 125,118 554,771 535,109 507,269 787,464 478,348 369,287 296,145 547,94 584,447 578,97 553,382 341,196 737,593 466,276 344,159 441,316 196,146 615,427 622,362 593,104 231,84 804,718 718,582 379,327 175,127 558,417 562,354 237,213 210,177 330,310 237,62 55,198 794,483 220,146 677,433 870,696 337,301 833,537 480,89 633,502 490,282 602,365 474,183 472,427 740,775 529,77 420,129 739,784 812,729 489,254 801,715 529,95 750,598 818,744 526,345 837,695 675,825 167,637 589,362 164,665 677,727 411,22 798,639 620,386 505,273 29,234 366,272 567,409 660,536 373,211 579,371 220,217 365,364 314,53 600,325 445,117 330,207 864,695 437,248 564,119 615,443 641,502 397,341 149,87 603,378 300,215 640,462 115,173 324,198 313,139 581,500 465,294 218,127 373,356 457,317 479,101 544,334 819,627 307,224 128,182 520,461 502,107 151,73 468,168 91,273 557,390 403,128 593,413 426,36 400,57 588,407 479,104 378,184 833,705 479,390 651,451 173,172 207,189 132,251 808,723 534,101 492,426 615,129 720,585 472,104 536,76 345,245 337,63 572,438 400,128 444,159 613,797 852,641 273,179 482,234 115,187 774,544 658,538 321,369 225,197 527,371 489,283 153,136 481,424 682,499 536,407 533,91 822,627 355,358 348,194 73,232 719,816 454,162 535,94 417,159 612,347 447,207 463,234 134,129 124,134 499,313 553,126 754,760 409,69 505,275 501,117 237,186 88,107 87,184 991,593 562,424 249,134 527,454 383,176 208,176 156,221 682,805 535,87 460,183 582,347 632,802 396,21 406,169 780,774 563,66 299,208 318,121 844,710 486,249 486,356 259,111 464,133 423,282 252,534 287,248 197,132 112,153 474,269 269,81 984,596 67,210 416,132 725,576 517,111 544,101 774,764 540,371 306,249 409,231 410,120 612,466 204,143 351,303 757,599 582,778 687,498 450,224 997,616 606,349 328,232 674,821 997,620 593,420 595,823 695,788 491,123 366,39 406,215 383,317 265,159 819,565 461,39 35,227 503,787 816,701 502,397 390,129 419,365 514,483 560,76 17,180 419,200 471,331 262,242 389,241 558,93 222,238 417,332 551,369 231,96 67,201 789,773 83,246 112,142 469,191 244,534 375,135 488,277 811,565 460,71 478,130 539,107 300,52 521,444 324,251 554,313 406,125 517,382 553,347 201,617 170,139 404,110 482,140 496,267 366,197 582,99 427,331 356,200 131,136 482,200 622,392 466,175 484,167 730,493 492,330 435,220 685,493 489,244 167,155 492,399 86,182 609,352 230,625 440,382 852,653 499,255 571,400 287,258 320,96 809,647 556,110 627,406 543,361 170,159 457,259 538,452 544,118 321,172 696,531 546,61 433,182 699,529 537,109 536,365 887,695 646,523 435,317 296,261 513,402 489,108 286,262 466,104 486,157 417,287 309,152 545,390 571,368 110,218 252,244 423,117 490,447 423,151 407,297 380,293 593,499 151,74 310,179 775,571 484,85 773,764 517,416 587,119 162,98 409,224 513,777 576,369 83,242 238,175 167,132 475,236 81,246 567,392 816,713 330,214 396,234 529,380 206,214 466,359 262,182 526,423 905,567 296,238 507,447 805,778 696,765 894,688 541,485 136,124 268,111 486,186 585,404 549,83 520,468 846,517 615,383 529,413 558,118 469,117 438,239 382,297 788,585 524,396 272,131 156,84 496,290 799,602 409,362 194,218 177,118 500,335 560,341 241,81 382,206 474,36 568,765 356,50 141,80 876,695 981,600 430,204 726,592 732,852 328,93 455,379 244,239 569,404 252,110 668,496 725,813 657,471 94,114 344,311 246,118 81,138 757,756 500,120 502,280 324,74 521,309 108,283 221,208 362,132 403,53 495,252 238,131 671,493 300,156 685,792 502,327 438,237 342,348 189,179 355,160 699,523 262,100 385,200 469,260 342,282 516,373 431,111 378,173 421,177 658,795 26,180 888,692 644,420 531,413 490,434 629,481 505,49 553,304 923,576 636,836 571,407 566,81 372,222 457,143 740,571 553,493 437,31 440,231 742,479 485,167 833,718 585,91 383,296 730,770 736,761 753,771 277,252 387,299 461,171 187,136 488,62 369,90 450,244 42,224 457,249 574,108 797,605 198,166 603,479 569,409 389,183 458,165 115,214 536,314 609,383 324,165 206,166 469,230 650,854 159,60 474,397 468,228 516,455 385,184 547,489 213,117 770,757 396,134 196,598 627,475 375,338 540,386 637,471 812,694 526,379 426,88 740,600 404,87 551,502 214,512 821,620 606,122 856,513 155,94 533,369 270,252 433,170 475,252 265,231 736,450 605,423 469,310 575,118 574,435 366,131 510,50 548,294 990,581 468,276 173,191 481,242 592,502 563,75 465,416 470,93 527,417 327,134 383,115 550,386 141,111 437,45 502,49 839,598 317,190 262,175 544,365 198,194 591,382 616,830 543,108 375,207 265,612 441,166 88,239 544,489 282,196 444,431 387,238 383,139 313,204 630,472 417,208 600,468 654,514 815,689 839,720 417,186 578,88 577,101 782,564 526,72 818,670 489,784 424,317 554,88 53,131 314,81 458,297 317,167 427,17 519,124 307,244 514,99 668,773 218,591 382,187 574,492 463,82 410,287 372,235 387,338 548,364 541,113 238,565 576,435 650,459 448,368 768,543 218,110 598,395 733,595 141,77 355,87 222,190 383,158 399,332 168,545 42,218 125,268 301,269 458,251 369,323 530,100 379,151 204,544 657,475 589,466 416,103 196,128 91,232 290,156 21,189 551,378 139,141 585,304 327,177 651,503 945,567 672,874 365,365 332,53 595,371 210,568 723,765 480,210 585,345 454,314 684,770 575,765 334,189 232,208 138,538 300,373 505,426 694,524 512,364 73,242 354,120 426,162 572,358 341,349 477,146 476,392 821,710 639,513 213,206 692,520 428,228 540,404 530,382 309,248 672,464 475,187 531,321 892,534 207,141 438,341 473,180 364,38 299,103 500,264 794,719 558,83 560,316 424,306 630,493 380,256 316,83 541,354 629,395 217,104 470,66 230,190 661,430 802,723 521,389 245,224 79,149 84,115 435,379 396,330 460,63 80,279 279,76 423,108 692,526 48,122 665,533 843,657 562,395 152,128 404,316 276,186 500,90 314,57 118,141 681,809 530,327 392,173 554,111 403,244 577,110 849,708 421,128 276,74 434,93 488,136 730,797 709,521 654,534 117,175 792,727 430,35 258,237 149,125 486,194 254,207 438,187 335,49 204,215 421,258 750,560 593,114 654,441 324,91 368,300 66,214 465,154 29,235 248,603 610,482 507,361 454,172 495,183 619,478 366,294 519,777 579,780 609,385 187,173 254,165 276,347 411,227 474,375 289,214 978,595 195,630 386,287 663,523 146,237 544,106 275,215 265,190 519,430 241,234 794,729 334,290 364,151 378,238 132,169 201,598 572,359 536,287 500,420 569,400 557,386 565,79 88,131 177,170 231,118 599,416 679,462 359,158 421,187 373,237 244,121 420,341 466,194 309,60 670,519 471,426 744,530 819,609 500,293 165,81 467,240 383,232 400,97 135,79 320,93 421,110 538,269 410,292 630,414 428,242 808,679 292,256 548,347 168,607 132,129 424,180 579,366 471,267 472,54 443,276 758,595 541,416 579,118 230,207 351,220 595,316 430,111 678,541 52,214 457,237 534,447 682,867 482,117 327,152 161,564 272,152 553,74 490,390 146,80 104,141 567,364 268,84 510,92 457,327 509,397 457,129 430,163 593,416 840,713 426,97 437,105 499,272 613,784 358,118 310,173 822,684 732,517 196,184 410,193 434,104 258,245 502,57 655,785 833,591 462,181 512,268 526,444 127,239 183,561 660,526 351,167 538,402 661,510 132,269 575,785 255,251 387,207 826,679 118,277 472,137 718,812 588,450 582,361 120,170 797,644 576,314 84,176 69,234 513,356 481,184 88,117 218,132 846,734 124,277 842,670 420,221 216,670 485,75 455,227 461,306 876,677 457,313 162,87 331,262 561,307 715,551 582,464 414,180 445,153 575,406 805,591 344,300 207,132 138,148 304,80 747,498 399,184 797,639 452,313 279,143 91,151 802,743 443,163 469,94 655,514 648,450 588,387 582,369 352,153 31,117 617,472 62,179 440,289 977,581 784,634 498,371 227,108 143,179 467,151 198,180 218,631 410,129 521,104 448,97 767,760 799,637 373,97 795,729 829,672 473,185 489,67 466,411 141,90 50,122 203,676 309,139 974,572 48,111 668,809 479,67 200,141 619,427 310,211 569,80 641,419 206,636 527,63 148,152 299,196 586,379 600,373 598,317 211,201 356,245 850,657 355,194 413,269 356,262 410,112 541,472 523,376 545,323 531,403 590,117 842,655 672,444 301,254 826,616 629,791 214,530 864,698 276,83 443,187 127,182 825,691 560,716 369,217 791,739 475,120 39,134 246,211 709,768 561,110 237,224 118,244 452,110 410,323 176,677 578,95 493,119 292,114 355,285 444,160 843,722 286,148 297,87 251,225 120,208 235,65 710,547 165,614 33,224 189,152 373,318 617,500 660,512 469,424 526,122 852,685 548,111 524,395 725,789 825,679 562,114 485,293 470,69 719,578 664,529 718,589 521,79 492,273 574,59 348,132 549,126 387,263 579,361 431,340 599,476 653,505 630,777 472,148 648,444 430,72 668,538 519,386 716,581 392,117 524,430 553,338 395,191 232,166 466,29 534,799 584,451 496,399 524,382 794,600 427,407 399,276 480,127 335,77 191,111 617,414 454,165 713,513 246,81 327,282 695,765 90,104 445,287 344,200 182,532 190,639 145,131 529,423 365,146 491,134 335,196 531,330 478,179 650,536 309,372 534,115 589,392 606,123 337,285 132,176 220,184 561,423 495,330 474,268 390,218 323,273 320,208 362,361 212,611 400,234 667,479 420,128 720,509 657,555 352,297 158,120 572,758 539,91 578,113 474,386 341,338 586,299 88,108 105,134 225,631 316,213 459,96 183,90 742,763 1000,605 138,134 781,753 301,81 214,152 981,606 199,697 644,516 606,387 407,165 303,256 372,98 633,499 475,321 80,165 804,644 77,241 276,262 345,252 470,163 589,452 170,143 469,306 300,217 169,688 482,345 406,239 494,115 622,842 221,239 347,100 292,122 128,276 744,761 219,236 404,69 105,270 837,633 237,117 737,778 242,187 376,175 591,380 166,227 489,138 494,260 462,261 483,380 183,136 170,118 413,235 407,141 580,90 272,230 620,512 980,581 152,112 500,396 208,235 420,290 553,313 371,297 605,132 468,134 826,599 239,191 613,465 537,101 555,376 533,277 551,311 789,744 819,678 653,502 399,231 255,618 320,206 197,172 585,109 710,764 108,248 293,218 457,272 523,276 289,160 228,87 531,64 533,458 500,369 550,782 490,285 431,33 372,184 505,348 369,276 465,87 417,320 80,112 825,671 246,149 390,341 200,555 334,325 414,87 200,221 563,102 259,138 873,569 362,183 585,90 610,454 822,495 486,108 505,276 431,176 158,114 231,649 498,266 437,158 550,417 826,706 554,414 501,104 430,211 396,29 440,91 602,411 526,385 608,125 478,61 520,459 1002,600 534,445 328,309 155,674 293,230 110,146 445,215 167,98 419,277 419,191 35,120 212,235 503,392 386,211 513,97 553,289 459,107 509,334 356,213 378,158 464,307 129,100 301,237 410,63 238,232 708,829 480,212 633,476 577,83 605,396 182,105 526,773 201,153 828,719 187,107 657,516 111,146 194,695 655,506 110,141 222,134 622,433 227,238 306,63 183,214 327,173 395,289 510,306 280,162 337,276 314,282 733,548 614,124 664,455 368,268 843,718 386,390 325,167 445,129 430,318 510,132 808,647 499,52 238,182 514,270 926,551 723,471 373,238 736,777 726,454 286,143 600,423 472,103 538,426 789,751 235,237 1001,613 395,292 279,163 904,569 443,151 894,694 489,97 493,116 585,114 634,823 382,156 332,218 176,136 606,371 524,431 685,431 400,175 342,332 451,183 426,72 207,153 687,543 547,383 383,241 857,701 584,802 387,43 427,159 555,114 713,781 426,101 208,129 543,128 417,14 268,203 473,141 311,190 387,290 340,317 355,309 479,248 340,283 222,517 386,114 227,230 462,142 805,773 402,299 241,142 630,503 475,273 634,500 410,124 995,616 524,444 314,172 550,68 539,104 376,162 258,149 812,572 584,410 682,771 438,245 505,794 644,534 204,121 396,180 816,753 579,445 778,774 729,863 777,530 332,125 503,51 301,108 356,294 375,235 566,87 220,93 330,193 592,382 543,530 575,117 245,238 730,544 795,742 186,630 540,342 318,97 224,100 481,94 444,184 489,246 600,324 718,584 403,62 420,294 88,152 692,837 369,101 466,287 519,379 402,358 330,77 145,207 146,76 564,428 512,276 457,33 623,775 35,220 170,565 517,338 479,171 255,235 467,123 225,160 561,90 481,260 684,819 444,84 832,719 523,419 301,153 466,385 843,663 492,269 402,151 550,93 547,109 190,543 554,395 574,65 138,179 576,95 430,261 531,365 828,688 261,96 483,53 546,64 290,135 94,275 461,310 555,327 361,213 521,324 376,132 723,527 389,165 461,95 517,96 736,503 585,808 521,120 600,483 819,660 746,763 496,356 493,459 241,203 530,282 324,252 520,59 567,382 688,489 393,328 788,444 304,163 562,385 658,433 694,486 660,828 502,345 497,253 900,558 356,215 176,617 861,672 496,792 477,163 570,97 249,237 206,167 530,373 172,225 420,379 719,813 513,275 239,239 636,469 788,624 252,249 671,514 255,227 259,141 161,668 471,213 541,98 448,321 998,609 173,224 155,63 316,177 556,67 366,193 533,373 492,255 227,186 426,93 341,183 190,232 33,225 681,537 832,687 715,513 395,222 536,486 97,196 536,435 840,599 252,615 576,416 655,416 327,221 603,385 565,378 414,294 117,268 757,761 767,560 633,472 420,373 832,708 463,258 314,231 112,180 544,114 871,679 515,92 689,799 182,165 277,235 208,193 317,368 270,200 661,519 268,187 699,821 361,153 474,163 543,372 715,880 392,289 340,269 400,84 406,311 473,138 382,249 310,231 213,237 482,430 795,609 214,545 277,193 588,91 791,781 141,94 428,327 715,837 144,536 340,129 117,124 589,830 798,592 454,155 148,163 94,124 629,495 468,153 420,29 254,179 431,383 657,529 258,90 476,85 159,83 246,141 558,297 534,774 532,55 531,486 476,251 286,72 494,184 32,187 347,235 62,198 847,612 390,280 159,121 564,486 463,225 420,318 620,466 512,82 463,127 608,464 594,504 461,164 455,21 258,184 222,232 490,148 259,254 378,131 701,534 553,366 421,332 11,175 648,530 94,128 630,482 107,155 558,455 487,102 248,231 480,235 619,392 598,323 850,665 568,413 270,215 268,198 335,183 454,221 277,79 183,156 554,104 565,325 351,307 830,733 443,304 263,231 689,794 791,617 402,120 701,835 619,512 369,221 574,304 526,373 694,519 581,310 93,170 400,330 668,534 378,244 492,196 740,558 660,506 155,535 55,158 460,96 265,230 482,63 345,276 49,242 80,277 493,438 227,557 57,146 619,474 177,210 459,101 428,206 474,289 431,136 710,464 340,213 593,359 354,359 485,313 770,538 687,842 423,365 311,105 352,172 598,458 385,98 379,179 410,252 589,351 574,299 472,317 505,334 565,397 749,777 730,805 424,225 833,694 437,153 457,282 586,390 581,300 537,325 330,272 349,93 430,156 591,366 115,201 155,657 627,410 835,687 344,317 534,290 354,351 620,417 586,385 544,390 499,359 654,526 355,175 499,341 781,751 541,433 139,184 828,629 84,118 215,207 145,201 630,379 195,637 995,602 151,176 471,250 375,318 364,198 496,396 107,221 571,437 575,430 338,263 434,238 578,375 419,197 382,238 238,676 285,259 345,294 254,632 804,671 565,383 159,613 839,512 358,142 675,853 207,220 806,743 279,149 819,584 496,262 220,107 640,396 397,263 235,240 574,354 461,252 309,124 241,245 372,317 292,163 385,221 507,267 406,101 812,664 406,187 691,884 378,306 292,210 175,129 483,141 402,276 156,692 672,468 553,56 600,372 846,696 972,565 386,166 62,117 239,158 141,122 206,680 323,189 397,251 297,122 880,660 289,203 416,134 443,309 687,541 540,407 737,777 372,230 591,469 547,112 28,191 526,371 372,143 727,500 797,613 138,76 605,390 933,574 245,197 230,227 316,218 359,324 483,433 994,619 180,558 743,780 338,235 799,608 757,510 475,383 486,256 475,142 261,108 543,354 396,241 663,553 177,96 650,413 321,265 522,106 569,431 661,423 307,105 167,93 387,135 228,160 468,104 254,118 540,104 356,362 201,643 589,826 427,316 132,272 548,368 465,250 511,97 96,146 582,406 451,131 505,455 372,321 564,387 214,190 698,524 1000,602 395,307 254,655 657,493 465,190 296,124 878,674 561,301 204,112 167,612 300,55 548,122 733,777 275,200 241,124 444,354 527,778 232,62 152,169 317,60 844,513 19,186 407,262 221,527 234,141 802,608 348,310 476,246 644,421 487,155 293,221 254,111 376,301 419,301 819,708 400,160 471,269 551,314 500,344 304,193 424,221 489,390 334,265 476,58 158,230 419,59 842,679 321,96 532,58 576,106 842,722 609,126 461,12 606,327 395,70 856,668 995,620 252,108 512,438 318,371 26,115 854,696 149,221 568,410 508,62 314,275 445,158 525,66 598,380 107,203 471,259 93,283 352,231 117,117 544,62 802,770 476,272 321,132 26,176 526,128 998,615 864,664 426,105 462,310 110,268 538,417 856,572 197,630 215,198 464,345 984,567 266,213 503,375 190,136 101,170 478,273 684,510 433,206 486,136 478,117 654,427 532,53 259,215 694,794 560,423 589,88 342,149 142,125 802,665 496,113 531,292 833,685 334,76 541,121 729,495 840,639 437,235 471,101 338,131 373,222 417,403 156,105 595,338 774,538 414,276 340,354 986,581 781,612 232,198 445,197 236,644 474,110 220,173 500,114 117,273 536,320 648,489 555,356 671,498 822,682 617,443 788,767 861,694 534,60 376,139 594,57 830,596 445,393 145,241 533,89 462,147 426,218 868,530 626,489 510,59 489,282 561,99 494,103 461,188 77,117 210,156 639,466 227,127 461,276 592,378 490,189 497,57 427,193 612,128 551,124 142,160 503,129 484,108 352,73 365,136 399,335 386,146 166,664 462,277 245,190 681,427 98,213 341,321 569,393 434,292 799,634 411,246 804,722 469,110 548,72 737,579 760,585 232,673 843,742 376,222 489,438 235,194 306,184 358,206 320,294 327,320 637,400 120,270 386,371 231,238 307,208 424,299 193,101 479,121 981,592 543,443 606,469 317,369 414,265 327,77 451,307 589,416 307,369 555,328 283,232 514,113 368,189 354,293 531,98 372,342 428,366 720,571 254,100 362,292 570,108 162,93 559,61 687,804 383,310 981,593 411,341 443,138 473,147 713,493 579,91 563,83 222,193 208,222 332,238 466,111 459,251 424,286 225,148 327,311 567,400 372,35 256,220 340,207 410,215 598,100 651,530 411,228 296,84 365,348 753,595 510,454 464,124 156,691 228,239 270,169 124,190 506,406 830,684 387,309 72,230 530,486 559,88 81,105 663,413 445,97 528,84 709,440 529,64 320,286 739,490 206,660 867,667 588,113 127,111 466,94 321,238 320,307 242,115 795,739 911,574 557,292 66,175 737,512 568,386 227,176 823,668 846,640 681,832 718,586 682,526 98,280 221,666 531,285 648,471 588,413 373,331 881,668 685,482 328,323 484,88 487,122 818,702 294,105 589,364 296,156 569,356 584,341 351,282 551,76 606,364 557,296 520,309 103,214 145,516 471,175 791,771 483,235 310,279 705,812 543,368 720,496 364,96 354,321 595,475 497,182 411,112 866,575 365,358 754,543 324,93 458,340 419,187 551,471 434,187 797,782 596,475 70,173 67,111 365,265 282,165 414,270 596,395 696,818 472,135 637,397 437,186 524,469 80,186 506,354 581,359 706,878 506,471 813,561 809,773 829,626 678,771 761,451 548,301 397,56 482,174 469,33 170,101 844,574 349,242 419,359 492,437 527,385 404,115 520,124 225,238 125,275 59,251 403,148 340,42 438,207 397,149 366,299 534,111 603,376 739,514 603,417 166,198 310,94 632,403 213,159 438,163 421,300 300,214 165,153 655,472 993,609 309,67 483,112 778,768 87,110 132,132 224,134 451,120 688,828 110,265 196,143 290,241 421,196 650,485 375,307 590,90 818,685 184,550 426,118 480,141 575,410 356,263 588,479 177,153 757,765 506,50 569,396 571,299 713,458 132,88 380,261 527,435 112,270 488,110 526,292 826,739 97,221 502,135 386,262 674,495 110,138 335,194 269,239 560,393 430,304 811,660 183,125 458,382 718,591 222,143 726,579 375,176 564,307 500,261 402,196 307,373 901,521 42,255 361,149 486,334 249,529 269,134 647,475 660,509 457,96 368,36 880,665 393,166 778,754 560,450 129,275 385,320 733,852 828,689 509,103 484,164 344,84 261,87 287,190 433,263 653,517 359,263 145,556 596,392 519,354 355,198 438,416 596,472 551,431 703,792 839,701 976,595 382,340 369,218 488,115 239,97 567,818 505,430 594,107 334,332 33,228 359,355 679,794 160,687 217,129 118,280 69,146 575,91 521,72 521,775 603,121 184,208 600,118 421,175 780,782 602,358 419,337 646,450 485,259 230,642 861,519 581,378 60,232 471,152 536,352 576,832 337,193 355,265 577,105 558,496 833,706 780,756 788,543 241,218 584,301 564,420 478,123 560,106 543,56 445,383 479,135 505,792 493,266 36,179 617,417 488,781 454,105 201,132 516,791 804,613 554,376 392,263 217,108 352,218 546,118 835,637 620,437 283,206 664,454 993,582 463,198 347,266 739,854 335,173 648,536 230,221 809,632 538,438 742,533 159,90 804,675 335,338 455,129 258,252 1002,599 354,347 347,238 694,444 138,191 534,362 205,688 527,416 550,448 476,33 512,103 588,383 849,516 327,184 88,155 451,115 330,158 423,373 509,282 568,371 489,382 568,65 120,135 655,423 531,297 138,235 389,261 533,81 536,53 33,213 355,197 744,758 757,758 823,630 239,138 584,382 464,203 474,393 159,136 183,193 383,314 242,222 402,286 411,325 517,392 254,86 316,372 190,210 420,362 254,120 562,292 200,630 400,190 169,184 526,121 268,121 440,200 812,582 519,351 963,551 232,506 541,777 527,452 733,708 316,221 103,190 560,361 688,514 461,94 434,142 547,375 674,554 375,120 576,362 852,695 976,610 224,200 277,232 289,210 569,59 544,51 646,521 190,626 235,203 646,505 774,609 487,235 557,459 416,143 465,141 324,214 534,118 496,393 414,167 602,379 435,311 531,106 444,397 560,382 83,282 474,189 128,96 379,215 420,198 448,402 199,628 173,162 382,104 495,282 691,433 595,386 771,758 280,204 210,224 335,63 575,76 177,543 588,356 395,245 203,163 568,760 708,545 22,189 672,870 22,190 177,148 943,560 193,104 743,764 650,527 266,228 589,773 496,116 506,777 289,220 472,68 843,616 478,185 268,254 318,254 476,450 451,60 447,100 500,465 182,675 248,86 479,102 158,151 581,87 627,503 998,616 411,55 703,765 404,296 534,409 562,342 520,441 230,588 183,687 598,385 640,825 579,474 811,593 419,338 744,561 470,104 826,667 217,230 616,404 306,121 63,238 466,240 232,176 535,108 392,362 146,242 483,82 184,676 45,138 297,176 221,502 582,375 341,307 234,240 502,788 221,190 115,272 220,101 115,165 450,310 323,292 489,198 609,431 444,145 586,387 386,307 361,227 687,538 612,132 540,489 375,91 1000,606 134,270 265,170 91,283 734,579 836,732 557,330 503,258 225,159 554,416 663,420 646,529 139,540 337,269 802,643 142,114 184,121 734,760 616,468 434,153 517,50 529,111 593,107 537,118 466,311 356,83 35,170 296,191 417,258 517,404 386,153 330,31 220,510 351,215 160,210 833,737 571,385 101,283 417,330 335,29 440,361 331,276 334,201 337,245 464,92 90,272 622,369 591,90 678,481 589,109 115,234 259,246 239,72 67,184 596,345 197,139 191,628 505,128 428,180 282,180 90,125 361,163 696,727 529,472 577,60 404,138 323,148 504,81 371,311 268,108 562,481 330,237 292,203 648,410 356,356 337,131 847,658 548,314 407,309 225,206 149,206 545,79 228,186 479,34 633,537 997,608 720,531 509,111 327,242 469,242 240,245 340,29 839,665 259,117 475,364 725,584 742,576 619,131 486,440 538,356 998,599 348,73 478,435 410,402 485,86 407,227 170,93 461,202 368,139 685,768 811,574 527,100 423,31 406,59 471,68 570,67 469,92 375,117 420,41 491,125 400,135 417,371 586,375 359,48 556,100 553,296 758,578 560,798 399,62 184,120 153,146 395,143 270,201 448,220 276,118 349,117 389,292 421,206 310,128 653,514 505,132 297,246 286,163 179,193 584,488 321,173 964,578 609,368 544,310 825,698 289,186 32,228 410,354 844,718 866,668 309,170 478,85 218,98 551,358 400,285 472,239 709,785 836,565 611,122 620,499 476,69 390,221 813,610 758,574 410,218 167,608 261,162 606,498 303,166 547,448 371,207 632,811 691,462 211,187 349,189 601,120 330,190 640,816 199,631 609,382 467,173 592,474 382,331 509,407 380,303 375,134 977,593 372,340 21,184 478,155 97,224 734,761 227,213 183,138 334,316 806,736 147,678 727,844 389,230 508,92 76,237 188,660 434,290 890,684 145,132 393,230 179,101 452,146 244,81 403,252 595,421 469,383 414,139 585,84 396,263 517,359 451,97 493,373 623,457 167,540 443,105 359,276 713,836 833,509 688,857 843,617 540,437 404,234 476,109 812,730 584,340 175,182 387,108 173,84 355,283 579,342 668,821 221,204 396,169 458,100 427,265 215,132 812,653 193,232 591,303 183,183 289,110 605,499 842,648 657,534 897,529 39,122 86,165 537,361 495,324 555,417 475,416 537,359 459,79 651,529 720,868 93,276 314,197 105,156 503,128 826,726 366,210 546,92 337,217 702,472 423,183 743,599 633,516 774,536 369,145 836,712 335,160 562,76 476,89 488,91 428,118 496,280 182,134 232,214 393,327 125,193 187,148 720,524 131,158 476,190 514,396 696,541 544,128 138,88 520,466 915,568 602,378 263,558 337,52 486,72 710,816 337,214 124,251 454,104 771,524 496,252 517,366 852,639 221,220 474,107 792,780 514,296 540,356 781,619 491,60 464,393 424,156 653,406 21,187 636,792 603,826 219,239 389,228 499,445 626,778 221,231 757,760 588,358 414,15 677,450 414,393 883,655 248,112 198,521 469,186 450,317 627,496 475,349 342,294 833,715 670,540 472,91 115,270 299,122 596,498 544,371 500,286 490,337 557,428 318,235 545,103 486,280 833,498 500,128 572,97 500,799 426,111 290,160 309,220 407,330 304,189 782,531 371,55 888,670 318,270 314,225 771,545 535,85 729,709 516,112 808,651 531,359 337,111 576,335 455,254 570,102 334,146 593,87 368,196 276,213 551,404 32,170 703,808 531,406 661,530 809,608 261,211 804,674 835,574 908,572 570,112 237,139 764,595 541,386 433,138 610,437 969,572 586,404 668,780 265,207 854,537 507,279 355,266 561,117 493,108 376,177 362,352 385,53 222,96 235,111 420,207 622,390 215,217 694,871 197,131 404,22 567,82 311,67 227,197 296,134 802,644 256,135 799,716 354,189 110,262 297,60 771,599 890,691 842,725 375,213 552,91 462,159 476,254 290,149 184,152 112,151 379,224 379,277 514,104 466,286 654,444 665,870 340,77 552,90 311,52 265,241 466,145 555,81 497,53 510,293 797,608 677,476 696,464 780,622 472,145 203,115 521,286 414,151 208,571 268,256 859,667 562,103 533,335 38,170 513,125 891,674 448,227 187,203 258,220 560,396 715,448 546,54 533,57 609,830 523,404 437,200 555,361 554,80 716,861 325,170 469,133 550,396 694,500 479,113 93,122 393,101 207,538 484,165 356,167 241,72 437,210 661,417 774,760 318,127 526,334 211,153 142,81 249,241 832,749 376,246 495,390 574,366 255,217 373,334 471,10 118,179 340,306 244,179 146,186 380,292 572,76 541,359 525,92 732,788 335,356 832,657 289,198 487,124 371,43 458,277 545,417 505,269 498,380 552,86 543,337 285,101 382,314 403,163 722,805 458,96 723,809 468,262 562,75 437,43 258,100 554,324 84,218 355,248 438,132 321,72 873,653 404,392 598,371 486,37 832,677 544,430 496,443 575,433 698,773 481,430 340,300 224,213 572,451 33,180 722,818 558,64 617,130 255,120 217,156 234,117 59,237 730,512 338,245 183,98 465,183 338,214 351,206 740,785 723,472 455,25 664,417 479,273 122,128 464,43 701,849 397,200 155,108 633,402 218,172 448,232 303,249 545,85 712,471 842,637 747,495 503,303 314,299 424,65 59,254 470,181 292,84 407,24 675,506 387,248 533,440 330,300 864,681 416,238 50,204 433,290 254,200 572,433 419,124 788,619 483,170 340,304 419,66 808,644 417,72 413,152 547,392 190,153 626,472 258,121 351,91 527,426 29,193 596,54 701,839 622,469 806,725 413,122 414,153 251,124 76,246 490,116 182,611 393,148 462,184 352,258 204,122 67,187 263,103 508,91 495,354 434,208 52,155 477,241 445,290 409,53 568,100 993,596 517,121 812,608 461,231 269,191 584,309 167,674 486,173 521,383 285,118 352,280 538,316 234,115 801,750 565,808 416,348 705,854 364,256 579,348 804,780 86,148 256,227 646,465 538,382 805,548 340,290 471,131 545,292 358,361 335,180 450,198 261,227 285,104 458,66 775,757 402,242 678,813 414,220 389,389 613,387 417,94 234,100 474,254 230,97 587,112 115,114 445,175 168,543 915,572 529,448 297,214 534,64 74,180 530,84 701,435 406,33 692,527 427,313 595,416 552,57 376,290 125,220 634,413 842,684 332,222 207,235 276,146 801,775 110,143 723,482 320,241 589,441 440,249 890,661 548,332 468,256 470,84 551,113 466,419 791,615 211,649 548,383 873,685 922,557 76,120 472,53 509,356 66,220 558,387 691,550 397,141 821,751 550,341 501,123 973,598 451,303 569,57 400,318 527,134 451,32 547,428 385,182 443,76 42,197 588,385 657,464 200,596 878,670 372,245 397,105 383,172 565,420 788,760 469,134 523,59 362,207 843,670 664,414 444,224 347,265 664,495 550,83 809,658 378,62 856,640 335,359 598,373 472,193 153,180 481,62 460,132 160,81 366,186 143,234 390,155 266,249 18,179 861,655 172,167 564,403 981,581 98,268 105,268 179,198 273,242 186,124 373,179 131,91 97,175 146,249 627,505 476,67 217,669 849,689 457,368 558,318 715,520 770,557 222,176 365,143 556,70 765,584 404,103 760,761 414,255 248,622 699,481 390,335 469,386 162,552 701,459 758,521 678,529 722,802 650,506 399,331 275,86 448,114 569,372 224,562 681,771 843,694 169,682 452,67 521,380 688,537 567,301 420,317 328,275 534,67 386,376 382,227 713,771 318,155 444,364 496,183 465,366 716,524 551,335 559,103 203,177 804,763 542,90 289,167 514,354 505,465 630,808 609,488 584,784 584,354 366,317 351,272 72,180 510,273 561,419 765,495 251,108 399,237 180,225 444,310 297,387 606,426 110,270 495,413 744,534 550,414 537,459 586,110 338,175 70,221 451,340 354,179 97,285 283,249 211,148 789,747 541,414 871,650 366,215 55,112 235,182 395,87 56,239 46,182 537,276 175,572 592,83 489,36 417,112 91,275 626,382 540,448 382,262 547,387 778,608 399,214 530,304 488,114 692,474 754,602 822,703 38,167 221,187 503,433 459,330 634,478 582,430 402,364 419,265 836,627 387,167 306,231 382,349 468,221 632,816 324,318 510,292 464,113 802,640 643,774 186,698 770,603 246,173 538,474 459,222 601,56 485,100 571,478 818,730 176,581 197,588 558,324 464,89 846,703 694,540 190,107 545,434 304,108 413,191 481,251 297,228 268,167 399,285 465,103 847,708 256,261 251,242 383,359 101,268 328,196 108,275 323,286 993,574 606,356 579,464 688,458 129,163 461,230 822,647 608,132 511,111 506,121 361,179 227,110 165,101 502,395 427,228 265,251 592,414 710,863 451,246 464,247 457,108 399,213 489,241 304,190 558,447 421,108 754,764 521,113 685,466 120,152 636,540 182,91 476,128 541,81 560,764 41,117 468,364 462,101 228,110 372,277 572,411 516,122 716,883 258,98 725,561 526,481 883,675 191,624 548,399 359,310 983,567 612,344 202,638 478,38 561,84 819,694 535,89 261,248 746,464 595,307 687,822 791,550 417,261 218,225 105,152 376,165 751,553 503,798 375,224 674,519 368,138 259,186 514,774 792,736 870,688 416,392 266,575 480,265 421,361 514,459 431,103 878,648 584,115 248,214 399,194 121,135 469,65 255,172 512,483 475,91 392,239 564,323 729,517 570,61 538,92 746,764 426,110 175,602 403,193 637,122 469,275 681,543 447,331 489,365 221,557 356,307 173,105 785,749 348,294 380,70 488,194 575,361 201,220 678,448 481,167 421,228 249,86 443,208 266,190 710,866 306,142 701,519 454,117 496,74 340,53 151,160 259,523 433,45 681,813 296,115 386,93 553,58 461,59 582,306 400,375 722,490 454,362 670,416 592,379 221,230 488,272 455,217 484,65 912,574 516,114 100,283 110,241 553,118 547,475 378,265 465,227 454,235 417,100 593,355 438,225 261,200 122,276 332,52 241,241 318,69 512,410 500,382 296,114 592,325 454,73 835,695 413,190 578,372 562,399 822,503 410,228 575,87 600,316 86,153 514,45 540,314 390,122 433,242 386,220 675,435 208,207 584,337 287,239 491,247 213,186 791,623 395,218 252,231 478,244 596,393 48,125 215,115 600,117 520,283 657,468 742,595 789,740 368,206 523,317 390,293 306,55 450,327 852,675 479,347 338,38 482,397 472,140 608,379 251,201 530,416 211,540 583,114 386,369 232,63 138,555 248,234 351,286 400,403 55,163 691,802 125,270 854,701 338,221 404,214 553,323 596,826 527,294 598,407 809,678 204,194 540,457 495,129 463,230 207,169 419,183 419,254 345,241 483,261 371,286 252,248 410,24 554,79 568,392 623,455 413,31 479,378 254,220 505,120 559,112 460,150 829,629 285,87 471,294 536,428 536,117 887,684 541,107 806,682 577,126 245,198 167,588 619,359 368,406 749,591 444,325 136,182 801,639 483,114 737,761 508,100 292,184 581,106 568,108 213,220 480,231 234,146 489,402 317,287 392,159 703,764 844,537 509,773 512,362 104,282 581,428 573,89 309,105 325,313 514,272 176,122 172,599 197,120 811,760 476,95 519,780 389,162 196,118 407,56 84,156 311,70 371,114 393,163 533,386 797,713 503,264 438,175 206,690 802,716 797,527 730,794 378,234 541,409 250,667 602,427 661,438 176,91 299,152 486,396 169,678 538,472 167,204 63,214 750,490 615,421 528,101 468,88 451,194 193,136 215,146 215,196 444,246 321,115 290,255 351,72 596,358 230,239 523,416 525,120 629,781 839,653 465,266 726,853 335,293 727,450 390,179 296,228 427,183 461,250 60,221 108,141 500,342 103,203 250,666 441,159 416,121 428,213 395,235 255,187 170,214 457,200 406,189 289,108 568,380 599,434 245,142 124,179 768,767 553,784 135,108 624,493 561,498 560,294 496,376 543,124 400,142 527,355 505,344 612,392 411,249 490,341 366,241 74,189 557,63 206,651 138,542 534,280 186,105 660,434 290,173 91,237 424,215 695,516 615,359 76,162 463,74 111,269 414,176 455,324 622,830 138,162 316,103 964,571 172,215 359,187 667,527 194,206 598,358 590,86 521,80 512,289 477,175 380,149 657,438 366,270 984,620 806,767 310,235 306,261 321,269 403,254 592,337 463,60 718,576 426,18 324,162 595,376 472,303 433,33 390,110 28,122 596,390 512,332 554,375 661,458 812,623 819,722 506,107 593,447 541,389 378,303 460,127 471,66 562,84 327,121 477,35 420,134 201,696 228,225 737,763 276,141 688,540 306,167 235,135 221,603 443,428 742,572 705,835 386,177 729,595 431,191 715,763 379,282 345,235 410,235 561,59 785,781 771,588 507,109 468,175 553,430 191,595 318,227 452,190 190,120 347,317 498,124 256,108 354,303 507,403 598,471 526,332 488,297 712,492 304,221 111,151 60,122 606,445 536,431 547,426 763,753 397,362 506,118 558,314 644,496 465,267 835,739 152,189 396,142 577,87 252,234 678,815 725,564 464,433 70,239 167,239 809,605 182,683 469,225 373,214 733,757 369,156 551,347 390,190 534,359 598,383 177,605 733,565 510,277 359,145 107,215 417,55 668,465 50,234 404,306 421,141 542,83 91,287 525,99 213,128 823,734 122,170 416,203 461,156 206,139 407,283 521,50 163,581 462,136 560,115 547,306 481,351 788,464 591,361 342,191 572,427 528,131 799,746 567,324 141,86 863,668 461,175 613,127 168,684 448,375 591,313 203,190 498,58 149,238 200,222 265,220 324,183 77,213 508,124 555,420 101,244 498,192 246,70 468,89 974,578 569,430 393,345 564,375 344,325 419,303 536,404 508,49 789,471 349,98 840,684 506,458 578,443 431,210 289,245 661,424 235,228 840,655 646,527 239,80 562,389 572,311 534,413 378,197 562,382 512,417 163,190 222,198 532,100 275,91 670,788 493,371 792,729 849,550 497,188 572,366 808,658 821,639 393,105 452,38 509,481 874,655 815,692 189,111 474,103 472,83 485,121 534,55 535,92 427,256 261,101 378,272 458,323 361,173 504,101 605,392 791,562 663,423 489,123 94,183 280,237 128,143 86,285 231,521 287,201 516,771 830,695 424,201 465,257 462,177 544,404 131,228 497,111 293,184 87,131 411,266 437,86 187,127 128,159 294,213 474,88 69,213 386,328 345,101 331,222 369,96 564,354 829,703 221,180 486,434 402,234 198,588 141,207 546,124 847,692 437,59 551,419 489,144 97,121 567,91 359,208 462,272 280,177 450,258 558,351 203,136 347,345 317,214 345,187 35,211 435,98 486,83 266,121 709,781 294,128 411,276 361,107 176,110 131,206 839,644 238,235 465,224 740,471 473,92 93,234 335,249 167,175 390,323 435,294 825,634 406,118 163,91 639,488 427,242 55,218 847,689 289,248 551,74 389,139 327,307 256,548 526,404 411,160 570,64 397,100 375,204 505,417 304,142 995,589 505,332 397,340 624,373 263,142 348,45 475,310 499,409 797,557 899,559 545,282 884,699 822,670 646,536 524,366 466,109 789,722 708,864 407,258 902,566 385,270 584,468 444,293 313,197 341,239 805,524 495,313 101,228 190,118 719,880 556,80 578,115 309,373 564,431 254,654 526,372 603,410 538,376 703,529 255,176 256,201 463,156 149,239 471,24 712,877 447,69 28,176 111,155 565,407 465,131 327,227 633,469 610,475 402,65 342,166 691,524 554,56 514,778 520,111 403,111 485,310 227,187 503,454 509,323 689,765 404,325 561,309 383,300 569,767 338,151 94,237 614,126 335,231 382,385 494,91 585,55 450,266 504,118 310,255 393,282 491,148 221,614 451,66 409,176 414,179 514,457 571,82 592,304 292,118 254,184 356,232 822,722 246,127 460,122 200,696 847,610 490,368 261,167 153,175 356,114 409,211 479,181 132,179 382,169 424,153 648,844 514,132 400,331 478,335 443,59 533,106 484,266 323,128 749,589 874,665 399,352 469,247 120,273 249,138 541,292 310,375 235,128 81,277 554,345 378,43 239,148 396,121 182,558 393,262 420,131 498,356 822,709 323,138 404,354 251,84 142,256 508,110 463,167 694,770 280,172 563,80 534,294 380,276 902,572 376,65 245,218 354,87 479,235 159,646 245,110 111,158 742,578 792,610 416,371 473,166 355,45 56,173 445,139 407,200 519,475 856,521 536,289 385,62 194,127 568,437 713,764 279,183 465,314 531,393 378,330 262,189 540,331 440,395 696,768 310,143 548,331 323,290 761,529 612,389 646,437 593,344 657,519 746,509 248,186 488,189 399,334 555,317 806,722 213,645 500,110 544,375 819,671 484,75 506,75 294,156 420,114 510,379 713,517 596,500 31,228 180,228 76,235 497,112 306,246 403,110 248,671 577,93 249,132 505,791 269,94 454,313 371,121 588,414 424,239 892,674 586,335 619,499 366,46 566,101 131,182 314,93 407,139 839,694 496,417 488,327 349,132 340,201 389,307 551,780 658,475 94,270 121,214 516,356 371,276 52,124 242,182 468,38 191,227 372,228 70,110 863,510 331,121 484,111 520,389 475,152 471,92 468,126 516,107 321,211 498,136 474,195 279,225 286,186 500,402 488,380 486,125 599,390 448,170 581,411 316,72 698,729 108,145 500,801 507,290 479,189 84,194 227,94 571,325 309,273 406,286 282,169 170,625 516,124 471,168 660,554 743,595 362,193 215,214 378,190 471,407 606,366 548,311 269,249 87,112 688,822 454,340 153,158 175,684 135,222 450,177 122,273 521,293 452,127 805,593 311,221 797,581 492,61 459,220 410,110 579,354 457,361 468,69 667,462 812,685 153,83 485,373 365,372 459,279 523,365 825,709 478,323 634,386 434,31 509,107 426,103 269,98 856,696 557,311 345,231 665,836 832,701 488,375 750,756 610,787 368,311 410,184 571,92 572,297 413,222 467,241 543,116 654,433 560,340 485,38 286,255 224,214 431,65 431,215 125,153 396,59 526,464 466,93 149,179 530,376 184,540 324,259 411,117 612,469 668,540 440,156 493,104 503,792 380,183 393,376 393,324 348,69 471,245 268,152 548,411 416,52 567,406 338,242 66,232 395,100 613,368 359,318 438,142 545,496 292,129 688,520 218,186 543,55 228,125 328,139 255,124 495,332 184,678 287,152 46,225 163,234 991,578 545,89 976,598 210,118 443,299 433,163 478,183 318,231 561,400 215,101 663,493 582,351 691,519 694,468 531,407 818,750 256,163 338,45 469,292 341,235 568,811 512,466 392,186 487,263 488,108 458,235 568,775 583,82 462,392 358,294 850,692 506,438 588,364 211,200 482,459 440,52 479,351 465,231 564,104 169,602 191,115 833,674 549,119 246,120 215,236 81,156 332,297 552,100 594,117 272,255 490,113 434,373 482,97 884,672 463,186 108,125 504,48 496,103 347,69 108,167 402,303 546,57 197,149 115,177 825,648 479,224 440,110 462,351 447,176 317,191 498,143 238,96 533,464 808,719 520,390 160,153 888,698 482,409 175,162 592,361 465,90 775,777 455,434 871,675 589,115 328,259 644,530 111,167 407,244 286,201 218,586 455,198 427,249 557,88 548,382 227,87 410,214 567,407 495,419 613,479 715,584 213,230 189,134 435,132 506,309 86,172 56,114 460,75 220,138 417,232 337,194 753,569 368,263 547,417 379,261 650,447 605,375 187,200 823,747 239,73 385,228 235,146 235,239 94,152 681,828 490,275 511,264 953,571 385,90 404,327 616,544 619,445 306,70 210,186 171,607 427,218 399,142 283,189 242,214 495,104 423,359 314,213 452,241 297,177 505,110 770,526 417,194 230,193 120,156 403,55 433,252 488,92 317,124 255,90 32,173 804,742 378,354 503,780 479,272 448,52 65,120 366,222 496,60 321,280 514,269 389,232 124,204 667,431 237,230 390,317 368,269 334,261 371,176 325,365 433,328 393,194 584,787 689,843 169,196 160,124 484,196 94,283 1000,596 289,242 785,485 626,387 245,72 852,702 217,197 688,770 493,256 526,320 710,488 373,286 557,348 500,445 808,761 809,582 740,761 230,224 483,98 537,434 208,198 399,197 665,466 567,341 500,447 747,592 567,373 770,777 257,647 239,197 512,443 487,83 512,347 557,785 725,798 500,802 411,364 120,272 619,406 359,136 73,148 417,323 544,416 624,407 475,28 887,682 390,33 419,293 345,272 118,162 485,387 548,349 172,646 26,177 478,417 386,359 98,184 595,417 406,221 516,773 479,259 468,74 396,177 732,842 557,341 593,387 156,232 710,782 579,331 153,555 447,203 553,354 651,498 292,127 340,166 413,94 451,406 272,248 399,136 404,245 426,317 356,304 362,231 633,435 634,521 318,94 179,97 500,379 792,726 536,80 730,767 648,419 223,237 448,380 230,222 560,113 730,761 307,158 584,414 609,386 691,523 359,79 135,83 440,213 608,331 268,245 650,490 502,286 334,39 533,83 500,794 355,200 183,162 431,230 440,63 593,410 175,627 359,198 502,141 514,289 324,283 386,152 586,427 396,148 211,235 691,529 514,140 864,687 131,179 364,310 566,84 471,86 469,139 431,139 182,149 184,93 524,354 503,382 461,218 318,122 492,354 541,419 548,376 286,131 49,208 403,125 431,63 202,630 400,149 589,100 564,392 18,187 434,258 177,166 558,97 535,86 334,351 152,170 447,356 702,530 627,493 489,128 744,602 222,124 812,713 489,292 149,220 519,283 365,254 860,640 218,141 261,241 715,581 146,69 62,124 434,321 258,246 488,69 97,272 366,191 341,206 603,500 131,97 880,554 527,338 507,396 191,534 400,207 49,143 342,39 400,79 692,774 313,73 544,96 217,204 773,608 314,134 758,537 369,245 462,173 494,107 555,84 390,121 156,228 485,269 696,837 262,193 709,876 588,332 427,80 444,29 527,403 269,221 474,246 585,362 438,50 743,782 169,681 447,197 203,128 663,503 512,389 141,231 524,445 571,355 101,266 476,419 654,849 241,120 307,97 468,313 437,241 413,306 579,356 509,404 362,65 380,60 600,464 496,345 430,149 396,316 581,92 376,345 127,96 244,118 781,778 482,248 647,406 289,83 414,365 303,252 455,342 812,448 296,107 462,290 358,334 77,175 397,224 392,169 427,255 447,162 358,268 591,347 812,723 143,98 254,88 180,96 385,117 140,527 641,393 158,201 794,644 560,88 389,26 77,215 490,270 467,27 365,221 536,87 221,591 120,531 719,576 127,191 747,551 915,564 546,53 317,218 565,95 469,78 767,600 507,56 262,213 873,519 568,303 324,227 321,77 455,101 434,86 487,254 516,334 524,82 484,62 194,122 204,693 570,90 382,191 146,191 172,605 98,241 805,763 466,150 101,152 426,184 70,244 574,109 342,200 593,340 389,249 483,277 524,344 542,65 579,368 261,129 407,311 474,105 560,309 455,373 556,63 409,375 761,505 215,91 576,341 778,596 812,746 804,736 829,694 433,255 630,500 520,330 476,382 706,444 282,252 335,311 470,171 335,103 544,433 451,170 376,60 799,749 603,476 602,354 651,531 582,409 124,258 497,104 272,190 371,153 463,91 660,836 73,124 565,344 389,28 757,551 411,25 450,320 84,285 166,197 156,183 372,53 443,158 751,756 364,203 615,132 506,261 857,692 272,97 548,355 503,323 143,120 369,330 517,781 562,91 380,299 156,66 423,146 464,110 582,410 740,599 513,771 437,190 241,208 475,204 811,756 576,73 529,347 474,46 419,320 554,297 136,105 825,712 569,359 478,246 557,81 486,76 538,359 404,67 254,177 234,122 602,332 328,59 427,139 345,74 259,571 355,104 125,131 701,768 314,77 362,214 282,220 890,658 387,258 103,280 516,50 385,141 33,235 231,180 812,750 235,74 854,641 565,402 206,232 402,189 105,235 404,187 866,670 463,158 402,156 378,176 493,137 495,269 647,421 608,410 213,600 470,125 304,232 294,124 145,96 197,224 299,57 562,97 468,166 380,131 533,444 584,88 183,180 176,235 553,355 495,59 519,365 627,397 538,361 593,85 722,591 517,454 251,163 330,265 483,134 404,268 650,534 709,737 674,503 174,645 342,237 530,375 594,55 152,69 569,349 87,282 568,768 465,380 571,87 24,193 321,59 502,427 337,275 344,306 661,441 145,146 438,94 585,98 378,313 304,369 564,414 165,180 692,517 457,104 275,115 178,610 556,92 230,80 837,585 88,283 734,569 444,313 438,108 828,722 479,208 136,215 348,107 578,79 617,128 225,191 650,440 431,259 448,111 716,588 482,255 701,520 478,250 488,137 249,239 335,307 371,93 98,163 201,218 473,70 794,740 352,214 221,670 217,138 517,424 292,232 595,414 296,53 811,490 246,210 619,356 171,614 397,55 489,378 572,81 358,183 660,781 448,201 403,266 335,41 210,100 334,259 505,342 506,430 805,609 712,462 129,131 816,670 83,139 528,80 403,131 682,527 479,314 492,112 475,148 464,33 647,560 578,105 306,222 351,211 665,527 321,314 505,98 526,375 390,269 378,262 371,172 513,799 474,194 643,493 602,421 165,167 192,636 481,52 175,97 122,246 114,261 639,476 66,152 788,630 746,605 402,249 208,605 259,80 313,251 328,208 716,874 141,239 452,49 362,220 423,162 632,516 602,376 217,675 359,321 751,455 204,603 180,143 535,116 795,727 190,231 352,141 207,679 596,448 589,373 131,141 478,276 627,458 716,441 199,635 782,774 358,301 211,131 77,224 165,176 468,107 277,211 490,265 225,138 696,792 725,585 633,475 444,285 778,603 364,359 98,120 812,681 819,751 799,609 497,51 487,120 317,237 427,35 399,103 91,227 688,447 813,716 376,218 332,270 345,165 194,170 703,830 303,158 342,70 393,124 210,97 517,115 138,111 459,121 210,125 214,183 677,554 272,256 558,349 632,509 242,210 159,244 564,382 409,352 392,36 479,221 555,92 311,201 816,727 473,127 997,593 225,236 10,176 804,677 514,348 595,118 701,505 536,433 416,25 622,836 383,276 668,541 634,466 775,486 387,246 307,268 426,151 399,170 685,507 712,770 530,435 592,365 768,763 463,252 420,225 368,211 788,633 224,625 815,727 615,802 320,301 806,732 235,120 510,90 411,24 663,533 739,593 155,560 904,567 615,455 696,519 615,130 548,479 387,324 169,225 70,159 380,251 451,359 593,108 265,122 217,159 493,275 200,149 430,366 815,664 348,356 819,670 489,430 435,128 702,761 502,76 341,225 520,358 404,45 304,194 79,225 767,757 379,80 404,231 342,303 486,106 503,366 589,104 809,657 270,227 524,81 252,84 129,118 538,75 469,376 228,155 507,416 416,341 159,685 372,263 517,364 513,279 605,464 499,113 802,722 238,243 411,187 479,323 369,152 696,469 152,163 554,53 647,536 467,228 410,348 722,798 935,553 356,254 338,198 205,666 771,765 792,718 561,430 491,65 399,254 795,754 331,175 162,232 459,334 504,95 396,183 710,465 221,211 454,268 771,544 155,127 582,372 562,112 537,77 633,416 325,67 541,80 821,688 822,553 493,457 538,409 324,254 502,474 227,237 596,461 471,265 485,260 533,97 334,74 749,763 156,77 543,112 392,244 479,276 581,118 739,585 428,197 828,739 428,372 503,143 534,354 373,93 586,414 788,764 409,238 112,277 196,210 513,399 290,80 540,120 292,224 472,340 395,155 648,400 316,249 740,760 655,411 647,506 780,502 994,581 270,158 215,232 435,309 502,797 552,84 184,90 207,653 314,84 806,560 548,297 694,474 33,230 283,143 481,213 431,135 568,758 207,218 437,378 488,389 582,385 486,248 523,761 294,255 486,371 365,406 593,321 592,324 320,310 461,89 527,299 785,719 481,354 179,90 775,500 424,321 393,52 541,103 487,93 504,94 490,99 134,100 632,510 420,149 354,213 392,87 362,263 477,111 246,87 385,265 854,703 227,224 352,317 287,189 560,383 888,658 255,582 543,320 812,692 478,60 789,718 558,101 584,96 555,404 380,112 482,316 375,244 612,496 282,86 104,270 268,214 516,139 510,117 416,107 214,605 727,526 510,122 330,211 653,474 258,623 441,426 105,117 529,787 225,131 780,558 470,147 325,263 461,62 510,340 256,118 554,419 175,633 825,675 682,443 328,163 359,194 69,120 544,127 74,148 559,77 379,204 424,134 440,292 506,51 231,237 598,375 713,774 349,293 373,364 141,522 344,189 166,90 49,124 452,238 825,665 863,698 545,802 709,765 912,540 66,177 256,77 496,351 484,124 795,567 637,390 681,500 476,423 310,234 604,123 400,263 605,393 351,238 201,600 299,268 661,847 661,555 730,795 359,139 465,98 301,242 282,114 647,431 826,685 246,121 462,245 437,167 534,455 640,521 410,136 127,148 548,106 349,184 617,371 564,383 421,42 523,358 567,380 932,544 555,325 600,392 565,55 166,149 575,86 609,414 395,184 121,138 138,244 378,193 892,524 337,251 548,125 552,104 177,649 178,681 508,142 466,252 462,200 349,57 478,94 237,131 572,337 613,462 533,51 609,125 185,612 568,107 657,507 493,348 345,183 197,232 392,183 214,155 420,220 268,186 802,774 475,241 718,579 230,217 242,184 158,191 286,127 270,153 383,143 403,210 100,141 373,112 389,115 671,509 849,698 485,280 461,91 459,62 368,313 495,451 328,198 498,276 397,94 327,218 730,564 545,794 509,409 378,153 569,311 655,437 623,503 265,201 94,155 241,122 361,239 498,52 598,85 457,184 386,297 894,684 270,128 484,125 767,553 661,492 198,228 468,402 463,222 112,255 519,289 586,303 833,699 191,560 272,224 251,131 743,763 383,118 235,196 525,109 81,221 397,115 60,217 397,318 482,306 675,519 840,739 575,340 197,643 482,355 213,124 507,378 678,519 503,60 734,519 33,232 589,375 459,158 289,262 321,176 567,410 372,139 400,376 791,627 337,358 812,737 574,64 145,94 647,397 390,300 490,50 788,725 365,251 583,86 313,268 317,306 364,70 570,86 573,77 530,103 195,626 320,228 380,232 450,145 407,210 709,763 487,130 261,230 438,145 698,839 605,466 503,788 90,277 36,230 479,81 798,725 437,335 431,193 406,111 682,531 395,115 475,84 606,124 856,648 578,334 467,86 822,744 166,172 427,304 179,678 259,225 489,124 276,256 495,364 283,153 544,389 849,702 392,196 483,361 340,220 400,328 321,156 475,256 530,423 744,777 626,506 143,122 663,411 220,527 266,182 476,260 110,151 387,156 365,300 379,275 492,62 699,804 629,419 466,440 654,517 829,744 221,104 826,670 245,125 324,177 754,765 470,129 235,88 523,82 505,462 582,773 524,351 369,136 320,70 723,811 143,93 417,380 311,117 390,186 537,349 672,548 523,364 905,540 471,251 674,545 473,139 270,107 462,122 540,324 718,765 282,120 995,599 393,287 815,599 457,197 809,651 534,108 520,137 756,757 285,232 21,191 584,387 473,90 115,142 320,297 283,207 847,524 372,365 696,864 242,177 248,182 352,324 502,283 335,283 495,292 483,97 513,118 87,152 537,131 364,214 409,173 448,175 492,41 492,369 138,80 682,881 489,290 207,629 723,861 517,368 382,362 521,296 105,112 787,608 677,788 386,230 230,237 380,213 337,136 304,255 380,145 335,239 423,50 481,93 127,101 637,389 460,264 828,633 552,72 303,266 557,76 592,454 136,201 435,160 57,120 193,646 612,438 572,393 482,218 506,124 318,207 225,110 146,238 366,211 387,183 426,176 35,237 84,166 410,262 870,510 98,269 142,72 560,406 222,645 380,379 387,265 798,615 602,396 153,246 799,715 643,523 592,358 825,624 843,699 431,31 244,103 175,121 705,767 361,358 404,375 483,276 598,787 506,385 513,472 318,90 550,58 496,111 156,163 325,128 263,172 93,285 554,378 586,87 604,118 718,575 399,207 844,709 362,125 556,95 438,186 627,819 427,28 890,516 177,184 509,361 1000,584 593,86 723,479 788,582 517,770 579,337 389,255 847,699 160,658 523,127 338,348 379,301 314,103 318,238 768,771 166,158 424,301 10,175 438,331 706,733 551,71 513,475 636,798 379,162 521,781 348,124 541,105 356,186 463,255 615,483 406,266 681,464 430,175 579,318 208,117 420,213 189,571 266,124 359,49 832,660 49,186 461,65 362,200 376,114 222,173 325,141 176,97 572,768 161,537 548,293 966,594 366,249 582,115 372,261 723,485 705,550 359,245 641,461 579,325 787,742 978,572 571,60 549,68 671,791 118,225 806,771 572,482 765,593 740,593 617,469 420,282 211,180 462,162 505,265 229,239 475,344 599,396 108,120 551,52 340,293 112,280 495,49 314,203 406,74 197,523 667,465 629,544 740,567 915,571 364,97 206,685 623,519 211,214 723,550 527,340 148,230 416,235 839,639 830,629 213,160 296,184 805,737 272,127 535,93 376,111 599,117 376,105 237,70 600,818 444,369 180,158 447,132 165,149 609,132 696,883 378,180 400,182 263,129 230,179 385,359 221,101 342,280 521,435 598,368 235,73 197,110 466,185 217,600 582,376 97,275 526,337 280,84 819,698 69,153 750,540 210,208 400,300 204,149 685,774 188,629 516,354 355,52 340,266 610,133 584,99 404,261 599,347 452,18 623,496 496,379 410,48 400,369 263,86 277,242 578,723 325,259 445,165 407,149 464,347 237,228 771,761 413,101 265,198 619,791 380,41 699,490 492,435 823,751 562,454 729,533 361,108 190,139 517,59 742,507 256,189 505,325 506,119 402,105 310,272 826,636 156,80 476,129 283,262 356,203 878,681 369,41 399,292 609,362 383,145 534,395 558,334 743,557 396,215 677,424 196,698 977,612 460,35 321,91 589,417 382,218 420,155 375,160 43,121 500,375 361,56 361,371 395,249 622,809 677,876 375,52 878,682 378,206 596,371 421,48 627,832 526,63 317,70 151,159 385,317 435,201 509,365 444,379 241,107 641,777 539,64 411,184 867,677 562,96 372,86 93,163 502,781 359,159 538,279 502,428 201,232 440,183 248,165 892,688 260,619 386,325 718,581 568,335 289,90 227,513 176,606 354,259 77,217 177,551 368,283 493,102 936,564 368,91 529,96 600,781 163,128 489,417 404,402 327,262 148,149 299,111 472,184 435,165 521,331 756,767 480,103 899,520 410,117 475,258 546,116 513,290 506,400 514,115 722,883 466,127 696,770 129,167 152,687 184,568 135,94 380,283 746,503 705,763 225,239 399,148 191,105 543,459 480,93 460,92 289,207 695,530 811,688 723,476 26,186 105,279 81,182 362,206 411,287 355,241 359,366 598,396 488,286 517,371 627,443 483,356 554,392 87,115 768,521 81,148 241,242 770,529 514,287 438,104 600,465 327,214 402,146 416,400 50,172 548,427 441,200 231,239 293,86 671,530 404,246 491,85 609,482 323,124 94,146 547,403 637,798 479,76 498,255 304,272 413,289 754,754 283,163 606,428 182,688 356,293 729,811 467,181 153,673 966,602 411,118 194,124 238,107 183,96 65,207 861,507 617,466 727,768 165,585 537,79 390,309 974,600 351,328 787,723 518,114 849,505 454,203 876,670 503,337 263,234 615,433 393,251 183,228 515,106 347,125 365,282 217,190 475,171 692,812 616,505 426,208 35,112 220,568 81,189 454,93 710,524 265,227 582,65 499,193 198,152 674,799 470,101 376,242 603,375 550,103 580,64 466,160 679,789 768,757 595,318 423,238 294,207 419,182 822,615 435,166 63,204 823,677 447,122 218,206 441,182 523,347 402,22 479,138 63,156 445,211 674,421 245,104 151,107 375,43 602,324 180,125 261,135 576,309 372,276 685,544 836,710 737,788 568,407 565,88 540,61 595,116 450,316 313,232 737,595 285,210 876,661 200,135 399,153 646,445 464,361 578,823 70,248 364,215 421,165 341,320 462,182 496,268 667,825 218,235 189,554 584,100 516,358 417,132 486,337 252,222 600,475 331,282 543,54 506,131 768,540 538,334 69,111 993,610 270,79 431,100 496,253 256,536 484,121 158,117 524,83 484,171 416,197 59,227 543,334 189,576 476,177 533,105 520,366 527,392 387,131 263,165 239,244 175,691 461,149 499,69 299,169 469,61 565,379 988,615 546,102 835,634 344,221 387,256 175,214 487,140 592,833 249,201 379,66 798,540 548,378 121,200 430,365 323,299 853,664 462,112 438,330 774,754 822,715 723,808 744,576 285,72 443,21 387,194 545,314 112,282 512,354 254,214 269,200 520,385 167,105 410,166 494,112 679,538 665,553 713,437 371,94 472,402 148,551 620,788 211,527 414,110 221,238 671,437 440,307 258,101 801,743 750,771 684,509 531,361 868,675 474,95 396,90 239,170 493,289 850,684 426,115 441,210 699,794 434,225 477,84 499,102 220,650 533,99 316,172 489,273 585,387 448,94 124,105 172,151 546,59 395,127 127,152 544,120 549,111 351,269 279,84 498,459 136,179 410,272 519,99 813,591 463,226 300,210 475,200 417,110 155,65 586,65 713,586 866,521 899,529 463,117 478,112 380,285 153,141 332,259 563,91 454,31 413,56 227,218 413,406 115,158 101,166 220,659 345,45 509,352 555,416 774,765 593,396 155,101 732,560 230,62 486,459 340,301 737,596 491,252 802,781 382,228 488,266 651,526 809,684 485,230 69,172 407,272 555,372 496,188 225,203 327,225 87,277 409,138 530,76 358,230 403,129 410,32 531,48 324,145 883,520 101,146 180,632 843,603 587,123 427,349 220,194 777,600 445,432 386,179 301,232 719,857 399,340 385,138 93,241 586,376 421,355 438,122 595,385 516,372 289,241 245,215 171,689 565,85 283,259 146,73 121,110 658,557 828,602 458,246 83,279 489,366 197,618 526,102 66,121 218,135 778,498 122,190 407,331 472,238 551,375 664,420 582,465 380,83 285,196 135,142 294,248 451,355 324,217 187,633 592,351 443,112 556,75 804,719 444,193 355,227 506,99 677,514 581,108 571,83 410,66 414,290 241,108 389,136 750,754 460,254 66,131 553,498 609,122 248,609 290,81 81,203 375,152 233,620 471,202 341,129 476,228 438,375 479,89 83,286 502,396 562,380 174,613 470,106 852,671 789,617 443,327 516,65 529,770 352,335 885,654 572,356 417,189 458,60 794,747 473,95 809,643 550,52 888,681 512,372 557,420 715,534 411,268 222,237 279,167 351,265 469,330 509,426 445,166 341,107 565,498 448,304 348,314 162,217 773,761 311,179 273,156 404,337 218,529 417,183 605,123 270,142 465,220 506,770 287,153 206,124 428,124 799,599 859,695 218,200 471,172 482,180 361,194 461,144 825,747 512,773 232,232 703,768 502,104 576,441 410,125 664,550 224,606 586,92 338,297 606,372 420,222 332,135 458,32 117,149 510,272 612,127 566,76 252,206 259,603 354,165 775,608 500,774 598,372 458,145 579,364 248,156 395,327 421,118 222,146 482,198 520,371 485,113 496,118 837,613 451,46 304,86 407,110 423,232 443,323 866,685 170,227 139,196 237,206 280,76 286,156 967,565 472,438 568,404 204,120 846,582 794,445 320,222 538,372 190,540 560,82 505,270 510,121 557,84 557,87 87,148 447,128 823,753 473,175 873,695 498,428 614,131 413,296 469,34 434,217 358,217 215,117 392,98 237,241 682,509 476,352 592,348 420,159 537,84 375,259 740,537 469,32 447,183 716,847 464,225 581,55 737,464 134,165 641,499 998,612 122,275 252,184 571,386 217,643 301,53 376,327 431,29 447,320 479,172 91,120 732,763 283,158 833,702 612,373 877,553 585,382 578,483 351,306 589,450 176,663 747,598 665,514 1001,595 798,750 575,373 598,486 511,101 710,734 921,574 509,262 317,310 605,380 437,73 120,149 93,214 286,230 325,60 545,54 251,238 399,327 230,79 118,237 589,345 481,217 489,373 364,48 441,128 414,127 521,307 174,687 572,323 265,218 788,750 503,121 503,372 557,406 553,763 519,794 387,70 416,120 172,131 362,107 811,663 397,91 448,200 452,81 519,135 751,557 251,557 459,286 548,82 309,268 568,435 519,332 471,162 550,313 482,99 238,76 492,100 476,249 427,245 791,734 483,247 489,347 338,159 451,107 299,235 310,79 307,251 585,375 79,165 251,115 984,581 249,131 316,371 775,765 358,72 146,81 265,146 216,632 595,382 538,110 988,589 222,128 177,665 289,129 201,172 578,404 110,155 481,269 348,93 460,36 225,124 703,853 328,218 544,82 812,596 595,344 526,91 254,153 269,252 984,575 306,237 499,277 730,526 773,767 534,54 444,311 581,81 349,69 626,483 760,560 829,684 320,98 557,62 364,110 256,186 193,207 582,770 63,129 462,334 409,283 379,273 592,464 519,86 492,378 96,242 261,120 364,251 167,677 622,387 457,138 478,309 846,639 830,722 440,167 558,763 575,348 383,72 507,411 519,423 687,459 77,190 562,409 794,743 201,142 270,84 410,230 822,674 86,282 901,547 352,90 241,86 627,472 378,256 756,764"/>
 <text x="0" y="20">Length: 3509247.697</text>
</svg>
