<?xml version="1.0" encoding="utf-8"?><svg xmlns="http://www.w3.org/2000/svg" version="1.1" width="1020.0" height="1020.0"><polygon stroke="white" stroke-width="1" fill="none" points="465,89 445,84 440,91 444,84 437,86 434,86 414,87 400,79 399,80 389,77 395,74 404,69 409,69 417,72 426,72 430,67 430,72 413,74 406,74 427,80 452,81 459,79 443,76 437,73 457,77 454,73 447,69 460,71 470,66 461,65 461,62 460,63 455,57 459,62 458,66 452,67 451,66 419,66 410,63 416,63 420,62 431,63 424,65 431,65 440,63 451,60 437,59 435,59 433,62 419,59 413,56 411,55 417,55 416,52 407,56 409,53 421,48 410,48 410,32 400,33 406,33 390,39 395,38 404,45 403,53 406,55 400,57 403,55 397,55 397,56 399,62 406,59 410,66 402,65 404,67 395,70 387,70 380,70 359,79 356,83 354,87 355,87 372,86 379,80 378,84 392,87 380,83 382,80 383,72 385,73 395,87 378,90 385,90 396,90 400,84 397,91 376,90 375,91 368,91 369,90 349,93 352,93 371,93 364,96 354,96 349,98 361,98 362,98 361,107 355,104 335,103 345,101 331,98 320,97 320,98 314,103 316,103 311,105 296,114 292,114 285,118 276,118 282,114 272,118 275,115 289,110 296,107 301,108 299,111 304,108 309,105 307,105 318,97 307,104 299,103 321,96 320,96 324,93 328,93 347,100 348,96 354,94 348,93 351,91 347,91 352,90 324,91 320,93 318,94 314,93 307,97 285,101 285,104 285,107 294,105 289,108 280,110 276,110 272,108 268,108 268,110 262,110 270,107 261,108 252,110 254,111 248,112 259,111 254,118 246,118 248,115 249,115 251,115 244,115 242,115 242,114 245,110 238,111 230,115 228,114 213,117 215,115 210,118 208,117 225,110 218,110 217,108 220,107 230,105 230,104 221,104 220,101 211,100 193,101 210,100 190,96 210,97 189,93 186,91 179,90 184,90 227,87 231,84 228,87 252,84 251,84 263,81 268,84 263,86 254,86 249,86 258,83 241,86 242,87 235,88 232,88 230,88 215,91 220,93 217,91 237,93 246,88 246,87 248,86 261,87 268,86 269,88 275,86 270,84 269,84 269,81 259,80 246,81 244,81 237,84 239,80 238,76 238,73 239,72 239,73 241,81 244,77 237,70 235,69 237,66 232,69 235,73 230,79 235,74 230,80 225,83 183,90 235,65 235,63 176,91 180,93 180,96 182,91 184,93 183,96 183,98 183,103 187,107 191,105 186,105 193,104 215,101 217,104 214,104 190,107 197,110 204,112 203,115 196,118 196,115 191,115 190,115 190,118 189,112 191,111 189,111 182,105 183,107 184,120 177,118 176,117 182,114 177,115 176,110 176,112 158,114 166,117 158,117 151,115 152,112 156,111 166,108 167,105 155,108 141,111 138,111 153,100 155,101 158,101 151,107 156,105 169,104 165,101 167,98 170,101 173,105 179,101 175,97 176,97 179,97 177,96 173,94 172,93 159,83 165,84 173,84 165,81 160,81 156,84 149,87 153,83 156,80 156,77 151,74 149,81 148,83 145,86 145,88 141,90 131,91 132,88 134,87 138,88 141,86 142,81 141,80 143,79 146,80 146,81 148,76 146,76 146,73 151,73 159,79 232,63 235,62 232,62 156,69 152,69 155,65 156,66 230,62 232,59 330,39 334,39 300,52 296,53 301,53 313,53 332,52 314,53 313,57 306,55 300,55 299,57 297,60 244,57 237,60 237,62 242,70 246,69 246,70 241,72 245,72 256,77 270,79 276,83 279,84 280,84 290,81 289,83 282,86 289,84 313,73 290,80 277,79 277,76 276,74 285,72 306,70 318,69 325,67 335,63 349,57 325,60 354,53 361,56 368,56 368,57 355,63 337,63 321,72 320,70 320,69 317,70 311,70 286,72 279,76 280,76 316,72 292,84 301,81 304,80 307,80 310,79 314,77 324,74 321,77 327,77 301,83 296,84 293,86 289,90 269,94 275,91 285,87 261,91 254,88 255,90 254,93 238,96 239,97 231,96 230,97 227,94 222,96 227,100 218,94 218,98 213,100 214,100 221,101 224,100 231,103 245,104 241,107 238,107 234,107 227,108 227,110 228,110 235,111 241,108 249,108 251,108 252,108 256,108 266,103 262,104 261,101 258,101 244,103 234,100 251,100 254,100 258,100 259,100 258,98 261,96 258,90 272,97 269,98 266,96 262,100 263,103 286,97 310,94 321,91 344,84 341,81 317,91 292,96 318,90 320,86 320,84 304,86 314,84 316,83 297,87 314,81 318,80 330,77 324,79 335,77 340,77 345,74 352,73 358,72 364,70 349,73 334,76 348,73 334,74 342,70 347,69 386,57 380,60 378,62 379,62 385,62 387,63 376,66 376,65 362,65 348,69 349,69 351,72 379,66 400,63 403,62 395,63 396,60 396,59 393,52 390,48 387,43 380,41 369,41 371,43 355,45 337,52 359,48 366,46 375,43 378,43 373,45 386,45 385,53 376,60 371,55 372,53 375,52 364,48 359,49 340,53 341,55 356,50 355,52 328,59 327,59 321,59 317,60 311,67 309,67 306,63 309,60 314,57 332,53 335,49 311,52 303,52 338,45 345,45 348,45 392,36 390,33 366,39 407,26 396,29 372,35 407,24 410,24 411,24 416,25 411,25 431,31 433,33 431,33 420,29 413,31 420,41 421,42 423,48 426,42 423,50 426,48 433,45 430,38 426,36 428,36 427,35 423,31 430,35 431,38 437,43 437,45 438,50 440,52 448,56 443,59 450,56 448,52 452,49 461,59 458,60 463,60 464,60 465,61 469,61 469,65 472,54 476,59 472,53 470,53 464,43 452,38 451,46 448,31 460,36 461,39 468,38 471,51 478,61 476,67 472,68 471,68 471,66 470,69 473,70 479,67 489,67 495,72 491,65 485,64 484,65 482,63 481,63 481,62 478,60 484,62 476,58 481,52 483,53 479,34 476,32 483,36 485,38 503,51 497,51 495,49 490,50 497,53 499,54 497,57 498,58 502,57 505,60 503,60 496,60 495,59 491,60 488,62 492,62 502,76 516,65 499,69 492,61 505,61 509,63 525,66 521,72 521,79 521,80 523,82 512,82 519,80 506,75 509,82 504,81 499,77 496,74 488,69 476,69 475,84 472,83 470,84 471,86 476,85 479,81 480,79 483,82 483,83 485,81 484,76 479,76 486,72 488,75 485,75 484,75 486,76 486,78 495,82 486,83 487,83 483,85 479,86 478,85 477,84 478,86 474,87 474,88 476,88 484,85 487,86 487,93 486,94 484,88 485,86 480,89 479,89 476,89 476,90 475,91 475,90 473,90 472,91 480,93 481,93 478,94 481,94 476,95 474,95 473,95 472,93 473,92 470,90 471,92 470,93 469,92 468,88 469,78 468,69 468,74 465,75 467,86 467,87 463,74 460,75 461,77 463,82 465,87 468,89 469,94 471,101 469,100 465,103 459,107 466,104 465,105 470,101 472,103 474,103 468,104 464,110 466,109 468,107 466,111 464,113 469,117 475,120 462,116 463,117 466,120 470,125 467,123 462,122 459,121 461,113 462,112 464,106 451,115 448,114 452,110 457,108 457,104 459,101 448,111 454,105 451,107 445,111 445,117 435,114 438,122 445,118 443,121 443,125 441,128 431,125 435,124 430,120 428,118 427,117 430,111 431,111 443,112 440,110 438,108 433,107 426,110 426,111 426,115 426,118 427,121 428,124 428,128 423,139 427,138 427,139 423,146 423,143 421,141 420,149 423,151 427,146 426,142 431,136 431,135 431,132 431,128 434,129 435,139 433,138 431,139 434,142 430,149 426,151 417,159 420,159 423,159 430,163 426,162 423,162 407,162 411,160 403,163 407,165 420,165 421,165 419,167 414,167 410,166 400,165 404,162 400,160 392,159 395,155 397,156 409,159 420,155 414,153 413,155 413,152 410,146 414,151 416,143 417,142 413,143 409,141 414,139 407,141 400,142 404,138 407,139 409,138 417,135 416,134 417,132 414,127 416,132 410,136 411,134 410,132 410,129 407,134 403,131 400,135 399,136 396,141 393,142 397,149 399,148 395,143 396,142 397,141 399,142 402,146 400,149 402,151 403,148 407,149 403,155 402,156 399,153 392,151 393,148 386,146 383,145 380,149 380,145 375,143 372,143 369,145 365,146 351,149 364,151 361,149 368,149 376,148 375,160 378,158 376,156 379,151 378,153 383,149 382,156 383,158 376,162 379,162 376,165 359,159 359,158 369,156 375,152 371,153 369,152 361,153 352,153 355,160 323,148 344,159 338,159 330,158 347,162 354,165 356,167 361,163 358,170 361,173 361,179 356,186 358,183 354,179 352,172 348,175 349,167 355,175 351,167 345,165 342,166 340,177 349,184 354,189 345,183 338,175 335,173 331,175 359,194 366,197 369,198 366,193 366,191 362,193 361,194 358,190 366,189 364,187 366,186 359,187 362,183 368,184 372,184 372,183 373,179 375,176 371,176 371,172 376,175 375,167 382,169 380,163 387,156 386,153 386,152 390,155 390,158 393,163 390,162 389,162 389,165 385,162 386,166 392,173 387,167 393,166 406,169 396,169 392,169 399,170 404,175 409,173 414,179 414,176 421,175 414,180 409,176 400,175 396,177 383,172 383,176 385,182 378,173 378,176 379,179 378,180 380,183 385,184 389,187 390,186 392,186 393,186 395,184 404,187 404,190 402,189 400,190 395,191 396,186 390,190 387,191 382,187 379,182 376,177 378,184 382,191 373,190 378,190 368,189 368,196 379,204 378,210 378,206 375,207 375,204 371,207 368,206 362,206 356,203 349,201 351,200 355,198 347,198 351,206 358,206 362,207 366,210 366,211 365,211 359,208 352,207 344,200 344,201 342,200 338,198 340,200 345,203 351,207 356,213 364,215 362,214 361,213 364,214 368,218 372,222 376,222 379,224 369,217 373,222 369,218 366,215 369,215 373,214 379,215 375,213 368,211 373,211 380,211 380,213 382,215 390,221 390,218 386,211 383,206 382,206 380,204 385,204 385,200 379,201 378,197 378,193 387,194 387,207 397,211 390,214 396,215 395,218 400,215 399,214 395,213 399,213 404,214 406,215 406,220 410,215 410,218 406,221 402,225 413,222 420,225 414,220 410,214 403,210 399,207 390,200 397,200 392,196 393,194 399,194 402,196 403,193 410,193 413,191 413,190 416,197 414,196 414,197 407,200 417,208 407,207 403,203 399,197 397,196 400,207 407,210 409,211 424,225 420,221 420,220 424,221 416,215 426,218 424,215 427,218 434,225 438,230 440,231 444,235 445,237 443,238 443,241 438,237 437,235 440,232 437,230 428,228 431,230 427,228 420,222 421,228 411,228 411,227 409,224 407,227 410,228 417,232 423,232 428,235 431,231 434,238 437,241 438,239 443,242 450,241 450,244 457,249 458,251 460,254 459,251 457,245 457,242 454,235 448,227 452,238 452,241 448,232 443,220 437,210 440,213 438,207 443,213 450,224 448,220 445,215 441,210 437,200 435,197 431,190 431,191 431,193 426,184 424,180 427,189 423,183 421,180 420,182 419,183 421,187 427,193 428,197 428,200 430,203 435,201 430,204 433,206 434,208 435,215 433,214 431,215 434,217 440,222 444,224 447,231 435,220 438,225 433,221 428,213 420,213 416,203 419,200 420,207 430,211 427,206 431,210 428,206 424,200 421,196 424,201 426,208 421,206 420,198 419,197 417,194 411,187 406,189 406,187 409,186 400,182 399,184 396,183 392,183 389,183 387,183 386,179 386,177 390,179 390,180 396,180 410,184 419,191 417,189 419,187 417,186 417,184 411,184 417,183 419,182 421,177 427,179 428,180 427,183 438,187 431,182 437,186 438,186 441,186 443,187 443,189 440,191 444,193 437,190 434,187 441,200 440,200 441,204 443,208 445,211 461,227 459,222 455,214 457,221 455,217 447,211 445,208 447,207 445,207 445,197 445,201 445,194 447,197 448,200 457,200 457,197 455,198 450,198 444,191 448,190 444,184 447,183 451,194 452,190 445,175 444,182 441,177 445,173 444,173 440,167 438,177 441,182 440,183 433,182 438,175 435,176 434,170 433,170 430,175 431,176 428,176 426,176 426,175 430,170 431,169 437,167 435,165 435,166 433,163 427,159 424,156 424,153 431,152 434,153 441,151 443,151 445,153 444,145 440,148 438,145 438,142 435,132 435,128 445,142 450,145 448,153 458,152 443,158 445,158 454,155 461,156 459,158 463,158 462,159 466,160 467,159 468,159 474,152 471,152 475,148 477,146 468,153 465,154 463,156 465,152 460,150 461,149 464,148 462,147 458,145 457,143 452,146 443,138 445,139 452,139 452,138 448,138 445,135 457,138 461,144 462,142 465,141 461,139 469,139 473,138 476,138 479,135 486,125 484,125 479,124 478,123 484,124 477,122 475,125 473,127 470,129 468,130 476,128 480,127 478,130 475,130 476,129 471,131 469,133 472,135 472,136 472,137 469,134 468,134 462,136 464,133 468,131 465,131 460,132 451,131 447,132 443,134 438,132 438,129 445,129 447,128 447,122 447,120 451,120 454,117 458,121 460,122 454,124 450,125 463,127 460,127 452,127 455,129 457,129 458,129 461,129 464,130 466,129 466,127 463,124 464,124 468,126 479,121 477,119 474,115 474,110 471,112 469,110 470,106 470,104 472,106 474,107 472,104 474,105 476,109 479,107 473,102 479,102 480,103 479,104 482,105 486,106 486,108 488,108 489,108 487,102 479,101 478,98 479,100 482,97 482,99 483,98 483,97 485,96 485,100 489,100 490,99 489,97 490,97 504,95 504,94 508,92 511,97 505,98 492,100 493,102 493,104 495,104 494,103 497,104 502,107 508,110 507,109 504,106 501,104 502,104 496,103 499,102 504,101 508,100 506,99 510,99 514,99 517,101 512,101 511,101 521,104 509,103 512,103 511,102 506,103 506,107 509,107 512,107 514,104 513,111 511,111 509,114 509,111 503,109 497,106 494,107 497,111 500,110 499,113 500,114 496,118 493,119 500,120 504,122 506,124 503,128 500,128 497,129 505,132 506,131 503,129 505,128 509,125 508,124 510,122 506,119 506,121 503,121 501,117 505,120 504,118 505,110 510,117 506,118 509,121 511,116 514,113 516,114 516,112 521,113 520,111 523,114 517,118 521,120 521,117 524,116 524,115 529,114 526,112 525,109 529,111 528,108 531,106 517,111 515,106 516,107 522,106 525,104 528,101 530,103 534,101 532,100 530,100 527,100 526,102 523,105 519,99 517,96 513,97 515,92 510,90 510,92 508,91 500,90 494,91 494,90 492,93 488,97 488,92 488,91 491,85 495,87 496,84 507,82 511,88 512,88 526,91 533,94 525,92 529,95 533,97 531,98 529,96 518,93 525,99 533,99 537,101 541,103 543,105 544,106 540,104 541,105 541,107 541,111 538,110 537,109 539,107 539,106 539,104 533,104 533,105 533,106 533,107 534,108 535,108 535,109 532,109 534,111 531,112 534,115 537,115 540,115 541,113 543,110 547,112 544,114 551,116 546,116 553,118 551,113 555,114 551,112 550,111 558,114 558,118 549,119 543,116 543,112 541,117 535,116 536,117 537,118 535,118 537,119 534,118 530,117 524,119 525,120 526,121 519,124 517,121 516,122 517,115 518,114 514,115 513,118 510,121 513,125 516,124 519,128 523,127 519,125 520,124 526,122 528,131 526,128 527,134 525,136 537,131 543,128 539,127 531,121 540,121 540,120 544,120 544,118 546,118 548,122 546,124 548,125 551,124 553,126 549,126 553,128 544,127 545,122 541,121 543,124 544,128 501,186 553,289 557,296 554,297 561,307 553,304 547,306 541,307 544,310 548,314 538,310 543,313 545,314 548,317 553,323 554,324 555,325 555,327 567,341 557,330 555,328 548,331 540,324 540,328 540,331 533,324 533,327 526,320 537,325 531,321 523,317 510,306 530,327 538,334 543,337 551,347 543,334 550,341 551,342 553,347 558,351 553,354 553,355 543,354 541,354 540,356 538,356 536,352 537,349 527,338 538,359 541,359 543,361 548,364 548,355 555,356 569,364 572,366 560,361 561,368 564,375 567,373 565,378 565,379 567,380 568,380 584,383 586,385 588,385 588,387 592,387 585,382 584,382 569,372 568,371 567,364 571,368 575,373 578,375 581,378 579,375 582,376 582,375 578,372 576,369 574,366 562,354 558,349 557,348 564,354 572,358 572,359 575,361 569,359 579,371 575,362 576,362 578,361 579,364 582,369 586,375 579,366 578,365 579,368 586,376 585,375 582,372 586,379 591,382 591,380 595,382 592,382 595,385 595,386 598,387 598,385 592,378 592,379 589,375 589,373 595,376 582,364 579,361 582,361 581,359 585,362 584,354 582,351 588,358 591,361 599,366 592,361 588,356 585,351 582,347 582,349 579,354 578,354 579,356 576,359 572,356 569,356 568,354 553,338 554,345 544,334 544,331 548,332 551,335 557,341 560,341 558,334 560,340 562,342 561,340 560,337 565,344 567,345 569,349 571,355 574,354 574,351 572,347 575,348 579,348 576,341 579,342 589,351 589,355 592,358 593,359 608,373 613,380 620,386 622,387 629,395 622,390 617,386 612,382 610,382 608,379 606,376 605,375 603,372 615,383 606,372 602,371 598,368 603,375 609,382 622,392 609,383 605,380 602,376 603,378 602,378 602,379 598,375 595,371 598,373 598,372 600,373 603,376 605,378 600,372 598,371 592,365 589,362 596,371 591,366 589,364 588,364 600,379 608,386 609,386 609,385 612,389 613,387 627,397 627,396 637,400 655,411 653,406 648,400 674,421 664,414 663,413 671,423 664,417 660,414 660,416 655,416 654,413 653,411 648,410 654,416 661,424 657,424 655,423 648,419 647,421 646,416 640,416 634,413 627,410 624,407 627,406 632,410 644,411 650,413 633,402 632,403 619,392 612,392 606,387 603,385 598,383 598,380 596,380 599,385 599,390 599,392 600,392 602,393 605,390 605,392 605,393 617,402 600,393 593,387 588,383 596,390 591,390 596,392 593,396 589,392 586,387 585,387 582,385 584,387 584,389 571,386 572,385 571,385 567,382 562,380 562,382 564,382 564,383 564,387 567,392 569,396 578,404 572,402 571,400 569,400 565,397 565,392 564,392 557,390 554,389 557,387 554,378 560,383 557,386 558,387 562,389 562,385 561,383 555,376 560,382 554,375 554,376 553,373 562,379 555,372 555,361 557,362 551,358 553,366 548,366 541,361 537,359 551,369 548,368 544,365 538,361 537,361 544,366 541,365 545,369 544,371 551,375 551,378 554,383 553,382 548,378 548,382 548,383 550,386 547,383 538,376 544,375 545,376 548,376 547,375 533,373 544,372 543,372 543,368 540,371 537,368 536,365 534,362 537,364 534,359 531,359 527,355 519,351 524,354 531,361 531,365 523,358 519,354 516,354 519,356 517,355 529,364 520,358 516,356 514,354 512,354 509,352 505,348 505,344 514,348 512,347 505,342 499,341 495,332 500,335 503,337 524,351 530,355 534,354 529,347 526,345 523,347 510,340 512,335 505,334 509,334 505,332 502,327 524,344 517,338 527,340 526,337 526,334 523,335 521,334 516,334 519,332 520,330 517,330 512,331 512,332 490,311 496,316 502,320 503,323 505,325 512,325 509,323 506,309 521,331 524,330 523,327 521,324 524,327 526,332 540,342 548,349 548,347 533,335 538,337 531,330 503,303 513,313 488,297 483,299 499,313 495,313 475,293 474,289 476,290 479,292 485,293 495,296 490,292 495,292 521,307 521,309 520,309 529,318 538,316 543,320 536,320 545,323 543,317 550,321 540,314 536,314 527,311 531,310 530,307 530,304 527,299 527,294 531,297 534,294 531,292 533,294 526,292 517,283 519,289 521,293 505,275 498,266 505,270 505,273 510,277 513,279 519,283 521,286 545,300 529,287 520,283 512,276 513,275 512,268 514,272 514,270 509,262 511,264 514,269 534,290 520,275 531,285 523,276 524,275 524,272 520,270 516,267 524,270 537,276 538,279 545,282 543,283 541,285 538,283 533,277 534,280 529,282 530,282 538,287 533,286 536,289 548,301 537,289 536,287 541,290 545,292 541,292 548,297 548,294 548,293 551,292 553,296 553,294 538,269 499,193 492,197 481,205 479,204 482,199 482,200 485,186 488,194 486,194 485,195 484,196 489,198 492,196 498,192 497,188 496,188 490,189 494,184 498,187 496,183 497,182 495,183 492,182 489,178 514,140 508,142 516,139 520,137 519,135 521,132 513,129 511,131 514,132 508,136 503,143 494,144 498,143 502,141 505,138 510,132 511,123 506,134 502,135 495,142 494,142 498,136 498,130 495,129 491,134 488,136 487,130 486,130 489,128 491,125 498,124 501,123 499,122 493,122 495,123 491,123 489,123 488,115 488,114 490,113 490,116 494,115 493,116 495,117 496,116 497,112 496,113 496,111 493,106 489,102 491,107 493,108 494,110 493,110 494,112 492,112 488,110 484,111 484,108 481,106 477,111 478,112 479,113 483,112 485,113 483,114 478,117 481,119 482,117 484,121 485,121 487,120 487,122 487,124 487,126 489,124 483,134 486,136 478,141 479,138 475,142 473,139 468,141 472,140 473,141 466,145 471,145 472,145 470,147 466,150 467,151 472,148 473,147 480,141 482,140 483,141 488,137 483,143 489,138 494,135 493,137 487,140 489,144 490,148 488,151 487,155 486,157 480,147 475,152 478,155 472,165 473,166 481,169 482,171 479,171 481,175 478,179 479,181 482,180 480,177 482,174 483,170 484,171 486,173 485,167 484,167 481,167 474,163 477,163 483,163 484,165 484,164 491,148 487,175 488,186 488,189 486,186 481,184 480,189 482,198 480,195 479,193 479,189 478,183 478,185 475,179 476,177 477,175 479,172 475,171 471,168 472,167 470,163 471,162 469,163 466,165 468,166 471,172 471,173 471,175 467,173 468,175 466,175 470,181 472,184 467,182 466,184 466,185 465,183 466,183 467,181 465,174 463,167 465,166 468,169 470,171 468,168 462,162 461,164 462,173 461,171 459,170 458,165 458,159 455,158 450,160 444,159 454,162 447,162 444,160 452,167 454,165 455,165 454,159 457,169 454,172 451,170 444,163 445,165 445,166 443,163 441,159 440,156 437,153 430,156 435,160 437,158 438,163 438,165 441,166 448,170 450,172 448,175 447,176 451,183 457,184 461,188 462,200 463,222 461,204 461,202 454,203 454,204 450,204 448,201 447,203 448,203 461,218 459,220 463,223 465,224 466,221 465,220 468,221 464,203 471,213 463,198 466,194 463,189 460,183 450,177 461,175 462,177 462,181 462,182 462,184 463,186 465,190 464,185 465,186 469,197 471,202 475,209 475,204 480,212 472,193 472,197 469,191 469,186 474,195 474,194 473,185 473,180 473,175 474,183 476,190 475,187 474,189 475,200 479,208 480,210 481,213 486,232 506,261 487,235 488,240 484,228 485,230 484,226 482,218 481,217 480,220 479,221 479,224 485,235 483,235 482,234 480,231 480,235 475,223 476,228 476,232 479,235 489,244 497,253 489,241 503,258 499,255 504,259 504,260 496,253 496,252 495,252 491,247 489,246 492,249 486,245 469,225 468,225 468,228 469,226 469,230 472,238 472,239 467,239 467,237 467,236 467,230 467,228 464,225 465,227 463,225 463,226 465,231 463,230 454,221 461,230 463,234 461,231 447,217 455,227 462,233 450,228 462,239 457,237 462,245 458,246 461,250 462,251 463,252 461,252 463,255 473,263 468,256 466,252 465,250 473,256 466,247 464,247 466,244 467,241 466,240 458,235 462,236 467,240 469,242 472,245 471,245 469,247 471,247 471,250 471,251 475,258 475,256 474,254 475,252 476,249 476,251 478,250 479,248 478,244 478,246 476,246 474,246 472,243 477,241 475,241 475,236 483,245 481,242 486,248 486,249 483,247 482,248 481,251 482,249 485,253 478,254 476,254 479,259 481,260 476,260 477,262 480,265 482,268 471,259 470,258 478,267 481,269 490,275 488,273 489,273 493,276 488,272 485,269 484,266 485,265 485,262 487,263 485,259 485,260 483,261 482,255 487,254 491,252 492,252 494,251 489,254 492,255 493,256 498,255 505,265 503,264 500,261 507,269 507,267 510,272 510,273 505,269 500,264 492,256 496,262 496,267 496,268 499,272 495,269 493,266 494,260 491,260 486,256 487,259 487,261 490,265 488,266 492,269 490,270 492,273 493,275 496,280 502,283 502,280 499,277 498,276 505,282 513,293 512,289 513,290 509,282 513,286 507,279 505,276 514,287 521,296 514,289 514,296 510,292 502,286 486,275 488,277 490,279 495,282 507,290 510,293 516,300 500,286 496,285 499,290 500,293 490,282 496,290 493,289 490,287 488,286 489,290 490,290 489,292 478,286 478,276 483,277 485,279 485,280 490,285 486,280 489,283 489,282 483,276 479,276 478,273 476,272 474,269 475,273 474,273 474,272 469,275 471,275 468,276 464,280 462,277 461,276 466,276 465,267 465,266 462,261 463,261 469,269 471,269 471,267 471,265 474,268 479,272 479,273 481,273 473,266 476,266 469,260 465,257 471,264 468,262 464,259 463,258 455,254 451,246 448,248 457,272 457,259 460,264 462,272 458,275 454,268 450,258 440,249 450,266 435,245 437,248 437,251 427,245 427,242 428,242 438,245 444,246 433,242 424,239 423,238 423,242 421,254 416,238 416,235 413,235 410,230 409,231 397,224 395,222 396,224 389,228 392,225 386,220 382,218 385,221 383,221 376,218 378,220 380,221 385,228 382,227 389,230 382,228 386,230 389,241 383,241 378,234 378,231 380,232 382,238 383,232 387,238 383,230 378,227 375,224 375,227 369,221 362,217 362,220 365,221 373,228 366,222 368,227 372,235 373,237 373,238 375,244 376,246 378,248 379,244 378,244 376,242 375,235 369,228 372,228 372,230 376,235 378,238 380,242 386,245 387,246 389,249 392,256 393,251 399,254 402,249 397,244 399,241 395,245 395,246 397,251 392,249 395,249 392,246 392,244 392,239 397,239 396,241 407,238 409,238 403,237 399,237 395,235 396,234 389,232 400,234 399,231 393,230 404,231 404,234 402,234 410,235 411,234 419,254 421,258 417,251 407,245 411,246 410,241 406,239 402,242 407,244 400,242 403,244 404,245 404,246 402,251 410,252 414,255 411,249 417,258 417,261 419,265 407,258 410,262 414,265 423,282 419,277 414,270 413,269 411,268 411,266 407,262 404,261 403,254 403,252 402,259 404,265 400,263 397,263 396,263 393,262 389,255 386,252 385,251 387,248 382,246 382,249 387,256 389,261 387,258 380,251 372,245 373,252 380,256 392,263 386,262 387,263 378,256 366,249 368,248 369,245 366,244 361,239 366,241 372,242 356,232 341,225 337,227 352,231 345,231 338,228 335,231 345,235 347,237 341,235 338,235 341,239 338,242 332,238 335,239 320,228 324,227 328,232 331,227 331,225 331,222 327,221 327,225 327,222 327,227 320,222 323,221 316,218 317,218 316,217 317,214 320,215 324,217 321,211 313,204 311,201 318,207 320,208 327,214 324,214 327,218 332,222 337,222 338,221 344,224 355,227 351,220 361,227 358,230 362,231 371,237 362,225 352,218 358,217 356,215 352,214 354,213 351,211 341,206 338,206 340,207 340,213 351,215 351,217 348,218 338,214 340,215 354,221 344,217 344,221 340,220 334,220 332,218 328,218 330,214 330,211 335,214 337,217 337,214 328,208 330,207 325,208 320,206 314,203 327,200 334,201 340,201 314,197 313,197 313,196 310,191 304,194 304,193 303,191 304,190 310,190 311,190 313,190 317,190 313,189 304,189 303,182 296,182 292,184 293,184 296,184 289,186 306,197 299,193 299,196 297,197 306,200 307,208 310,211 316,213 314,213 299,208 292,203 289,198 287,201 289,203 294,207 300,210 300,214 297,214 300,215 307,217 316,221 309,220 314,222 311,221 314,225 318,227 314,231 310,231 301,221 307,224 306,222 304,221 300,217 293,217 293,218 297,228 304,232 301,232 301,237 310,234 310,235 317,237 318,238 318,235 304,231 306,231 313,232 318,231 323,234 330,237 334,242 338,245 345,245 345,241 342,237 347,238 356,245 347,235 351,238 355,241 359,245 365,251 373,258 375,258 375,259 379,261 378,262 380,261 382,262 387,265 402,276 406,275 402,272 411,276 399,266 407,272 404,268 403,266 406,266 411,269 410,272 414,276 420,282 416,283 417,287 409,283 420,290 430,293 451,307 448,304 443,299 440,289 445,290 444,293 444,294 451,303 461,306 445,282 445,287 430,285 435,289 440,292 434,292 434,290 433,290 435,294 424,286 423,279 433,283 427,275 421,270 424,266 427,265 430,261 433,263 444,285 443,276 431,259 427,256 427,255 433,255 427,249 433,252 434,258 441,266 441,269 457,277 458,277 457,282 455,282 462,290 469,292 466,287 459,286 459,279 466,286 482,306 471,294 475,300 485,310 478,309 475,310 485,313 482,316 492,320 495,324 495,330 492,331 492,330 488,327 479,314 469,306 472,303 465,294 458,297 464,304 466,304 469,310 469,311 478,323 475,321 472,317 464,307 468,313 466,311 462,310 461,310 465,314 486,337 490,341 479,323 486,331 489,330 489,332 486,334 490,337 490,334 500,342 496,345 493,348 478,335 481,340 471,331 466,323 458,323 457,317 457,313 454,310 454,313 441,301 443,304 450,310 454,314 452,313 455,324 469,330 492,354 485,345 509,366 502,361 495,354 496,356 500,362 499,359 503,366 493,356 482,345 472,340 462,334 459,330 457,327 450,321 447,320 448,321 447,324 450,327 459,334 472,344 489,365 490,366 482,355 481,354 479,351 475,344 479,347 478,348 481,351 496,361 499,365 496,362 486,356 493,362 483,356 488,361 495,366 495,364 500,369 498,371 500,375 503,375 503,372 506,375 506,378 507,378 510,379 520,390 506,379 500,379 493,371 492,369 488,375 483,376 479,378 468,364 466,359 464,361 474,375 478,380 474,378 476,382 468,379 465,380 455,373 458,378 458,382 448,375 444,369 455,379 448,368 440,361 444,364 431,340 438,341 435,347 450,364 444,354 447,356 461,372 457,368 458,371 469,376 465,366 461,364 462,351 479,375 485,373 486,371 482,364 489,373 486,365 483,361 479,356 475,364 461,348 464,345 464,347 471,351 476,352 490,368 489,366 475,349 457,337 451,332 447,331 438,330 433,328 440,330 443,327 454,332 444,325 434,321 430,318 426,317 428,327 438,331 444,341 451,340 454,340 458,340 457,344 455,342 451,355 457,361 454,362 451,359 437,335 419,337 419,338 417,332 417,330 419,331 421,332 427,331 419,320 424,321 424,317 424,316 427,311 427,313 427,316 443,323 435,317 441,316 435,311 427,304 419,301 424,301 421,300 414,294 413,294 413,296 419,303 424,306 420,307 423,314 414,304 407,297 409,293 410,292 399,285 400,285 402,286 406,286 410,290 414,290 413,289 424,299 420,294 428,301 428,303 435,309 450,320 444,313 451,320 450,317 450,316 445,309 443,309 444,310 444,311 440,307 433,307 430,304 427,296 417,290 419,293 411,287 410,287 397,283 390,280 383,270 385,270 407,283 399,276 390,269 385,265 386,266 382,266 378,265 368,263 372,263 372,261 371,259 364,256 365,254 364,251 349,242 355,248 345,248 345,252 337,251 345,269 338,263 334,259 324,251 335,249 337,245 327,242 321,238 320,241 306,237 307,244 296,238 299,235 292,232 296,228 293,221 292,215 289,214 289,220 292,224 292,220 293,230 283,238 286,230 279,225 276,225 272,224 269,221 282,220 270,220 265,220 265,218 275,215 276,213 277,211 294,213 292,210 290,211 285,210 289,210 283,207 283,206 289,207 286,201 283,201 282,196 282,193 277,193 279,196 276,198 269,191 276,191 272,190 283,189 285,196 292,193 296,191 287,189 287,190 283,186 273,182 276,186 268,186 268,187 266,190 261,186 259,186 258,184 254,184 254,179 252,184 256,186 255,187 262,189 265,190 268,198 262,190 262,193 256,189 258,193 265,198 269,200 270,201 270,200 273,204 275,200 279,203 280,204 273,208 266,213 268,214 270,215 259,215 254,214 262,213 261,211 263,210 265,207 268,203 255,193 265,201 256,201 251,201 249,201 261,200 254,200 252,193 249,187 248,186 248,182 242,177 242,173 241,172 239,170 237,169 232,166 228,160 225,159 225,160 222,166 217,159 217,156 214,155 222,152 214,151 214,152 211,148 201,142 204,143 207,141 200,141 197,139 200,135 206,139 206,136 208,129 207,132 201,132 196,129 197,131 203,136 197,132 196,135 184,129 189,134 193,136 204,149 204,145 211,153 213,159 210,156 207,153 200,149 203,156 213,160 215,162 206,166 201,153 203,163 206,167 207,169 211,165 218,172 220,173 222,176 222,173 225,165 224,170 227,176 221,180 227,186 227,187 235,194 239,187 242,182 238,182 237,184 237,186 235,182 228,186 231,180 228,179 230,179 232,169 232,176 235,176 238,175 244,179 242,184 241,186 242,187 245,190 239,191 246,194 245,197 245,198 249,200 239,197 234,198 235,203 232,198 235,196 230,193 220,194 227,197 225,197 222,198 214,190 211,187 210,186 218,191 215,189 217,190 222,193 227,193 221,190 222,190 225,191 230,190 220,184 221,187 218,186 214,183 213,186 198,180 193,177 191,170 182,165 196,169 194,170 197,172 201,179 201,172 203,177 211,180 208,176 210,177 208,172 213,172 198,166 184,152 182,149 190,153 189,152 187,148 198,152 197,149 196,146 196,143 190,136 187,136 190,139 177,148 176,136 180,143 183,138 175,132 183,136 184,132 184,131 182,134 175,128 175,129 172,128 172,131 160,124 155,127 163,128 167,132 175,135 170,139 170,134 159,136 162,139 170,143 153,146 145,146 138,148 149,158 148,152 148,149 152,152 153,158 167,155 160,153 158,151 153,149 175,143 172,151 166,149 165,149 177,153 165,153 183,156 180,158 173,162 175,162 183,162 172,167 163,165 165,167 177,170 177,166 187,173 173,172 182,180 183,180 200,187 196,184 189,179 183,175 196,182 207,189 208,190 208,187 215,196 217,197 224,200 235,204 237,206 237,208 241,203 241,208 242,210 242,206 242,201 248,207 252,206 254,207 248,208 246,210 242,214 246,211 251,211 248,214 255,217 254,220 256,220 258,220 258,224 259,225 261,227 261,230 256,227 252,222 255,227 245,218 245,215 241,214 251,225 258,230 263,234 269,239 272,241 270,238 265,231 266,228 265,230 263,231 265,227 270,227 272,230 285,232 283,235 283,232 280,237 277,232 275,232 273,242 277,242 277,235 282,241 289,245 287,239 289,241 289,242 290,241 301,242 306,246 309,248 311,249 313,251 311,241 317,246 324,252 327,255 325,259 324,259 324,254 316,249 318,254 316,263 317,268 318,270 317,269 313,268 320,275 320,276 316,273 314,275 314,270 309,273 321,280 324,283 323,286 320,286 317,287 321,292 323,290 332,297 340,304 344,306 337,301 342,303 340,300 338,297 344,300 337,294 335,293 334,293 340,301 330,289 340,293 349,301 354,303 356,304 351,303 356,307 359,310 351,306 355,309 351,307 366,317 362,316 351,311 341,307 340,306 335,301 342,309 323,292 330,300 320,294 323,299 335,307 338,309 335,311 332,306 320,297 324,309 328,309 327,311 334,316 327,307 330,310 341,320 344,325 342,316 340,317 344,311 348,314 359,324 352,317 359,321 364,327 369,330 375,338 402,358 399,352 385,344 393,345 390,341 397,341 397,340 399,340 410,348 421,355 416,348 399,334 399,335 395,334 386,328 378,324 390,335 382,331 387,338 378,330 373,331 382,340 373,334 359,318 348,310 362,318 372,321 369,323 376,327 379,327 373,318 372,317 386,325 393,328 375,318 382,320 379,320 387,324 393,324 399,327 400,328 406,330 400,327 390,318 383,314 379,311 375,307 371,304 371,307 371,311 373,309 378,313 382,314 385,317 383,317 390,323 385,320 368,313 364,310 368,311 345,294 358,301 352,297 349,293 354,296 340,283 342,287 335,283 337,285 348,294 340,290 342,294 337,290 334,290 327,282 331,282 328,276 328,275 327,273 323,273 321,269 330,272 328,270 325,268 321,265 325,263 327,262 330,263 330,265 332,270 331,262 328,259 332,259 334,261 340,266 334,265 337,275 338,273 337,269 340,269 345,272 345,275 345,276 337,276 334,276 331,276 342,280 342,282 356,287 355,285 355,283 352,280 351,283 348,279 351,282 352,277 348,272 347,266 347,265 351,272 359,279 365,282 369,276 366,275 359,276 356,272 351,269 355,266 356,269 358,268 355,265 351,265 356,263 345,262 356,262 352,258 354,259 356,254 362,263 365,265 359,263 378,272 379,273 383,276 380,276 379,277 379,275 378,273 368,268 366,270 368,269 371,272 366,272 371,276 372,276 375,276 386,283 390,289 392,289 393,287 393,282 395,289 396,287 400,290 393,292 395,292 397,292 399,292 404,296 402,299 413,306 400,300 389,292 387,290 386,287 380,285 379,285 380,283 379,283 379,282 372,277 368,283 371,286 373,279 376,283 373,286 376,290 369,287 365,286 364,286 365,289 365,292 371,297 366,294 376,301 379,301 375,299 380,299 380,303 382,299 382,297 380,293 380,292 383,296 386,297 389,293 378,285 390,293 404,304 402,303 390,299 387,299 383,299 390,300 404,306 407,309 421,316 420,317 420,318 417,320 407,311 417,323 411,325 410,323 406,311 402,306 395,307 389,307 404,316 400,318 396,316 404,325 404,327 397,318 390,309 383,300 385,303 386,307 387,309 378,303 383,310 378,306 366,296 362,292 351,286 354,293 356,294 362,301 365,304 356,293 358,294 364,300 365,300 366,299 368,300 390,317 407,330 407,331 414,338 420,341 427,349 410,337 416,341 400,330 395,327 393,327 399,331 399,332 396,330 407,340 404,337 400,331 407,337 411,341 434,358 428,358 431,362 433,365 430,365 440,373 448,380 462,392 464,393 474,393 479,402 482,397 482,404 485,409 495,419 496,417 495,413 489,402 476,392 476,389 474,386 469,386 466,385 469,383 475,383 475,386 479,390 488,389 486,383 485,387 483,380 489,382 488,380 488,376 492,378 489,378 496,379 493,373 496,376 503,382 506,385 509,387 512,389 527,403 517,392 524,395 520,389 519,386 514,383 506,371 512,372 514,378 517,378 517,382 521,383 520,385 521,389 523,392 526,392 524,386 527,392 536,404 538,407 541,409 540,407 527,385 531,393 527,390 526,385 523,382 524,382 519,379 516,373 512,368 509,365 507,361 516,372 521,380 526,379 520,371 520,372 523,376 517,372 517,371 512,364 512,362 517,368 526,376 529,380 533,386 530,382 534,395 536,396 543,389 544,389 545,390 544,390 547,392 567,404 568,406 572,411 586,416 602,427 610,437 576,416 588,426 589,441 593,447 598,458 605,464 612,469 608,464 612,466 596,448 613,462 616,465 613,465 617,466 616,468 617,469 619,469 622,475 617,472 619,474 619,478 619,481 627,493 629,495 626,489 620,481 632,493 626,483 622,469 619,468 610,454 606,445 623,457 627,472 615,455 620,466 626,472 627,475 630,472 633,472 634,476 633,475 633,476 634,478 632,481 639,488 629,481 630,482 634,486 643,493 646,489 644,488 648,489 646,485 643,483 633,469 623,455 606,440 593,431 598,433 599,434 615,443 612,438 609,431 595,421 589,417 593,420 584,414 586,414 589,416 592,416 593,416 592,414 595,416 595,417 602,421 600,423 606,428 606,426 606,424 605,423 600,417 599,416 598,416 595,414 593,413 593,410 588,407 584,407 582,409 584,410 588,413 588,414 582,410 575,406 581,411 584,413 582,413 575,410 571,407 568,404 569,404 565,402 561,400 562,399 560,396 554,392 554,395 545,389 545,387 541,386 540,386 530,376 538,382 547,387 543,383 541,382 530,373 526,371 520,366 526,372 530,375 526,373 541,389 538,387 526,375 520,369 517,366 509,356 509,361 498,356 492,351 489,347 496,351 506,354 500,344 502,345 509,355 517,364 519,365 517,359 516,358 513,356 523,362 533,369 536,369 538,372 523,364 523,365 520,365 524,366 526,368 530,368 527,371 531,372 538,378 547,386 560,393 561,395 562,395 567,400 569,402 571,402 582,406 585,404 586,404 572,393 569,393 568,392 568,386 565,383 575,390 584,392 586,390 598,407 603,410 602,411 603,417 613,428 619,427 615,423 615,427 609,414 596,395 598,395 596,393 598,393 602,396 605,396 619,406 633,416 630,414 616,404 599,396 598,396 617,414 609,410 608,410 615,421 627,433 622,433 636,450 648,459 650,459 648,462 657,475 646,465 644,462 627,443 620,437 615,433 640,462 641,461 648,471 647,475 640,471 639,466 623,448 619,445 617,443 627,458 637,465 634,466 639,476 636,469 637,471 650,485 650,490 651,498 655,499 657,503 660,506 657,493 664,495 668,500 668,496 661,492 663,493 653,474 655,474 674,498 671,498 682,509 681,512 674,503 670,498 675,506 663,503 671,509 682,516 688,520 684,510 684,509 688,514 689,516 685,507 671,482 681,500 679,500 674,495 671,493 663,478 667,479 658,475 655,472 657,471 657,468 657,464 651,451 648,450 646,450 646,445 650,447 648,444 653,444 654,444 650,440 646,437 633,435 617,417 620,417 619,419 629,419 654,441 658,445 658,444 627,417 632,417 648,427 647,431 655,437 664,455 654,447 661,458 668,465 672,468 677,476 685,482 689,486 681,488 678,481 665,466 667,465 661,464 670,479 667,471 682,499 692,516 692,517 694,519 698,524 696,519 701,519 703,517 706,517 715,520 720,524 723,527 716,524 709,521 710,524 712,523 729,533 719,521 727,526 730,526 739,540 756,555 775,571 788,582 797,581 795,567 791,562 785,567 782,564 782,574 767,560 757,551 770,557 771,545 767,553 754,543 747,536 750,540 742,533 740,538 740,537 732,517 730,512 720,496 710,488 713,493 716,499 729,517 730,520 722,513 720,509 715,513 713,513 696,492 713,517 695,514 695,516 695,517 687,498 685,493 691,498 703,507 701,505 694,500 688,489 699,490 703,496 696,479 691,472 692,474 694,486 689,482 677,471 675,469 667,462 664,454 672,464 681,464 679,462 671,457 670,452 661,441 657,438 661,438 660,434 654,433 641,419 644,421 644,420 654,427 658,433 661,430 663,434 667,431 663,420 663,423 661,423 661,417 664,420 677,433 675,435 678,448 672,444 671,437 670,437 665,441 677,450 674,450 687,459 685,466 689,469 694,474 699,481 712,492 688,464 694,468 705,479 727,500 729,502 734,507 737,512 736,503 730,493 746,509 723,482 712,471 701,459 723,485 729,495 722,490 696,469 702,472 696,464 691,457 691,462 688,458 679,451 682,448 682,443 688,447 696,454 685,440 694,444 685,431 713,458 712,462 723,476 723,479 706,457 710,464 710,465 742,500 746,503 747,498 739,490 723,471 723,472 720,468 706,444 691,433 678,426 677,424 612,344 612,340 598,323 602,332 593,321 592,321 596,325 616,351 619,356 622,362 641,393 647,397 653,402 670,416 663,411 637,390 640,396 647,406 637,397 626,387 619,383 606,371 603,368 602,365 593,355 596,358 592,351 593,348 595,349 602,354 613,368 602,358 598,358 606,366 606,364 609,368 612,371 612,373 626,382 619,373 637,389 634,386 624,373 615,368 617,371 609,362 606,356 596,345 599,347 598,345 609,352 619,359 615,359 617,364 622,369 630,379 617,354 610,348 612,347 592,324 606,349 595,338 592,325 592,337 593,340 592,341 589,337 586,335 584,334 595,344 584,337 593,344 589,345 591,347 592,348 585,342 584,340 584,341 585,345 584,344 579,337 574,338 576,335 571,325 574,330 576,330 572,323 567,324 575,340 572,337 565,321 565,325 568,335 558,324 560,324 564,323 555,317 551,314 550,313 548,311 558,318 553,313 551,311 554,313 560,316 558,314 554,310 557,311 561,309 560,309 564,307 557,300 558,297 560,294 558,293 557,292 562,292 567,301 561,301 569,311 572,311 578,334 579,331 579,325 576,314 576,309 576,307 581,310 579,314 579,318 588,332 584,309 603,323 606,327 602,324 595,318 600,325 600,324 608,331 713,437 681,427 701,435 709,440 715,448 726,454 716,441 727,450 737,464 740,471 775,486 761,483 742,479 785,496 765,495 750,490 747,495 757,510 761,505 775,500 778,498 780,502 782,531 785,534 777,530 771,524 770,526 768,521 770,529 761,529 758,521 742,507 739,514 734,519 744,534 744,530 768,543 758,537 768,540 771,544 774,544 780,558 791,550 771,540 770,538 774,538 777,540 774,536 788,543 797,557 806,560 812,572 819,584 811,565 835,574 844,574 846,582 842,592 837,585 819,586 815,599 819,609 821,620 822,627 825,624 822,615 826,624 826,616 837,633 829,626 828,629 828,633 823,630 819,627 818,624 809,608 805,609 804,613 801,610 809,632 812,647 811,639 812,623 825,634 826,636 821,639 822,647 825,648 832,657 832,660 839,665 842,670 843,670 846,670 843,657 852,671 850,665 853,665 842,655 840,655 843,663 840,665 830,653 832,647 826,641 829,640 832,636 829,629 830,629 835,637 839,639 835,634 840,639 839,644 836,648 837,647 839,653 842,637 842,643 842,648 847,648 846,640 847,640 850,653 852,653 856,648 854,651 850,657 847,658 853,664 859,667 864,664 866,668 867,670 866,670 864,668 863,668 861,672 867,677 864,679 852,685 856,668 850,684 852,675 849,675 847,675 842,679 850,682 842,684 840,684 826,664 833,674 830,684 832,677 826,665 822,653 822,655 819,660 809,643 808,644 809,647 809,648 798,615 799,609 799,608 802,608 806,600 811,595 812,608 809,605 812,609 813,610 815,602 812,596 813,591 811,593 805,593 812,582 811,574 809,582 804,586 788,585 760,560 794,600 798,600 798,592 805,591 799,599 799,602 797,605 797,608 797,613 795,609 792,610 791,615 797,616 802,632 799,634 791,623 791,617 788,619 789,617 778,596 787,608 773,584 758,574 750,560 749,558 743,557 751,557 751,553 747,551 732,540 720,531 716,527 712,527 713,529 715,534 715,536 706,531 703,529 703,527 703,524 701,520 699,523 702,530 715,550 730,564 732,560 722,550 723,550 733,548 730,544 744,561 740,558 733,551 733,565 736,557 740,567 742,568 753,569 754,568 758,578 764,595 760,585 742,572 740,571 744,576 719,555 742,576 760,592 734,569 742,578 749,589 737,579 725,561 725,564 710,547 715,551 712,547 702,545 701,544 705,550 696,541 692,537 694,538 682,526 694,540 688,537 687,538 688,540 687,541 678,530 678,531 674,526 664,514 665,514 667,516 670,519 671,520 674,519 675,519 678,519 682,531 675,526 678,529 684,533 682,527 679,519 695,533 708,545 701,534 701,531 699,529 696,531 695,530 694,524 692,520 691,519 691,523 681,516 691,524 692,526 692,527 691,529 682,520 677,514 670,510 674,513 672,512 665,509 671,514 661,510 660,509 650,506 648,503 651,503 653,505 655,506 657,507 653,502 644,496 630,493 632,496 641,502 636,496 641,499 644,502 646,505 647,506 655,514 654,514 653,514 650,512 633,499 624,493 620,489 619,488 610,482 608,479 609,478 613,479 615,483 616,474 605,466 610,475 606,469 600,464 600,465 600,468 603,476 598,471 600,475 599,476 595,475 596,475 592,472 591,471 582,464 560,450 582,465 592,474 603,479 609,482 600,483 584,468 579,464 579,469 562,454 558,455 557,459 550,448 540,437 545,437 547,438 558,447 579,445 572,451 589,466 591,469 596,472 592,464 584,451 596,464 596,461 592,454 589,452 578,443 584,447 588,450 576,435 576,441 572,438 571,437 564,428 562,428 560,423 561,423 562,424 569,431 574,435 572,433 569,430 567,427 582,430 575,430 575,433 589,450 586,430 584,433 584,440 579,434 586,427 581,428 568,410 569,409 567,409 567,410 565,407 567,407 568,407 567,406 564,403 551,396 550,396 548,399 560,406 562,409 557,406 564,413 568,413 564,414 565,420 564,420 572,427 558,420 557,420 555,420 550,414 550,417 554,419 551,419 545,410 554,416 555,416 558,417 555,417 561,419 555,404 551,404 547,403 554,414 548,411 544,404 545,403 538,402 540,404 547,417 550,420 544,416 538,409 536,407 531,403 524,396 531,406 514,396 500,382 498,380 499,389 495,390 496,393 490,390 489,390 486,396 490,395 496,399 499,399 500,402 496,400 492,399 499,409 493,406 505,417 510,417 500,420 509,423 509,426 519,430 524,430 521,435 524,431 527,435 530,435 517,424 512,417 517,416 509,409 507,411 507,416 506,409 506,406 512,410 509,407 496,396 507,403 509,404 506,400 502,397 500,396 499,395 502,395 502,396 503,392 507,396 509,397 513,399 523,404 526,404 531,407 517,403 529,416 530,416 529,413 523,407 526,409 534,413 538,417 533,414 531,413 538,426 527,417 527,416 517,404 513,402 510,399 513,404 513,407 510,406 517,414 523,416 524,419 530,423 536,428 544,433 547,428 544,430 545,426 544,424 547,426 548,427 547,424 544,421 541,419 541,416 534,410 534,409 538,410 541,414 545,417 557,428 561,428 562,430 564,431 568,435 568,437 561,430 554,437 553,430 551,431 550,435 545,434 543,435 536,435 537,434 541,433 536,431 529,423 521,417 519,416 523,419 536,433 526,423 521,421 519,423 527,426 530,428 533,440 534,445 533,444 520,441 512,438 513,434 506,430 505,426 502,426 496,423 489,417 498,428 492,426 481,424 489,430 493,430 503,433 502,428 502,427 505,430 512,443 521,444 507,447 509,444 506,438 507,434 492,435 490,434 492,437 493,438 502,444 500,448 500,447 495,451 492,450 505,455 503,454 512,457 510,454 516,455 514,457 514,458 514,459 516,461 519,465 512,461 505,462 506,458 496,458 493,459 498,459 500,465 505,465 512,466 520,468 524,469 520,472 526,481 523,483 519,475 516,469 505,466 502,469 486,459 485,458 478,447 493,457 489,452 481,440 488,447 490,447 500,445 499,445 496,443 489,438 486,434 486,440 483,433 482,430 481,430 476,419 475,416 471,407 478,417 482,409 478,413 472,402 474,397 468,402 461,396 466,402 476,423 465,416 471,423 474,428 478,435 472,438 469,433 451,414 404,375 400,369 409,375 417,380 414,376 438,397 435,390 440,395 451,406 448,402 469,424 471,426 472,427 466,419 445,393 444,397 444,389 440,382 452,392 466,411 452,390 445,383 444,379 430,366 428,366 438,375 434,372 434,373 424,366 423,365 421,361 419,359 414,356 423,359 409,352 410,354 420,362 416,362 409,354 404,354 419,365 414,365 428,372 423,373 430,378 435,379 437,378 431,383 409,362 411,364 417,371 414,369 402,364 410,369 416,371 420,373 420,375 420,379 397,362 389,352 354,321 364,331 372,340 376,345 372,342 347,317 344,317 352,324 358,334 358,337 351,328 352,335 361,358 362,361 356,356 348,356 341,354 334,358 335,359 324,364 317,368 331,354 335,356 334,351 338,348 340,354 341,349 342,348 335,338 334,332 317,310 324,318 328,323 341,338 349,354 354,351 354,347 358,355 359,355 351,337 347,345 341,321 344,341 327,320 342,332 334,325 321,314 317,306 256,261 314,299 320,307 320,310 325,313 320,301 314,282 309,276 310,279 304,272 301,269 296,261 292,256 286,255 282,252 290,255 294,255 303,266 306,273 310,272 309,269 309,268 307,268 304,266 306,262 310,266 311,262 310,255 316,259 306,249 307,251 303,249 301,248 303,248 297,246 303,252 301,251 294,251 297,252 301,254 304,255 303,256 306,261 297,255 272,248 277,252 279,255 269,249 277,255 279,256 283,259 285,259 287,258 289,262 299,268 293,265 283,262 282,261 286,262 276,258 275,258 276,262 272,256 272,255 276,256 270,252 269,252 268,254 268,256 259,254 258,252 265,251 261,248 259,246 266,249 258,245 258,246 251,242 249,239 249,237 251,238 259,242 268,245 285,251 290,251 289,248 294,248 275,244 287,248 283,248 283,249 265,241 262,242 261,241 252,234 245,238 249,241 252,244 246,242 244,239 239,239 241,241 241,242 252,248 252,249 255,251 241,246 240,245 225,239 222,239 221,238 222,238 224,238 222,237 222,235 218,235 215,232 213,230 209,235 211,235 213,237 219,239 213,236 212,235 219,236 217,236 215,236 218,237 221,239 224,241 160,244 159,244 149,239 153,246 146,249 125,268 129,269 131,268 134,270 142,256 158,251 139,263 276,347 276,348 304,369 307,373 307,369 317,369 320,369 321,369 327,366 325,365 337,358 355,358 354,359 324,368 327,368 356,362 361,371 359,366 358,361 361,365 365,365 365,364 366,359 364,359 365,358 368,355 366,354 362,352 365,348 366,347 368,347 372,351 372,354 373,354 378,354 380,354 373,356 373,358 372,362 386,369 389,372 373,364 386,371 372,365 386,376 382,379 380,379 373,376 365,372 318,371 316,371 314,371 311,371 309,372 316,372 310,375 310,373 309,373 245,503 245,505 259,523 256,536 249,529 259,540 259,548 262,553 251,557 242,560 241,558 221,557 227,557 254,551 256,548 252,534 244,534 244,537 231,521 221,527 220,527 218,529 231,534 214,530 207,538 211,527 222,517 227,513 238,514 244,505 244,503 241,502 232,506 242,506 225,510 220,510 224,503 214,512 221,502 297,387 200,521 197,523 198,521 304,371 300,371 300,373 132,269 132,272 129,275 129,272 128,276 125,276 124,277 122,276 122,275 125,275 125,272 125,270 122,268 124,273 122,273 120,273 120,272 120,270 117,268 112,255 122,251 124,258 128,256 132,251 138,244 146,242 145,241 141,239 146,238 146,237 149,238 151,235 156,232 163,234 162,232 166,227 170,228 170,227 172,225 167,239 207,235 201,232 197,231 191,227 196,231 197,232 190,231 193,232 169,237 190,232 176,235 180,228 183,228 180,225 198,228 177,220 173,224 169,225 158,230 156,228 143,234 138,237 131,245 138,235 124,251 122,246 128,224 118,237 118,244 108,248 105,268 110,268 110,265 110,262 114,261 117,269 115,270 111,269 112,270 110,270 105,270 104,270 101,269 101,268 101,266 110,241 115,234 124,222 135,222 131,228 127,239 141,231 146,227 156,221 162,217 148,230 172,218 165,208 163,207 160,210 149,221 149,220 141,207 145,207 149,206 151,203 145,201 139,196 158,201 166,197 166,198 167,204 184,208 177,210 183,214 175,214 170,211 170,214 172,215 183,218 194,218 197,224 200,231 206,232 208,235 210,224 218,225 221,227 217,230 221,230 221,231 222,232 225,236 223,237 225,238 227,238 228,239 232,241 239,244 241,245 242,245 238,243 244,244 237,241 230,239 229,239 227,237 230,237 231,238 229,238 231,239 234,240 235,240 231,237 227,230 221,220 220,217 224,218 221,211 224,214 227,218 230,224 227,224 228,225 230,227 232,232 235,237 234,237 235,239 237,239 237,238 241,234 248,234 248,231 255,235 258,237 252,231 237,228 235,228 237,230 238,232 238,235 234,227 231,218 237,224 245,224 242,222 241,218 232,214 237,213 232,208 225,203 230,207 225,206 227,213 230,217 230,221 230,222 228,215 224,213 221,204 218,200 221,208 218,206 215,207 215,214 215,217 213,211 211,214 213,220 208,222 207,224 207,220 207,218 207,214 194,206 194,203 206,197 208,198 208,204 208,207 210,208 213,206 217,204 215,198 211,201 211,200 211,193 203,190 208,193 204,194 198,194 193,198 187,200 193,207 196,210 206,214 204,215 201,218 201,220 200,222 200,221 190,210 187,203 176,204 169,196 179,198 183,193 179,193 173,191 194,191 177,184 183,183 169,184 163,190 158,191 146,191 152,189 163,187 165,180 175,182 167,175 165,176 166,172 170,175 165,169 156,163 170,159 166,158 151,160 151,159 120,149 127,152 120,152 112,153 115,158 120,156 118,162 111,155 110,155 107,155 105,156 105,160 97,167 101,166 108,167 101,170 107,177 115,173 115,177 117,175 111,167 110,159 111,158 115,165 131,179 120,170 124,179 131,182 136,182 153,180 149,179 143,179 138,179 136,179 132,179 132,176 127,170 129,167 132,169 138,170 141,167 134,165 138,162 129,163 122,170 118,167 121,163 128,159 131,158 125,153 142,160 148,163 152,170 152,169 152,163 159,172 153,175 145,172 151,176 155,182 146,186 156,183 138,191 139,184 128,182 127,186 122,190 127,182 118,179 112,180 110,180 103,179 101,176 97,175 100,182 103,190 108,190 110,184 115,187 97,196 124,190 125,193 127,191 131,191 135,189 127,197 121,197 121,200 124,204 115,201 107,203 103,203 108,213 98,206 96,204 96,200 90,198 97,221 93,214 87,201 83,201 87,184 80,186 81,182 86,182 93,187 98,184 94,183 97,179 91,172 84,176 90,179 91,175 96,179 74,180 72,180 67,184 67,187 65,207 67,210 66,200 67,201 74,189 77,190 81,189 84,194 81,203 97,224 100,225 101,228 103,230 93,234 96,232 91,227 79,225 91,232 93,241 93,248 96,242 94,237 98,241 100,238 104,231 107,221 98,213 103,214 107,215 120,208 121,214 122,220 131,206 136,201 141,198 134,210 139,214 136,215 125,220 118,225 115,214 110,218 105,235 101,244 98,258 94,270 98,268 98,269 105,272 107,272 115,272 108,273 108,275 104,275 97,272 90,272 90,277 91,273 91,275 94,275 97,275 97,276 98,280 94,283 97,285 167,540 115,280 118,280 118,277 115,275 115,277 112,282 112,280 108,282 108,283 104,282 101,283 100,283 103,280 105,279 112,277 115,273 117,273 120,275 174,538 181,529 191,534 190,534 182,532 191,537 184,540 176,540 177,543 177,551 168,543 168,545 170,565 166,550 161,537 93,285 91,287 91,283 93,283 93,276 87,282 88,283 87,285 86,285 84,285 86,282 87,277 81,277 80,277 84,279 83,279 83,282 83,286 81,282 80,279 79,277 56,251 59,254 59,251 63,248 63,238 70,239 69,234 72,230 70,221 73,222 76,235 77,241 76,237 73,232 70,244 67,251 77,251 70,248 73,242 76,246 84,251 83,246 81,246 80,242 79,239 83,242 88,239 91,237 77,224 81,221 84,218 77,213 77,215 77,217 69,213 66,214 63,214 63,204 60,221 60,217 59,227 62,213 66,220 65,224 66,232 60,232 59,237 56,239 50,234 49,242 141,522 140,526 33,235 42,255 39,239 46,242 35,237 36,230 33,230 35,227 45,225 42,224 31,193 42,218 46,225 55,222 55,218 52,214 49,208 59,210 55,198 50,204 42,197 41,200 32,187 41,193 49,186 36,179 33,180 26,180 25,187 26,186 28,191 29,193 35,211 35,220 33,228 33,225 32,228 33,232 32,234 140,527 145,550 145,556 148,551 144,536 143,532 145,516 155,535 162,552 161,564 163,575 167,582 169,591 191,595 196,598 201,600 200,596 201,598 208,586 198,588 197,588 193,592 191,593 176,581 168,566 175,572 182,558 180,558 184,550 183,561 184,568 189,576 189,571 189,554 191,560 200,555 190,543 190,540 201,537 201,538 204,544 211,540 204,574 201,578 206,574 208,571 210,568 214,545 214,557 224,562 220,568 238,565 242,565 233,620 230,588 224,593 221,591 221,585 218,586 218,591 214,605 213,600 208,605 204,603 212,611 201,617 200,630 199,628 199,631 206,651 199,635 201,643 195,637 197,643 192,636 192,633 192,632 195,630 198,632 197,630 195,626 191,624 191,628 190,639 187,633 188,629 190,626 182,611 187,616 185,612 177,605 185,607 197,618 189,606 190,595 182,602 175,602 176,606 178,610 176,617 174,613 172,599 167,588 166,584 165,584 155,560 153,555 163,581 165,585 167,608 168,607 169,602 172,605 171,607 171,612 170,625 171,614 176,622 186,630 180,632 177,649 175,633 175,627 174,645 172,646 167,637 160,658 165,614 167,612 163,584 159,613 159,646 120,531 134,543 138,555 139,540 138,538 138,542 29,235 29,234 18,187 19,186 21,191 22,190 31,228 32,220 33,224 33,213 24,193 22,189 21,190 21,189 21,187 22,187 19,184 17,180 17,179 21,184 18,179 26,177 26,176 28,176 31,175 18,177 32,122 28,122 11,175 10,175 10,176 147,678 152,687 155,674 153,673 155,657 164,665 166,664 163,654 184,652 176,663 177,665 184,676 182,675 184,678 206,690 188,660 193,646 199,655 206,660 213,665 219,659 221,661 217,669 216,670 207,678 207,679 205,666 202,666 206,680 203,676 206,685 205,688 217,675 221,670 221,666 228,672 231,673 232,673 230,672 248,671 236,644 254,632 258,623 257,647 254,655 254,654 253,661 250,666 250,667 251,680 250,680 248,680 238,676 238,677 249,681 488,777 500,774 506,777 505,781 503,780 503,782 502,781 500,785 503,787 502,788 489,784 499,787 488,781 485,782 204,693 182,683 178,681 176,677 179,678 161,668 167,674 169,678 183,687 174,687 175,691 168,684 169,682 169,681 175,684 167,677 165,677 165,681 166,685 159,685 160,687 156,691 156,692 169,688 455,874 171,689 186,698 182,688 194,695 196,698 200,696 201,696 199,697 496,792 500,794 502,797 503,797 513,799 503,798 500,799 500,801 502,801 500,802 514,812 576,832 622,842 665,870 605,846 584,835 462,878 672,874 622,836 609,830 584,822 578,823 589,826 596,826 610,835 592,833 589,830 574,828 536,812 567,818 568,816 595,823 603,826 616,830 622,830 627,832 626,837 650,854 677,876 654,849 636,836 660,836 606,826 606,821 589,816 568,811 545,802 568,809 565,808 600,818 613,822 634,823 646,829 672,833 660,828 640,825 615,815 627,819 667,825 681,828 688,828 671,825 675,825 674,821 668,809 668,821 651,811 651,812 632,811 643,811 632,802 636,798 632,794 637,794 639,795 637,798 643,799 650,802 655,785 636,792 660,781 668,780 658,795 670,788 677,788 671,791 674,799 678,813 681,809 681,813 678,815 687,822 696,830 692,833 681,832 665,836 648,844 661,847 675,853 672,870 682,867 688,878 682,881 691,884 701,884 725,887 716,883 718,878 712,877 716,874 709,876 715,880 706,878 713,884 696,883 708,864 710,866 705,854 710,863 708,850 701,839 698,839 701,849 703,853 694,871 688,857 696,864 696,856 691,849 688,847 689,843 687,842 692,837 696,837 701,835 708,829 708,832 713,836 705,835 712,842 715,837 720,839 716,847 715,849 729,847 718,856 719,857 723,861 726,853 732,852 733,852 729,863 739,854 802,781 801,775 792,780 791,781 799,778 797,782 732,842 727,844 729,836 722,818 729,811 773,780 746,780 737,788 740,785 749,777 743,782 739,784 730,794 730,795 730,797 729,799 730,805 733,799 727,812 723,808 723,809 723,811 725,813 719,816 718,829 699,821 696,818 710,816 705,812 703,808 702,806 699,804 691,802 689,799 689,794 694,794 699,794 703,792 709,785 696,792 695,788 710,782 722,798 709,802 722,802 719,806 715,808 718,812 719,813 722,805 725,804 725,798 725,792 725,789 732,788 743,780 740,777 750,771 737,778 737,777 725,784 713,781 709,781 713,774 722,775 725,774 729,771 729,774 733,777 722,780 734,778 736,777 740,775 754,764 747,764 749,763 749,761 746,763 746,764 743,763 744,761 746,758 742,763 743,764 723,770 730,770 715,771 689,789 685,792 687,804 692,812 703,830 698,829 688,822 684,819 682,805 679,794 679,789 685,774 688,774 692,774 682,771 685,771 694,773 698,773 705,771 696,770 694,770 691,770 688,770 684,770 682,770 685,768 691,768 696,768 701,768 703,768 705,767 689,765 695,765 696,765 709,736 710,734 708,732 789,720 750,754 733,757 734,760 709,737 702,761 699,763 703,764 703,765 705,763 710,764 715,763 709,763 730,761 729,763 713,764 709,765 718,765 723,765 709,768 713,771 712,770 719,770 729,764 727,768 730,767 733,765 733,763 732,763 734,761 744,758 737,761 736,761 737,763 740,761 740,760 750,756 754,754 756,757 757,758 754,761 754,760 751,756 753,763 757,761 757,760 764,754 794,729 763,753 757,756 787,723 799,716 799,715 801,715 802,716 804,718 812,694 804,719 794,719 789,722 788,725 788,726 792,726 792,727 792,729 795,726 798,723 802,722 802,723 798,725 795,727 795,729 767,757 768,757 767,760 758,760 760,761 757,765 756,765 756,764 756,763 754,765 749,773 742,777 744,780 744,777 753,771 756,767 770,774 771,770 768,771 768,767 768,763 771,765 771,768 773,767 773,764 774,764 778,760 775,757 774,760 773,761 771,761 771,758 770,757 774,754 781,751 789,744 785,749 795,742 789,747 781,753 778,754 780,754 780,756 788,751 788,750 794,743 804,736 805,734 806,732 812,729 812,730 806,736 805,737 794,747 788,753 789,751 787,753 791,756 801,743 799,746 798,750 799,749 801,749 801,750 795,754 788,760 778,768 780,774 778,774 775,765 774,765 773,771 770,777 775,777 777,777 781,777 782,774 781,778 780,782 789,773 785,781 792,775 791,771 791,770 782,777 788,767 785,765 788,764 805,763 804,763 806,743 811,753 812,750 812,746 823,734 830,722 829,720 828,719 828,722 826,726 826,723 818,730 825,729 812,737 804,742 802,743 804,739 816,727 815,727 805,726 806,725 808,723 812,723 819,722 821,710 822,703 819,708 816,713 813,716 806,722 795,739 794,740 788,743 791,739 787,742 789,740 791,734 792,736 794,736 795,734 804,722 806,716 809,715 806,720 808,719 812,713 819,694 819,698 818,702 825,698 829,694 830,695 828,689 826,687 826,692 825,691 822,682 821,685 822,684 821,688 816,701 815,692 818,691 815,689 812,692 797,713 811,688 812,685 792,718 791,718 789,718 785,719 733,708 729,709 746,605 744,602 740,599 740,600 729,595 737,603 722,591 716,588 718,589 712,586 718,591 572,758 568,760 578,723 568,758 560,716 523,761 517,770 513,771 516,771 512,773 517,771 519,770 516,773 514,774 519,777 517,778 541,777 551,780 554,771 534,774 526,773 521,775 529,770 551,763 560,764 553,763 558,763 569,767 568,765 564,761 575,765 589,767 572,768 568,768 576,773 568,775 558,778 553,784 557,785 575,785 584,784 584,787 585,789 569,791 595,802 599,792 598,787 592,782 600,781 626,778 630,777 623,775 589,782 579,780 582,778 589,773 582,773 582,770 584,768 599,777 603,777 675,727 699,726 706,733 696,727 677,727 698,729 692,761 643,774 678,771 681,771 668,773 641,777 629,781 608,782 610,787 613,784 620,788 619,791 629,791 632,792 630,808 613,797 615,802 615,805 622,809 640,816 632,816 585,808 567,802 576,802 584,802 560,798 545,794 544,794 527,791 541,801 505,794 534,799 519,794 516,791 505,792 503,792 506,791 529,787 505,791 503,788 517,781 550,782 527,778 521,781 519,780 514,778 513,777 509,773 506,770 260,619 255,618 231,649 220,659 220,650 217,643 213,645 211,649 207,653 202,638 202,630 209,625 207,629 206,631 206,636 218,631 217,600 221,614 224,625 226,617 224,606 221,603 224,605 230,625 225,631 216,632 216,635 221,640 222,645 230,642 248,622 248,609 250,613 248,603 248,598 259,603 259,605 252,615 265,612 264,607 262,609 255,582 259,571 263,558 266,553 262,603 266,575 269,554 365,406 368,406 413,406 444,431 443,428 445,432 447,434 455,434 466,440 464,433 445,428 442,427 441,426 424,409 417,403 410,402 404,402 400,403 389,400 393,399 386,390 382,385 389,389 410,400 410,399 404,392 393,376 400,376 400,375 382,362 373,361 383,359 385,359 386,359 383,354 380,349 378,345 382,349 392,362 403,379 430,397 416,392 402,382 416,400 414,393 427,407 438,416 452,423 454,424 462,427 475,443 476,450 482,459 502,474 506,471 513,472 509,481 512,483 513,475 514,483 530,486 531,486 536,486 540,489 537,488 545,496 551,502 581,500 593,499 565,498 553,493 553,498 558,496 561,498 554,500 544,489 541,485 547,489 547,488 538,474 543,481 548,479 541,476 541,472 547,475 564,486 574,492 596,498 603,500 602,498 572,474 578,483 584,488 572,482 562,481 571,478 551,471 538,472 529,472 520,466 526,464 530,461 533,464 537,459 540,457 538,452 534,455 533,458 534,447 529,448 527,452 527,454 523,454 520,459 519,457 520,461 517,454 524,445 524,444 526,444 540,448 538,441 538,438 543,443 547,448 543,459 564,469 579,474 588,475 592,481 588,479 598,486 605,499 606,498 602,489 612,496 608,492 617,500 626,506 623,503 619,499 608,490 616,496 609,488 624,499 620,499 627,503 633,506 627,505 632,509 632,510 633,516 624,507 616,505 640,521 643,523 646,524 646,523 651,526 650,527 651,530 651,529 663,533 661,533 668,538 670,540 672,543 668,540 668,541 658,534 657,534 660,536 651,531 648,529 654,534 650,534 650,536 648,536 647,536 648,530 646,527 646,529 644,530 632,516 634,521 644,533 644,534 646,536 647,537 661,553 660,554 657,555 636,540 641,538 643,537 633,538 633,537 634,537 623,519 620,512 615,509 596,500 592,502 543,530 592,503 594,504 619,512 616,544 629,544 647,560 648,560 658,557 661,555 665,553 663,553 664,550 713,586 674,554 658,538 672,548 674,545 677,554 715,581 716,581 720,585 718,584 715,584 718,586 715,585 709,582 726,592 718,582 733,595 737,596 737,595 733,593 727,588 725,585 725,584 734,592 737,593 739,593 743,599 743,595 742,595 740,593 737,589 726,579 730,581 737,585 747,598 750,598 747,592 739,585 722,572 725,576 719,578 718,581 718,579 719,576 718,576 718,575 720,571 703,553 691,550 682,544 682,548 681,551 678,541 671,536 665,533 661,530 668,534 660,526 657,529 654,526 646,521 639,513 644,516 630,503 627,498 623,496 615,489 620,490 627,496 634,500 633,502 630,500 634,505 646,513 665,527 664,529 667,527 661,519 663,523 651,516 653,517 654,517 657,519 657,516 660,512 661,513 660,514 671,530 681,537 687,543 679,538 681,543 692,544 685,544 696,551 695,548 729,569 733,576 734,579 749,591 753,595 760,599 758,599 757,599 754,602 784,634 787,639 799,655 799,654 794,644 797,644 808,658 811,663 809,658 802,644 798,639 797,639 788,633 780,622 773,615 773,608 763,598 758,595 767,600 770,603 775,608 781,612 778,608 771,599 767,596 765,593 767,591 765,584 771,588 777,600 778,603 782,613 774,609 781,619 788,630 788,624 791,627 801,639 799,637 801,641 802,643 809,657 811,660 813,663 809,651 808,651 804,644 802,640 808,647 812,653 822,670 815,664 818,668 812,665 812,664 805,668 802,665 804,675 804,674 804,671 805,675 804,677 804,679 805,678 806,679 808,679 806,682 809,684 809,678 812,678 812,681 815,672 806,675 816,670 818,679 818,685 819,678 819,672 818,670 819,670 819,671 823,677 822,674 823,668 823,664 825,663 825,665 825,671 825,675 825,679 826,685 826,679 826,670 826,667 829,672 829,684 829,685 828,688 832,689 832,687 833,685 835,687 839,689 847,689 849,689 850,692 849,698 847,699 846,696 843,694 847,694 847,692 839,694 837,695 835,695 837,692 836,689 833,694 832,701 829,703 833,705 839,701 833,702 833,699 843,699 837,703 836,710 832,708 833,706 826,706 825,706 822,709 822,715 822,722 825,709 826,708 825,712 829,715 833,718 832,719 835,719 830,733 828,739 826,739 822,744 818,744 818,750 819,751 821,751 816,753 815,749 811,756 808,761 795,774 806,767 802,770 802,774 805,778 806,777 809,773 805,773 806,771 811,760 809,767 815,761 811,768 823,753 819,756 822,751 823,747 833,737 835,739 836,740 829,744 826,746 825,747 823,751 826,750 804,780 722,877 720,868 716,861 719,880 722,883 843,742 832,749 837,740 840,739 846,734 894,694 994,619 984,620 887,684 864,695 874,692 881,688 890,684 894,684 892,688 894,688 892,692 890,691 876,695 873,695 870,696 849,708 843,722 888,692 888,694 887,695 884,699 891,694 888,698 846,727 842,725 836,732 833,730 839,720 842,722 843,718 844,718 840,713 857,701 864,698 852,702 854,703 847,708 844,710 840,712 843,710 833,715 836,712 844,709 846,703 849,702 854,701 856,696 864,687 866,685 859,695 863,698 861,694 868,685 868,687 870,688 873,685 878,682 887,682 888,681 892,674 891,675 891,674 888,670 887,671 883,675 884,672 884,665 881,668 881,674 878,681 878,674 878,670 876,677 870,682 871,679 857,692 854,696 852,695 863,681 864,681 866,682 871,675 868,675 876,670 880,665 874,665 871,650 874,648 868,647 868,651 870,664 867,667 861,657 861,655 863,654 863,653 863,646 863,643 856,646 852,641 846,639 836,627 830,619 837,619 843,617 837,613 837,608 830,596 828,602 823,609 823,603 826,599 833,591 839,598 840,599 856,572 866,575 857,585 873,569 861,557 880,554 877,553 854,537 849,550 840,558 844,562 836,565 819,565 813,561 801,557 818,560 822,553 830,555 843,548 844,537 847,524 863,531 868,530 856,521 901,547 922,557 936,564 945,567 953,571 964,578 943,560 926,551 911,543 878,531 905,540 912,540 892,534 846,517 839,512 833,509 833,537 818,543 805,548 792,544 798,540 784,530 797,527 805,524 789,499 785,485 746,464 822,503 805,492 844,513 794,483 811,490 763,465 751,455 736,450 775,462 787,464 789,471 822,495 849,516 861,519 857,517 866,521 856,513 849,505 863,510 873,519 876,520 861,507 870,510 876,516 883,520 897,529 892,524 909,537 914,536 908,531 935,553 942,551 932,544 901,521 895,517 899,520 890,516 899,529 812,448 794,445 788,444 833,498 788,464 761,451 743,448 610,133 599,311 600,316 598,317 595,316 591,313 595,307 591,307 586,303 584,301 581,300 585,304 582,306 578,304 574,304 568,303 572,303 571,301 571,299 574,299 575,299 578,300 572,297 574,297 586,299 591,303 592,304 596,307 564,122 564,119 567,117 561,117 560,115 562,114 560,113 559,112 554,111 553,111 553,110 549,111 548,111 545,110 543,108 547,109 546,107 539,97 535,94 541,98 554,101 542,97 544,96 552,100 547,96 556,100 558,101 559,103 562,103 564,104 552,102 554,104 550,103 546,102 544,101 542,100 545,103 548,106 552,104 561,110 556,110 562,112 575,118 574,115 578,115 579,118 576,118 575,117 577,126 578,126 587,123 581,118 582,115 584,112 583,114 586,121 587,119 587,116 584,115 585,114 586,110 587,113 587,112 594,117 595,118 590,117 589,115 588,113 589,116 605,133 608,132 609,132 609,129 610,128 610,130 613,134 612,132 614,131 612,128 612,127 613,127 613,129 615,132 964,571 967,582 919,561 911,558 977,593 966,594 923,576 943,576 936,572 933,574 902,555 915,564 915,568 905,567 902,565 901,557 900,558 899,559 900,571 902,572 903,571 904,569 902,566 904,567 908,572 915,572 915,571 921,574 912,574 911,574 908,574 843,603 847,612 843,616 856,639 852,639 854,641 854,640 856,640 859,640 860,640 863,640 847,610 973,598 969,600 878,648 880,658 877,660 874,655 873,653 876,661 880,660 890,661 888,658 890,658 885,654 883,655 881,650 966,602 974,600 976,598 976,595 978,595 981,593 984,596 981,592 993,599 995,602 981,600 987,605 981,606 988,608 974,608 976,610 977,612 981,612 993,609 993,610 997,608 995,605 995,603 1000,605 1004,602 1001,606 998,615 997,616 997,613 998,612 1000,606 998,609 988,615 994,612 995,616 995,619 997,617 995,620 997,623 997,620 1001,613 998,616 1007,603 1010,593 1005,598 1002,599 1002,600 1001,603 1000,602 995,599 993,595 998,599 1002,596 1001,595 995,589 991,585 978,572 984,581 986,581 1000,596 991,593 993,593 997,593 987,586 988,589 988,593 993,596 971,584 977,581 981,585 981,581 973,575 980,581 976,579 974,578 969,572 967,565 974,572 972,565 963,551 615,131 615,130 614,126 611,122 609,122 595,103 585,90 586,92 606,120 609,125 608,125 609,126 604,123 605,132 595,116 593,114 589,109 601,120 599,117 598,116 592,110 588,108 584,100 583,100 582,99 582,100 578,95 579,95 577,94 577,93 584,99 587,103 589,104 600,118 603,121 605,123 606,124 606,123 606,122 604,118 603,118 603,120 602,117 593,104 594,107 600,117 593,108 593,107 585,98 579,91 575,87 573,85 575,86 577,87 572,81 570,80 568,77 568,79 569,80 571,82 571,83 571,84 575,91 573,89 571,87 570,86 576,95 577,99 581,106 580,102 578,97 577,95 585,109 578,105 581,108 581,110 578,113 577,110 571,110 570,112 560,106 564,107 568,107 568,108 574,109 570,106 569,105 570,108 565,104 566,102 574,108 576,107 576,106 578,109 577,105 573,103 570,102 567,102 564,100 563,102 552,96 561,99 555,92 552,90 549,88 552,86 552,84 550,83 549,83 547,83 542,83 541,81 544,82 548,82 551,82 541,80 537,84 536,80 535,83 535,78 535,77 533,81 533,83 535,85 539,91 542,90 543,91 546,92 548,91 545,89 542,87 545,85 552,91 556,95 558,97 553,95 550,93 550,95 547,94 546,93 538,92 536,92 535,93 535,92 536,87 535,86 535,87 535,89 533,91 533,89 526,86 519,86 514,85 515,85 524,83 528,84 530,84 528,80 524,82 524,81 529,77 522,77 527,74 526,72 533,72 536,76 530,76 537,77 537,79 550,80 554,80 555,84 558,83 557,84 557,87 557,88 554,88 556,92 558,93 562,97 562,98 566,101 568,100 566,98 562,96 571,98 570,99 571,100 572,97 573,97 577,101 571,92 570,90 566,87 567,91 570,96 570,97 565,95 561,90 559,88 560,88 561,87 562,91 563,91 565,88 565,85 563,85 562,84 561,84 560,82 558,81 557,81 555,81 554,79 556,80 563,83 563,81 563,80 563,79 566,84 567,82 566,81 562,76 565,79 563,75 566,76 567,75 568,74 570,78 572,76 575,76 573,77 581,87 577,83 578,88 579,89 581,92 580,90 584,96 589,100 586,94 585,91 583,86 584,88 587,92 588,91 598,100 984,567 983,567 617,128 614,124 615,127 615,129 617,130 617,129 619,131 986,571 983,574 984,575 987,578 990,581 993,582 994,581 991,578 988,570 1000,584 993,574 637,122 593,87 591,90 590,90 590,86 593,86 598,85 599,84 586,65 592,83 593,85 589,85 589,83 589,82 582,65 586,83 589,88 586,87 585,86 578,79 585,84 581,81 583,82 576,73 571,75 574,68 574,65 570,67 571,64 572,62 574,64 580,64 577,60 574,59 571,60 546,53 531,48 544,51 551,52 550,52 554,53 573,55 565,55 569,57 569,59 576,56 581,55 585,55 594,55 592,58 594,57 601,56 596,54 489,36 525,48 514,45 512,46 508,49 504,48 510,50 526,54 530,55 516,50 517,50 518,50 521,50 532,53 534,53 534,54 532,55 534,55 533,57 532,58 544,58 543,56 543,55 543,54 536,53 545,54 533,51 546,54 553,56 554,56 561,59 570,61 562,61 570,62 570,64 568,65 562,64 563,66 568,66 556,67 561,64 558,64 557,63 556,63 552,66 556,70 562,75 560,76 559,77 556,75 552,70 550,68 548,67 548,72 551,71 549,68 552,72 557,76 553,74 551,74 551,76 545,79 538,75 534,68 526,63 508,62 517,59 520,59 527,63 529,64 539,71 534,67 542,65 548,66 546,61 548,61 557,62 559,61 553,58 552,57 550,58 547,58 546,57 546,59 540,61 544,62 546,64 544,64 539,64 534,64 531,64 530,63 523,59 534,60 519,57 510,59 507,56 498,52 499,52 506,51 502,49 506,50 505,49 492,41 491,40 486,37 475,28 479,28 480,25 471,10 471,24 467,27 468,27 476,33 477,35 478,38 474,36 474,46 472,37 469,33 469,34 460,35 466,34 457,33 464,33 469,32 458,32 451,32 466,29 454,31 455,25 465,18 461,12 455,21 443,21 434,22 444,29 437,31 431,29 434,31 434,32 427,28 423,26 411,22 423,18 427,17 426,18 452,18 417,14 414,15 407,21 389,28 368,36 364,38 340,42 389,26 404,22 402,22 396,21 387,25 342,39 335,41 338,38 341,28 340,29 335,29 330,31 159,60 155,63 146,69 142,72 141,77 138,80 135,79 138,76 134,79 135,83 127,96 135,94 131,94 159,90 163,91 155,88 162,87 166,90 163,87 170,93 167,93 162,93 145,93 142,94 143,93 138,94 141,94 129,100 127,101 131,97 122,103 97,110 128,96 81,105 90,104 48,111 35,112 26,115 31,117 33,117 41,117 35,120 33,120 39,134 39,122 45,138 46,135 48,125 43,121 57,120 48,122 50,122 49,124 52,124 49,143 52,155 53,131 53,135 60,122 62,124 55,152 52,165 38,167 32,170 32,173 32,175 35,170 38,170 46,182 53,186 62,198 62,179 50,172 56,173 55,163 63,156 66,152 63,152 55,158 57,146 63,122 55,114 55,112 67,111 69,111 70,110 88,107 88,108 90,107 90,108 87,110 80,112 87,112 84,115 87,115 84,118 88,120 88,117 94,114 105,112 114,111 124,105 115,111 121,110 134,100 141,97 143,98 145,96 145,94 155,94 162,94 169,96 167,97 162,98 149,98 135,108 136,105 115,114 105,117 108,120 100,121 97,121 98,120 91,120 93,122 108,125 94,124 90,125 94,128 97,129 105,134 110,138 121,135 110,141 115,142 112,142 110,143 117,143 110,146 108,145 108,141 104,135 107,141 104,141 100,141 94,146 96,146 97,146 101,146 103,146 103,148 101,152 94,155 94,152 88,155 88,152 86,153 87,152 79,149 76,149 73,148 74,148 81,148 86,148 87,148 91,151 93,148 88,131 87,131 84,143 83,139 81,138 73,124 76,120 73,122 77,117 63,117 56,114 62,117 69,120 66,121 65,120 65,125 66,131 63,129 69,146 81,156 69,153 69,156 70,159 76,162 84,156 80,165 79,165 69,172 70,173 72,175 65,173 66,175 66,177 69,176 73,177 77,175 84,166 86,165 86,172 93,170 90,165 98,163 93,163 87,163 93,159 101,160 105,152 110,151 111,146 111,151 112,151 117,149 115,148 127,148 131,145 135,142 153,145 139,141 153,141 158,145 153,138 138,134 153,136 145,132 152,128 145,131 142,132 127,139 136,138 131,141 128,143 118,141 121,138 124,134 120,135 117,125 122,128 125,131 131,136 135,135 132,132 135,131 129,131 132,129 134,129 136,125 136,124 117,124 117,117 122,115 127,111 129,112 125,118 129,118 143,120 142,114 146,120 141,122 143,122 148,121 158,120 159,121 142,125 148,125 149,125 170,118 172,125 175,127 180,125 186,124 194,122 194,124 194,127 183,125 187,127 196,128 203,128 206,124 210,125 204,120 204,121 204,122 201,125 197,122 197,121 197,120 190,121 189,121 191,121 176,122 175,121 184,121 190,120 206,118 210,120 220,118 215,117 234,115 237,117 234,117 231,118 244,118 235,120 232,121 211,121 213,124 215,125 210,127 211,131 208,138 222,146 213,145 215,146 220,146 228,155 225,148 221,142 225,138 224,136 221,136 222,134 222,128 218,127 217,129 218,132 218,135 215,131 215,132 215,134 220,136 217,138 220,138 218,141 215,138 213,128 222,124 225,124 225,131 224,134 228,131 230,138 234,141 228,141 222,143 232,153 235,156 234,148 239,148 234,146 235,146 237,139 246,149 248,156 254,159 261,162 263,165 256,163 239,158 239,155 235,160 251,163 239,163 235,165 235,166 242,169 248,165 256,170 254,165 261,167 265,170 255,172 246,173 263,172 262,175 273,179 255,176 254,177 266,182 262,182 268,184 279,179 266,172 266,166 269,162 263,159 263,155 265,159 270,158 273,156 283,158 286,163 290,156 289,159 289,160 290,160 303,166 309,170 304,169 292,163 299,169 292,165 283,163 280,162 279,163 286,166 282,165 279,167 268,167 270,169 272,170 279,175 280,177 279,183 286,186 285,184 282,180 277,170 280,172 282,169 287,169 290,173 289,167 297,176 296,177 297,177 306,184 310,182 323,189 311,179 310,179 293,167 310,173 314,179 318,183 321,184 330,187 328,187 330,190 330,193 317,191 328,196 324,198 328,198 335,194 332,198 335,196 337,194 334,189 337,191 337,193 341,196 344,196 355,197 356,200 355,200 364,203 362,200 364,198 355,194 356,193 349,189 359,198 345,186 341,183 335,180 335,183 324,177 321,176 316,177 345,187 348,194 342,191 344,191 344,189 330,182 327,184 324,183 313,176 320,176 314,172 306,167 317,167 325,170 316,172 321,173 321,172 325,175 327,177 327,173 327,169 325,167 340,166 335,160 328,163 324,165 324,162 321,156 313,159 318,155 309,152 299,148 327,152 306,142 304,141 296,136 304,142 296,145 287,135 290,135 272,131 286,143 285,143 283,143 279,143 286,148 290,149 299,152 301,153 300,156 303,158 307,158 304,163 296,162 294,156 290,155 296,156 292,152 287,152 287,153 286,156 283,153 272,152 270,153 268,152 258,149 256,153 254,153 244,146 241,142 246,138 249,138 249,136 249,134 249,132 238,131 237,131 239,138 235,135 235,128 239,121 232,124 227,127 225,125 228,125 234,122 241,120 246,120 244,121 241,122 241,124 246,121 254,120 256,118 259,117 262,111 268,111 261,120 258,121 252,124 255,120 251,124 242,125 246,127 245,128 248,129 262,132 258,132 251,131 249,131 270,135 261,135 256,135 259,138 263,141 255,139 246,141 245,142 252,149 259,141 265,146 279,149 283,149 276,146 263,142 270,142 276,141 269,134 263,129 261,129 263,127 251,125 245,125 255,124 262,122 266,121 265,122 266,124 272,127 270,128 279,129 270,125 268,121 280,122 293,121 294,124 292,122 277,125 286,127 282,129 286,131 292,134 296,134 313,139 309,139 310,143 325,141 324,145 332,141 335,143 337,145 334,146 338,151 342,149 349,146 335,139 325,138 328,139 323,138 289,131 310,134 314,134 321,132 310,128 307,128 294,128 292,129 289,129 292,127 296,124 297,122 297,121 282,120 292,118 296,115 300,114 313,115 321,115 311,117 310,120 306,121 299,122 309,124 317,124 318,121 318,122 318,127 324,125 332,125 325,128 323,128 327,134 332,135 337,136 352,141 358,142 356,146 359,145 365,143 362,143 358,139 355,138 359,139 383,139 383,143 396,148 390,142 385,141 385,138 389,139 389,136 396,134 396,132 390,129 395,127 396,121 406,118 402,120 403,125 397,127 396,128 400,128 406,125 403,128 403,129 410,124 410,125 413,122 420,134 424,134 420,131 416,121 416,120 419,124 420,128 420,129 421,128 420,120 421,118 414,118 411,118 410,120 410,117 411,117 423,117 420,114 417,112 423,112 426,105 431,103 434,104 437,105 438,104 435,98 431,100 426,101 426,103 424,107 423,108 421,108 416,107 416,103 413,101 417,100 423,101 426,97 434,94 421,94 417,94 400,97 406,101 410,105 421,110 417,110 414,110 410,110 402,105 404,103 399,103 397,100 393,101 395,100 392,98 385,98 413,112 411,112 410,112 407,110 406,111 403,111 399,112 403,110 404,110 397,105 393,105 390,110 387,108 380,112 386,114 395,115 389,115 383,115 383,117 385,117 386,120 392,117 397,115 406,114 404,115 390,121 390,122 380,125 393,124 380,131 385,128 375,129 366,131 378,131 376,132 382,135 387,131 390,131 392,132 389,132 387,135 376,139 375,135 368,138 372,139 368,139 361,139 359,136 349,135 337,131 338,131 340,129 341,129 349,132 348,132 356,132 365,136 369,136 375,134 362,132 375,120 375,117 383,118 376,114 371,114 369,121 371,121 362,125 347,125 348,124 356,122 358,118 354,120 324,124 323,124 327,121 331,121 331,118 349,117 356,114 337,111 341,107 348,107 361,108 364,110 373,112 379,111 376,111 378,108 382,104 385,104 387,103 382,101 380,104 376,105 362,107 369,101 372,98 364,97 369,96 373,97 371,94 365,96 373,93 386,93 387,93 397,94 413,94 404,87 426,88 426,93 434,93 438,94 440,94 441,97 441,100 438,100 438,103 443,105 444,101 445,98 445,97 448,94 448,97 447,100 448,105 454,104 454,98 451,97 454,93 461,89 461,91 463,91 464,92 461,94 460,92 457,96 458,96 455,101 459,96 460,96 458,100 462,101 465,98 466,94 465,95 461,95 464,94 466,93 465,90 464,89 "/><text x="0" y="20">Length: 86935.04848477949</text></svg>
