<?xml version="1.0" encoding="utf-8"?><svg xmlns="http://www.w3.org/2000/svg" version="1.1" width="1020.0" height="1020.0"><polygon stroke="white" stroke-width="1" fill="none" points="10,176 10,175 11,175 17,180 17,179 18,187 18,179 18,177 19,186 19,184 21,191 21,190 21,189 21,187 21,184 22,190 22,189 22,187 24,193 25,187 26,186 26,180 26,177 26,176 26,115 28,191 28,176 28,122 29,235 29,234 29,193 31,228 31,193 31,175 31,117 32,234 32,228 32,220 32,187 32,175 32,173 32,170 32,122 33,235 33,232 33,230 33,228 33,225 33,224 33,213 33,180 33,120 33,117 35,237 35,227 35,220 35,211 35,170 35,120 35,112 36,230 36,179 38,170 38,167 39,239 39,134 39,122 41,200 41,193 41,117 42,255 42,224 42,218 42,197 43,121 45,225 45,138 46,242 46,225 46,182 46,135 48,125 48,122 48,111 49,242 49,208 49,186 49,143 49,124 50,234 50,204 50,172 50,122 52,214 52,165 52,155 52,124 53,186 53,135 53,131 55,222 55,218 55,198 55,163 55,158 55,152 55,114 55,112 56,251 56,239 56,173 56,114 57,146 57,120 59,254 59,251 59,237 59,227 59,210 60,232 60,221 60,217 60,122 62,213 62,198 62,179 62,124 62,117 63,248 63,238 63,214 63,204 63,156 63,152 63,129 63,122 63,117 65,224 65,207 65,173 65,125 65,120 66,232 66,220 66,214 66,200 66,177 66,175 66,152 66,131 66,121 67,251 67,210 67,201 67,187 67,184 67,111 69,234 69,213 69,176 69,172 69,156 69,153 69,146 69,120 69,111 70,248 70,244 70,239 70,221 70,173 70,159 70,110 72,230 72,180 72,175 73,242 73,232 73,222 73,177 73,148 73,124 73,122 74,189 74,180 74,148 76,246 76,237 76,235 76,162 76,149 76,120 77,251 77,241 77,224 77,217 77,215 77,213 77,190 77,175 77,117 79,277 79,239 79,225 79,165 79,149 80,279 80,277 80,242 80,186 80,165 80,112 81,282 81,277 81,246 81,221 81,203 81,189 81,182 81,156 81,148 81,138 81,105 83,286 83,282 83,279 83,246 83,242 83,201 83,139 84,285 84,279 84,251 84,218 84,194 84,176 84,166 84,156 84,143 84,118 84,115 86,285 86,282 86,182 86,172 86,165 86,153 86,148 87,285 87,282 87,277 87,201 87,184 87,163 87,152 87,148 87,131 87,115 87,112 87,110 88,283 88,239 88,155 88,152 88,131 88,120 88,117 88,108 88,107 90,277 90,272 90,198 90,179 90,165 90,125 90,108 90,107 90,104 91,287 91,283 91,275 91,273 91,237 91,232 91,227 91,175 91,172 91,151 91,120 93,285 93,283 93,276 93,248 93,241 93,234 93,214 93,187 93,170 93,163 93,159 93,148 93,122 94,283 94,275 94,270 94,237 94,183 94,155 94,152 94,146 94,128 94,124 94,114 96,242 96,232 96,204 96,200 96,179 96,146 97,285 97,276 97,275 97,272 97,224 97,221 97,196 97,179 97,175 97,167 97,146 97,129 97,121 97,110 98,280 98,269 98,268 98,258 98,241 98,213 98,206 98,184 98,163 98,120 100,283 100,238 100,225 100,182 100,141 100,121 101,283 101,269 101,268 101,266 101,244 101,228 101,176 101,170 101,166 101,160 101,152 101,146 103,280 103,230 103,214 103,203 103,190 103,179 103,148 103,146 104,282 104,275 104,270 104,231 104,141 104,135 105,279 105,272 105,270 105,268 105,235 105,160 105,156 105,152 105,134 105,117 105,112 107,272 107,221 107,215 107,203 107,177 107,155 107,141 108,283 108,282 108,275 108,273 108,248 108,213 108,190 108,167 108,145 108,141 108,125 108,120 110,270 110,268 110,265 110,262 110,241 110,218 110,184 110,180 110,159 110,155 110,151 110,146 110,143 110,141 110,138 111,269 111,167 111,158 111,155 111,151 111,146 112,282 112,280 112,277 112,270 112,255 112,180 112,153 112,151 112,142 114,261 114,111 115,280 115,277 115,275 115,273 115,272 115,270 115,234 115,214 115,201 115,187 115,177 115,173 115,165 115,158 115,148 115,142 115,114 115,111 117,273 117,269 117,268 117,175 117,149 117,143 117,125 117,124 117,117 118,280 118,277 118,244 118,237 118,225 118,179 118,167 118,162 118,141 120,531 120,275 120,273 120,272 120,270 120,208 120,170 120,156 120,152 120,149 120,135 121,214 121,200 121,197 121,163 121,138 121,135 121,110 122,276 122,275 122,273 122,268 122,251 122,246 122,220 122,190 122,170 122,128 122,115 122,103 124,277 124,273 124,258 124,251 124,222 124,204 124,190 124,179 124,134 124,105 125,276 125,275 125,272 125,270 125,268 125,220 125,193 125,153 125,131 125,118 127,239 127,197 127,191 127,186 127,182 127,170 127,152 127,148 127,139 127,111 127,101 127,96 128,276 128,256 128,224 128,182 128,159 128,143 128,96 129,275 129,272 129,269 129,167 129,163 129,131 129,118 129,112 129,100 131,268 131,245 131,228 131,206 131,191 131,182 131,179 131,158 131,145 131,141 131,136 131,97 131,94 131,91 132,272 132,269 132,251 132,179 132,176 132,169 132,132 132,129 132,88 134,543 134,270 134,210 134,165 134,129 134,100 134,87 134,79 135,222 135,189 135,142 135,135 135,131 135,108 135,94 135,83 135,79 136,215 136,201 136,182 136,179 136,138 136,125 136,124 136,105 138,76 138,80 138,88 138,94 138,111 138,134 138,148 138,162 138,170 138,179 138,191 138,235 138,237 138,244 138,538 138,542 138,555 139,141 139,184 139,196 139,214 139,263 139,540 140,526 140,527 141,77 141,80 141,86 141,90 141,94 141,97 141,111 141,122 141,167 141,198 141,207 141,231 141,239 141,522 142,256 142,160 142,132 142,125 142,114 142,94 142,81 142,72 143,532 143,234 143,179 143,122 143,120 143,98 143,93 143,79 144,536 145,556 145,550 145,516 145,241 145,207 145,201 145,172 145,146 145,132 145,131 145,96 145,94 145,93 145,88 145,86 146,249 146,242 146,238 146,237 146,227 146,191 146,186 146,120 146,81 146,80 146,76 146,73 146,69 148,551 148,230 148,163 148,152 148,149 148,125 148,121 148,83 148,76 149,239 149,238 149,221 149,220 149,206 149,179 149,158 149,125 149,98 149,87 149,81 151,235 151,203 151,176 151,160 151,159 151,115 151,107 151,74 151,73 152,189 152,170 152,169 152,163 152,152 152,128 152,112 152,69 153,555 153,246 153,180 153,175 153,158 153,149 153,146 153,145 153,141 153,138 153,136 153,100 153,83 155,535 155,182 155,127 155,108 155,101 155,94 155,88 155,65 155,63 156,232 156,228 156,221 156,183 156,163 156,111 156,105 156,84 156,80 156,77 156,69 156,66 158,251 158,230 158,201 158,191 158,151 158,145 158,120 158,117 158,114 158,101 159,244 159,172 159,136 159,121 159,90 159,83 159,79 159,60 160,244 160,210 160,153 160,124 160,81 162,87 162,93 162,94 162,98 162,139 162,217 162,232 162,552 163,654 163,584 163,581 163,575 163,234 163,207 163,190 163,187 163,165 163,128 163,91 163,87 164,665 165,614 165,585 165,584 165,208 165,180 165,176 165,169 165,167 165,153 165,149 165,101 165,84 165,81 166,90 166,108 166,117 166,149 166,158 166,172 166,197 166,198 166,227 166,550 166,584 166,664 167,677 167,540 167,674 167,637 167,612 167,608 167,588 167,582 167,239 167,204 167,175 167,155 167,132 167,105 167,98 167,97 167,93 168,543 168,545 168,566 168,684 168,607 169,96 169,104 169,184 169,196 169,225 169,237 169,591 169,602 169,678 169,681 169,682 170,625 170,565 170,228 170,227 170,214 170,211 170,175 170,159 170,143 170,139 170,134 170,118 170,101 170,93 171,614 171,612 171,607 172,646 172,605 172,599 172,225 172,218 172,215 172,167 172,151 172,131 172,128 172,125 172,93 173,224 173,191 173,172 173,162 173,105 173,94 173,84 174,645 174,613 174,538 175,602 175,572 175,214 175,182 175,162 175,143 175,135 175,132 175,129 175,128 175,127 175,121 175,97 176,622 176,663 176,617 176,606 176,581 176,540 176,235 176,204 176,136 176,122 176,117 176,112 176,110 176,97 176,91 177,665 177,543 177,649 177,605 177,551 177,220 177,210 177,184 177,170 177,166 177,153 177,148 177,118 177,115 177,96 178,610 179,678 179,198 179,193 179,101 179,97 179,90 180,93 180,96 180,125 180,143 180,158 180,225 180,228 180,558 180,632 181,529 182,602 182,558 182,532 182,180 182,165 182,149 182,134 182,114 182,105 182,91 183,561 183,228 183,218 183,214 183,193 183,183 183,180 183,175 183,162 183,156 183,138 183,136 183,125 183,107 183,103 183,98 183,96 183,90 184,208 184,152 184,132 184,131 184,129 184,121 184,120 184,93 184,90 186,91 186,105 186,124 186,630 187,633 187,616 187,203 187,200 187,173 187,148 187,136 187,127 187,107 188,660 188,629 189,93 189,111 189,112 189,121 189,134 189,152 189,179 189,554 189,571 189,576 189,606 190,96 190,107 190,115 190,118 190,120 190,121 190,136 190,139 190,153 190,210 190,231 190,232 190,534 190,540 190,543 190,595 190,626 190,639 191,628 191,624 191,595 191,593 191,560 191,537 191,534 191,227 191,170 191,121 191,115 191,111 191,105 192,632 192,633 192,636 193,646 193,592 193,232 193,207 193,198 193,177 193,136 193,104 193,101 194,218 194,206 194,203 194,191 194,170 194,127 194,124 194,122 196,598 196,231 196,210 196,184 196,182 196,169 196,146 196,143 196,135 196,129 196,128 196,118 196,115 197,643 197,630 197,618 197,588 197,523 197,232 197,231 197,224 197,172 197,149 197,139 197,132 197,131 197,122 197,121 197,120 197,110 198,632 198,588 198,521 198,228 198,194 198,180 198,166 198,152 200,596 200,555 200,521 200,231 200,222 200,221 200,187 200,149 200,141 200,135 201,617 201,643 201,600 201,598 201,578 201,538 201,537 201,232 201,220 201,218 201,179 201,172 201,153 201,142 201,132 201,125 202,666 202,638 202,630 203,115 203,128 203,136 203,156 203,163 203,177 203,190 203,676 204,603 204,574 204,544 204,215 204,194 204,149 204,145 204,143 204,122 204,121 204,120 204,112 205,666 206,574 206,232 206,214 206,197 206,167 206,166 206,139 206,136 206,124 206,118 207,629 207,538 207,235 207,224 207,220 207,218 207,214 207,189 207,169 207,153 207,141 207,132 208,605 208,586 208,571 208,235 208,222 208,207 208,204 208,198 208,193 208,190 208,187 208,176 208,172 208,138 208,129 208,117 209,625 209,235 210,568 210,224 210,208 210,186 210,177 210,156 210,127 210,125 210,120 210,118 210,100 210,97 211,649 211,540 211,527 211,235 211,214 211,201 211,200 211,193 211,187 211,180 211,165 211,153 211,148 211,131 211,121 211,100 212,611 212,235 213,645 213,600 213,237 213,236 213,230 213,220 213,211 213,206 213,186 213,172 213,160 213,159 213,145 213,128 213,124 213,117 213,100 214,605 214,557 214,545 214,530 214,512 214,190 214,183 214,155 214,152 214,151 214,104 214,100 215,236 215,232 215,217 215,214 215,207 215,198 215,196 215,189 215,162 215,146 215,138 215,134 215,132 215,131 215,125 215,117 215,115 215,101 215,91 216,632 216,635 217,643 217,600 217,236 217,230 217,204 217,197 217,190 217,159 217,156 217,138 217,129 217,108 217,104 217,91 218,631 218,591 218,586 218,529 218,237 218,235 218,225 218,206 218,200 218,191 218,186 218,172 218,141 218,135 218,132 218,127 218,110 218,98 218,94 219,236 219,239 219,659 220,93 220,101 220,107 220,118 220,136 220,138 220,146 220,173 220,184 220,194 220,217 220,510 220,527 220,568 220,650 220,659 221,101 221,104 221,136 221,142 221,180 221,187 221,190 221,204 221,208 221,211 221,220 221,227 221,230 221,231 221,238 221,239 221,502 221,527 221,557 221,585 221,591 221,603 221,661 221,666 221,640 221,614 222,645 222,237 222,517 222,239 222,235 222,238 222,232 222,198 222,193 222,190 222,176 222,173 222,166 222,152 222,146 222,143 222,134 222,128 222,124 222,96 223,237 224,625 224,606 224,605 224,593 224,562 224,503 224,241 224,238 224,218 224,214 224,213 224,200 224,170 224,136 224,134 224,100 225,631 225,510 225,236 225,239 225,238 225,206 225,203 225,197 225,191 225,165 225,160 225,159 225,148 225,138 225,131 225,125 225,124 225,110 225,83 226,617 227,87 227,94 227,100 227,108 227,110 227,127 227,176 227,186 227,187 227,193 227,197 227,213 227,218 227,224 227,230 227,237 227,238 227,513 227,557 228,239 228,225 228,215 228,186 228,179 228,160 228,155 228,141 228,131 228,125 228,114 228,110 228,87 229,239 229,238 230,642 230,625 230,237 230,588 230,239 230,227 230,224 230,222 230,221 230,217 230,207 230,193 230,190 230,179 230,138 230,115 230,105 230,104 230,97 230,88 230,80 230,79 230,62 231,649 231,238 231,239 231,237 231,534 231,521 231,218 231,180 231,118 231,103 231,96 231,84 232,241 232,506 232,232 232,214 232,208 232,198 232,176 232,169 232,166 232,153 232,124 232,121 232,88 232,69 232,63 232,62 232,59 233,620 234,240 234,237 234,227 234,198 234,148 234,146 234,141 234,122 234,117 234,115 234,107 234,100 235,240 235,239 235,237 235,228 235,204 235,203 235,196 235,194 235,182 235,176 235,166 235,165 235,160 235,156 235,146 235,135 235,128 235,120 235,111 235,88 235,74 235,73 235,69 235,65 235,63 235,62 236,644 237,60 237,62 237,66 237,70 237,84 237,93 237,117 237,131 237,139 237,169 237,184 237,186 237,206 237,208 237,213 237,224 237,228 237,230 237,238 237,239 237,241 238,565 238,514 238,243 238,235 238,232 238,182 238,175 238,131 238,111 238,107 238,96 238,76 238,73 239,244 239,239 239,197 239,191 239,187 239,170 239,163 239,158 239,155 239,148 239,138 239,121 239,97 239,80 239,73 239,72 240,245 241,558 241,502 241,246 241,242 241,245 241,241 241,234 241,218 241,214 241,208 241,203 241,186 241,172 241,142 241,124 241,122 241,120 241,108 241,107 241,86 241,81 241,72 242,565 242,560 242,506 242,245 242,222 242,214 242,210 242,206 242,201 242,187 242,184 242,182 242,177 242,173 242,169 242,125 242,115 242,114 242,87 242,70 244,537 244,534 244,505 244,503 244,244 244,239 244,179 244,146 244,121 244,118 244,115 244,103 244,81 244,77 244,57 245,505 245,503 245,238 245,224 245,218 245,215 245,198 245,197 245,190 245,142 245,128 245,125 245,110 245,104 245,72 246,242 246,211 246,210 246,194 246,173 246,149 246,141 246,138 246,127 246,121 246,120 246,118 246,88 246,87 246,81 246,70 246,69 248,86 248,112 248,115 248,129 248,156 248,165 248,182 248,186 248,207 248,208 248,214 248,231 248,234 249,529 249,241 249,239 249,237 249,201 249,200 249,187 249,138 249,136 249,134 249,132 249,131 249,115 249,108 249,86 250,667 250,666 250,613 251,557 251,242 251,238 251,225 251,211 251,201 251,163 251,131 251,125 251,124 251,115 251,108 251,100 251,84 252,615 252,534 252,249 252,248 252,244 252,234 252,231 252,222 252,206 252,193 252,184 252,149 252,124 252,110 252,108 252,84 254,551 254,220 254,214 254,207 254,200 254,184 254,179 254,177 254,165 254,159 254,153 254,120 254,118 254,111 254,100 254,93 254,88 254,86 255,618 255,582 255,251 255,235 255,227 255,217 255,193 255,187 255,176 255,172 255,139 255,124 255,120 255,90 256,548 256,536 256,261 256,227 256,220 256,201 256,189 256,186 256,170 256,163 256,153 256,135 256,118 256,108 256,77 258,252 258,246 258,245 258,237 258,230 258,224 258,220 258,193 258,184 258,149 258,132 258,121 258,101 258,100 258,98 258,90 258,83 259,605 259,603 259,571 259,548 259,540 259,523 259,254 259,246 259,242 259,225 259,215 259,186 259,141 259,138 259,117 259,111 259,100 259,80 261,248 261,241 261,230 261,227 261,211 261,200 261,186 261,167 261,162 261,135 261,129 261,120 261,108 261,101 261,96 261,91 261,87 262,603 262,553 262,242 262,213 262,193 262,190 262,189 262,182 262,175 262,132 262,122 262,111 262,110 262,104 262,100 263,558 263,234 263,231 263,210 263,172 263,165 263,159 263,155 263,142 263,141 263,129 263,127 263,103 263,86 263,81 264,607 265,251 265,241 265,231 265,230 265,227 265,220 265,218 265,207 265,201 265,198 265,190 265,170 265,159 265,146 265,122 266,575 266,553 266,249 266,228 266,213 266,190 266,182 266,172 266,166 266,124 266,121 266,103 266,96 268,256 268,254 268,245 268,214 268,203 268,198 268,187 268,186 268,184 268,167 268,152 268,121 268,111 268,110 268,108 268,86 268,84 269,554 269,252 269,249 269,239 269,221 269,200 269,191 269,162 269,134 269,98 269,94 269,88 269,84 269,81 270,252 270,238 270,227 270,220 270,215 270,201 270,200 270,169 270,158 270,153 270,142 270,135 270,128 270,125 270,107 270,84 270,79 272,256 272,255 272,248 272,241 272,230 272,224 272,190 272,170 272,152 272,131 272,127 272,118 272,108 272,97 273,242 273,208 273,204 273,182 273,179 273,156 275,258 275,244 275,232 275,215 275,200 275,115 275,91 275,86 276,348 276,347 276,262 276,258 276,256 276,225 276,213 276,198 276,191 276,186 276,146 276,141 276,118 276,110 276,83 276,74 277,255 277,252 277,242 277,235 277,232 277,211 277,193 277,170 277,125 277,79 277,76 279,256 279,255 279,225 279,203 279,196 279,183 279,179 279,175 279,167 279,163 279,149 279,143 279,129 279,84 279,76 280,237 280,204 280,177 280,172 280,162 280,122 280,110 280,84 280,76 282,261 282,252 282,241 282,220 282,196 282,193 282,180 282,169 282,165 282,129 282,120 282,114 282,86 283,262 283,259 283,249 283,248 283,238 283,235 283,232 283,207 283,206 283,201 283,189 283,186 283,163 283,158 283,153 283,149 283,143 285,259 285,251 285,232 285,210 285,196 285,184 285,143 285,118 285,107 285,104 285,101 285,87 285,72 286,262 286,255 286,230 286,201 286,186 286,166 286,163 286,156 286,148 286,143 286,131 286,127 286,97 286,72 287,258 287,248 287,239 287,201 287,190 287,189 287,169 287,153 287,152 287,135 289,262 289,248 289,245 289,242 289,241 289,220 289,214 289,210 289,207 289,203 289,198 289,186 289,167 289,160 289,159 289,131 289,129 289,110 289,108 289,90 289,84 289,83 290,255 290,251 290,241 290,211 290,173 290,160 290,156 290,155 290,149 290,135 290,81 290,80 292,256 292,232 292,224 292,220 292,215 292,210 292,203 292,193 292,184 292,165 292,163 292,152 292,134 292,129 292,127 292,122 292,118 292,114 292,96 292,84 293,265 293,230 293,221 293,218 293,217 293,184 293,167 293,121 293,86 294,255 294,251 294,248 294,213 294,207 294,156 294,128 294,124 294,105 296,261 296,238 296,228 296,191 296,184 296,182 296,177 296,162 296,156 296,145 296,136 296,134 296,124 296,115 296,114 296,107 296,84 296,53 297,387 297,255 297,252 297,246 297,228 297,214 297,197 297,177 297,176 297,122 297,121 297,87 297,60 299,268 299,235 299,208 299,196 299,193 299,169 299,152 299,148 299,122 299,111 299,103 299,57 300,373 300,371 300,217 300,215 300,214 300,210 300,156 300,114 300,55 300,52 301,269 301,254 301,251 301,248 301,242 301,237 301,232 301,221 301,153 301,108 301,83 301,81 301,53 303,266 303,256 303,252 303,249 303,248 303,191 303,182 303,166 303,158 303,52 304,371 304,369 304,272 304,266 304,255 304,232 304,231 304,221 304,194 304,193 304,190 304,189 304,169 304,163 304,142 304,141 304,108 304,86 304,80 306,273 306,262 306,261 306,249 306,246 306,237 306,231 306,222 306,200 306,197 306,184 306,167 306,142 306,121 306,70 306,63 306,55 307,373 307,369 307,268 307,251 307,244 307,224 307,217 307,208 307,158 307,128 307,105 307,104 307,97 307,80 309,373 309,372 309,276 309,273 309,269 309,268 309,248 309,220 309,170 309,152 309,139 309,124 309,105 309,67 309,60 310,375 310,373 310,279 310,272 310,266 310,255 310,235 310,234 310,231 310,211 310,191 310,190 310,182 310,179 310,173 310,143 310,134 310,128 310,120 310,94 310,79 311,371 311,262 311,249 311,241 311,221 311,201 311,190 311,179 311,117 311,105 311,70 311,67 311,52 313,268 313,251 313,232 313,204 313,197 313,196 313,190 313,189 313,176 313,159 313,139 313,115 313,73 313,57 313,53 314,371 314,299 314,282 314,275 314,270 314,231 314,225 314,222 314,213 314,203 314,197 314,179 314,172 314,134 314,103 314,93 314,84 314,81 314,77 314,57 314,53 316,372 316,371 316,273 316,263 316,259 316,249 316,221 316,218 316,217 316,213 316,177 316,172 316,103 316,83 316,72 317,369 317,368 317,310 317,306 317,287 317,269 317,268 317,246 317,237 317,218 317,214 317,191 317,190 317,167 317,124 317,91 317,70 317,60 318,371 318,270 318,254 318,238 318,235 318,231 318,227 318,207 318,183 318,155 318,127 318,122 318,121 318,97 318,94 318,90 318,80 318,69 320,369 320,310 320,307 320,301 320,297 320,294 320,286 320,276 320,275 320,241 320,228 320,222 320,215 320,208 320,206 320,176 320,98 320,97 320,96 320,93 320,86 320,84 320,70 320,69 321,369 321,314 321,292 321,280 321,269 321,265 321,238 321,211 321,184 321,176 321,173 321,172 321,156 321,132 321,115 321,96 321,91 321,77 321,72 321,59 323,299 323,292 323,290 323,286 323,273 323,234 323,221 323,189 323,148 323,138 323,128 323,124 324,368 324,364 324,318 324,309 324,283 324,259 324,254 324,252 324,251 324,227 324,217 324,214 324,198 324,183 324,177 324,165 324,162 324,145 324,125 324,124 324,93 324,91 324,79 324,74 325,365 325,313 325,268 325,263 325,259 325,208 325,175 325,170 325,167 325,141 325,138 325,128 325,67 325,60 327,368 327,366 327,320 327,311 327,307 327,282 327,273 327,262 327,255 327,242 327,227 327,225 327,222 327,221 327,218 327,214 327,200 327,184 327,177 327,173 327,169 327,152 327,134 327,121 327,77 327,59 328,323 328,309 328,276 328,275 328,270 328,259 328,232 328,218 328,208 328,198 328,196 328,187 328,163 328,139 328,93 328,59 330,310 330,300 330,289 330,272 330,265 330,263 330,237 330,214 330,211 330,207 330,193 330,190 330,187 330,182 330,158 330,77 330,39 330,31 331,354 331,282 331,276 331,262 331,227 331,225 331,222 331,175 331,121 331,118 331,98 332,306 332,297 332,270 332,259 332,238 332,222 332,218 332,198 332,141 332,135 332,125 332,53 332,52 334,358 334,351 334,332 334,325 334,316 334,293 334,290 334,276 334,265 334,261 334,259 334,242 334,220 334,201 334,189 334,146 334,76 334,74 334,39 335,359 335,356 335,338 335,311 335,307 335,301 335,293 335,283 335,249 335,239 335,231 335,214 335,196 335,194 335,183 335,180 335,173 335,160 335,143 335,139 335,103 335,77 335,63 335,49 335,41 335,29 337,358 337,301 337,294 337,290 337,285 337,276 337,275 337,269 337,251 337,245 337,227 337,222 337,217 337,214 337,194 337,193 337,191 337,145 337,136 337,131 337,111 337,63 337,52 338,348 338,309 338,297 338,273 338,263 338,245 338,242 338,235 338,228 338,221 338,214 338,206 338,198 338,175 338,159 338,151 338,131 338,45 338,38 340,354 340,317 340,306 340,304 340,301 340,300 340,293 340,290 340,283 340,269 340,266 340,220 340,215 340,213 340,207 340,201 340,200 340,177 340,166 340,129 340,77 340,53 340,42 340,29 341,354 341,349 341,338 341,321 341,320 341,307 341,239 341,235 341,225 341,206 341,196 341,183 341,129 341,107 341,81 341,55 341,28 342,348 342,332 342,316 342,309 342,303 342,294 342,287 342,282 342,280 342,237 342,200 342,191 342,166 342,149 342,70 342,39 344,341 344,325 344,317 344,311 344,306 344,300 344,224 344,221 344,217 344,201 344,200 344,196 344,191 344,189 344,159 344,84 345,294 345,276 345,275 345,272 345,269 345,262 345,252 345,248 345,245 345,241 345,235 345,231 345,203 345,187 345,186 345,183 345,165 345,101 345,74 345,45 347,345 347,317 347,266 347,265 347,238 347,237 347,235 347,198 347,162 347,125 347,100 347,91 347,69 348,356 348,314 348,310 348,294 348,279 348,272 348,218 348,194 348,175 348,132 348,124 348,107 348,96 348,93 348,73 348,69 348,45 349,354 349,301 349,293 349,242 349,201 349,189 349,184 349,167 349,146 349,135 349,132 349,117 349,98 349,93 349,73 349,69 349,57 351,337 351,328 351,311 351,307 351,306 351,303 351,286 351,283 351,282 351,272 351,269 351,265 351,238 351,220 351,217 351,215 351,211 351,207 351,206 351,200 351,167 351,149 351,91 351,72 352,335 352,324 352,317 352,297 352,280 352,277 352,258 352,231 352,218 352,214 352,207 352,172 352,153 352,141 352,93 352,90 352,73 354,359 354,351 354,347 354,321 354,303 354,296 354,293 354,259 354,221 354,213 354,189 354,179 354,165 354,120 354,96 354,94 354,87 354,53 355,358 355,309 355,285 355,283 355,266 355,265 355,248 355,241 355,227 355,200 355,198 355,197 355,194 355,175 355,160 355,138 355,104 355,87 355,63 355,52 355,45 356,362 356,356 356,307 356,304 356,294 356,293 356,287 356,272 356,269 356,263 356,262 356,254 356,245 356,232 356,215 356,213 356,203 356,200 356,193 356,186 356,167 356,146 356,132 356,122 356,114 356,83 356,50 358,361 358,355 358,337 358,334 358,301 358,294 358,268 358,230 358,217 358,206 358,190 358,183 358,170 358,142 358,139 358,118 358,72 359,366 359,355 359,324 359,321 359,318 359,310 359,279 359,276 359,263 359,245 359,208 359,198 359,194 359,187 359,159 359,158 359,145 359,139 359,136 359,79 359,49 359,48 361,371 361,365 361,358 361,239 361,227 361,213 361,194 361,179 361,173 361,163 361,153 361,149 361,139 361,108 361,107 361,98 361,56 362,361 362,352 362,318 362,316 362,301 362,292 362,263 362,231 362,225 362,220 362,217 362,214 362,207 362,206 362,200 362,193 362,183 362,143 362,132 362,125 362,107 362,98 362,65 364,359 364,331 364,327 364,310 364,300 364,286 364,256 364,251 364,215 364,214 364,203 364,198 364,187 364,151 364,110 364,97 364,96 364,70 364,48 364,38 365,406 365,372 365,365 365,364 365,358 365,348 365,304 365,300 365,292 365,289 365,286 365,282 365,265 365,254 365,251 365,221 365,211 365,146 365,143 365,136 365,96 366,359 366,354 366,347 366,317 366,299 366,296 366,294 366,275 366,272 366,270 366,249 366,244 366,241 366,222 366,215 366,211 366,210 366,197 366,193 366,191 366,189 366,186 366,131 366,46 366,39 368,406 368,355 368,347 368,313 368,311 368,300 368,283 368,269 368,268 368,263 368,248 368,227 368,218 368,211 368,206 368,196 368,189 368,184 368,149 368,139 368,138 368,91 368,57 368,56 368,36 369,330 369,323 369,287 369,276 369,245 369,228 369,221 369,218 369,217 369,215 369,198 369,156 369,152 369,145 369,136 369,121 369,101 369,96 369,90 369,41 371,311 371,307 371,304 371,297 371,286 371,276 371,272 371,259 371,237 371,207 371,176 371,172 371,153 371,121 371,114 371,94 371,93 371,55 371,43 372,365 372,362 372,354 372,351 372,342 372,340 372,321 372,317 372,277 372,276 372,263 372,261 372,245 372,242 372,235 372,230 372,228 372,222 372,184 372,183 372,143 372,139 372,98 372,86 372,53 372,35 373,376 373,364 373,361 373,358 373,356 373,354 373,334 373,331 373,318 373,309 373,286 373,279 373,258 373,252 373,238 373,237 373,228 373,222 373,214 373,211 373,190 373,179 373,112 373,97 373,93 373,45 375,338 375,318 375,307 375,299 375,276 375,259 375,258 375,244 375,235 375,227 375,224 375,213 375,207 375,204 375,176 375,167 375,160 375,152 375,143 375,135 375,134 375,129 375,120 375,117 375,91 375,52 375,43 376,345 376,327 376,301 376,290 376,283 376,246 376,242 376,235 376,222 376,218 376,177 376,175 376,165 376,162 376,156 376,148 376,139 376,132 376,114 376,111 376,105 376,90 376,66 376,65 376,60 378,354 378,345 378,330 378,324 378,313 378,306 378,303 378,285 378,273 378,272 378,265 378,262 378,256 378,248 378,244 378,238 378,234 378,231 378,227 378,220 378,210 378,206 378,197 378,193 378,190 378,184 378,180 378,176 378,173 378,158 378,153 378,131 378,108 378,90 378,84 378,62 378,43 379,327 379,320 379,311 379,301 379,285 379,283 379,282 379,277 379,275 379,273 379,261 379,244 379,224 379,215 379,204 379,201 379,182 379,179 379,162 379,151 379,111 379,80 379,66 379,62 380,379 380,354 380,349 380,303 380,299 380,293 380,292 380,285 380,283 380,276 380,261 380,256 380,251 380,242 380,232 380,221 380,213 380,211 380,204 380,183 380,163 380,149 380,145 380,131 380,125 380,112 380,104 380,83 380,70 380,60 380,41 382,385 382,379 382,362 382,349 382,340 382,331 382,320 382,314 382,299 382,297 382,266 382,262 382,249 382,246 382,238 382,228 382,227 382,218 382,215 382,206 382,191 382,187 382,169 382,156 382,135 382,104 382,101 382,80 383,359 383,354 383,317 383,314 383,310 383,300 383,299 383,296 383,276 383,270 383,241 383,232 383,230 383,221 383,206 383,176 383,172 383,158 383,149 383,145 383,143 383,139 383,118 383,117 383,115 383,72 385,359 385,344 385,320 385,317 385,303 385,270 385,265 385,251 385,228 385,221 385,204 385,200 385,184 385,182 385,162 385,141 385,138 385,128 385,117 385,104 385,98 385,90 385,73 385,62 385,53 386,390 386,376 386,371 386,369 386,359 386,328 386,325 386,307 386,297 386,287 386,283 386,266 386,262 386,252 386,245 386,230 386,220 386,211 386,179 386,177 386,166 386,153 386,152 386,146 386,120 386,114 386,93 386,57 386,45 387,338 387,324 387,309 387,299 387,290 387,265 387,263 387,258 387,256 387,248 387,246 387,238 387,207 387,194 387,191 387,183 387,167 387,156 387,135 387,131 387,108 387,103 387,93 387,70 387,63 387,43 387,25 389,26 389,28 389,77 389,115 389,132 389,136 389,139 389,162 389,165 389,183 389,187 389,228 389,230 389,232 389,241 389,249 389,255 389,261 389,292 389,293 389,307 389,352 389,372 389,389 389,400 390,341 390,335 390,323 390,318 390,317 390,309 390,300 390,299 390,293 390,289 390,280 390,269 390,221 390,218 390,214 390,200 390,190 390,186 390,180 390,179 390,162 390,158 390,155 390,142 390,131 390,129 390,122 390,121 390,110 390,48 390,39 390,33 392,362 392,289 392,263 392,256 392,249 392,246 392,244 392,239 392,225 392,196 392,186 392,183 392,173 392,169 392,159 392,151 392,132 392,117 392,98 392,87 392,36 393,399 393,376 393,345 393,328 393,327 393,324 393,292 393,287 393,282 393,262 393,251 393,230 393,194 393,186 393,166 393,163 393,148 393,142 393,124 393,105 393,101 393,52 395,334 395,327 395,307 395,292 395,289 395,249 395,246 395,245 395,235 395,222 395,218 395,213 395,191 395,184 395,155 395,143 395,127 395,115 395,100 395,87 395,74 395,70 395,63 395,38 396,330 396,316 396,287 396,263 396,241 396,234 396,224 396,215 396,186 396,183 396,180 396,177 396,169 396,148 396,142 396,141 396,134 396,132 396,128 396,121 396,90 396,60 396,59 396,29 396,21 397,362 397,341 397,340 397,318 397,292 397,283 397,263 397,251 397,244 397,239 397,224 397,211 397,200 397,196 397,156 397,149 397,141 397,127 397,115 397,105 397,100 397,94 397,91 397,56 397,55 399,352 399,340 399,335 399,334 399,332 399,331 399,327 399,292 399,285 399,276 399,266 399,254 399,241 399,237 399,231 399,214 399,213 399,207 399,197 399,194 399,184 399,170 399,153 399,148 399,142 399,136 399,112 399,103 399,80 399,62 400,403 400,376 400,375 400,369 400,331 400,330 400,328 400,327 400,318 400,300 400,290 400,285 400,263 400,242 400,234 400,215 400,207 400,190 400,182 400,175 400,165 400,160 400,149 400,142 400,135 400,128 400,97 400,84 400,79 400,63 400,57 400,33 402,382 402,364 402,358 402,306 402,303 402,299 402,286 402,276 402,272 402,259 402,251 402,249 402,242 402,234 402,225 402,196 402,189 402,156 402,151 402,146 402,120 402,105 402,65 402,22 403,379 403,266 403,254 403,252 403,244 403,237 403,210 403,203 403,193 403,163 403,155 403,148 403,131 403,129 403,128 403,125 403,111 403,110 403,62 403,55 403,53 404,402 404,392 404,375 404,354 404,337 404,327 404,325 404,316 404,306 404,304 404,296 404,268 404,265 404,261 404,246 404,245 404,234 404,231 404,214 404,190 404,187 404,175 404,162 404,138 404,115 404,110 404,103 404,87 404,69 404,67 404,45 404,22 406,330 406,311 406,286 406,275 406,266 406,239 406,221 406,220 406,215 406,189 406,187 406,169 406,125 406,118 406,114 406,111 406,101 406,74 406,59 406,55 406,33 407,340 407,337 407,331 407,330 407,311 407,309 407,297 407,283 407,272 407,262 407,258 407,245 407,244 407,238 407,227 407,210 407,207 407,200 407,165 407,162 407,149 407,141 407,139 407,134 407,110 407,56 407,26 407,24 407,21 409,375 409,362 409,354 409,352 409,293 409,283 409,238 409,231 409,224 409,211 409,186 409,176 409,173 409,159 409,141 409,138 409,69 409,53 410,402 410,400 410,399 410,369 410,354 410,348 410,337 410,323 410,292 410,290 410,287 410,272 410,262 410,252 410,241 410,235 410,230 410,228 410,218 410,215 410,214 410,193 410,184 410,166 410,146 410,136 410,132 410,129 410,125 410,124 410,120 410,117 410,112 410,110 410,105 410,66 410,63 410,48 410,32 410,24 411,364 411,341 411,325 411,287 411,276 411,269 411,268 411,266 411,249 411,246 411,234 411,228 411,227 411,187 411,184 411,160 411,134 411,118 411,117 411,112 411,55 411,25 411,24 411,22 413,406 413,306 413,296 413,294 413,289 413,269 413,235 413,222 413,191 413,190 413,155 413,152 413,143 413,122 413,112 413,101 413,94 413,74 413,56 413,31 414,393 414,376 414,369 414,365 414,356 414,338 414,304 414,294 414,290 414,276 414,270 414,265 414,255 414,220 414,197 414,196 414,180 414,179 414,176 414,167 414,153 414,151 414,139 414,127 414,118 414,110 414,87 414,15 416,400 416,392 416,371 416,362 416,348 416,341 416,283 416,238 416,235 416,215 416,203 416,197 416,143 416,134 416,132 416,121 416,120 416,107 416,103 416,63 416,52 416,25 417,403 417,380 417,371 417,332 417,330 417,323 417,320 417,290 417,287 417,261 417,258 417,251 417,232 417,208 417,194 417,189 417,186 417,184 417,183 417,159 417,142 417,135 417,132 417,112 417,110 417,100 417,94 417,72 417,55 417,14 419,365 419,359 419,338 419,337 419,331 419,320 419,303 419,301 419,293 419,277 419,265 419,254 419,200 419,197 419,191 419,187 419,183 419,182 419,167 419,124 419,66 419,59 420,379 420,375 420,373 420,362 420,341 420,318 420,317 420,307 420,294 420,290 420,282 420,225 420,222 420,221 420,220 420,213 420,207 420,198 420,182 420,165 420,159 420,155 420,149 420,134 420,131 420,129 420,128 420,120 420,114 420,62 420,41 420,29 421,361 421,355 421,332 421,316 421,300 421,270 421,258 421,254 421,228 421,206 421,196 421,187 421,180 421,177 421,175 421,165 421,141 421,128 421,118 421,110 421,108 421,94 421,48 421,42 423,373 423,365 423,359 423,314 423,282 423,279 423,242 423,238 423,232 423,183 423,162 423,159 423,151 423,146 423,143 423,139 423,117 423,112 423,108 423,101 423,50 423,48 423,31 423,26 423,18 424,409 424,366 424,321 424,317 424,316 424,306 424,301 424,299 424,286 424,266 424,239 424,225 424,221 424,215 424,201 424,200 424,180 424,156 424,153 424,134 424,107 424,65 426,317 426,218 426,208 426,184 426,176 426,175 426,162 426,151 426,142 426,118 426,115 426,111 426,110 426,105 426,103 426,101 426,97 426,93 426,88 426,72 426,48 426,42 426,36 426,18 427,407 427,349 427,331 427,316 427,313 427,311 427,304 427,296 427,275 427,265 427,256 427,255 427,249 427,245 427,242 427,228 427,218 427,206 427,193 427,189 427,183 427,179 427,159 427,146 427,139 427,138 427,121 427,117 427,80 427,35 427,28 427,17 428,372 428,366 428,358 428,327 428,303 428,301 428,242 428,235 428,228 428,213 428,206 428,200 428,197 428,180 428,176 428,128 428,124 428,118 428,36 430,397 430,378 430,366 430,365 430,318 430,304 430,293 430,285 430,261 430,211 430,204 430,203 430,175 430,170 430,163 430,156 430,149 430,120 430,111 430,72 430,67 430,38 430,35 431,383 431,362 431,340 431,259 431,231 431,230 431,215 431,210 431,193 431,191 431,190 431,182 431,176 431,169 431,152 431,139 431,136 431,135 431,132 431,128 431,125 431,111 431,103 431,100 431,65 431,63 431,38 431,33 431,31 431,29 433,365 433,328 433,307 433,290 433,283 433,263 433,255 433,252 433,242 433,221 433,214 433,206 433,182 433,170 433,163 433,138 433,107 433,62 433,45 433,33 434,373 434,372 434,358 434,321 434,292 434,290 434,258 434,238 434,225 434,217 434,208 434,187 434,170 434,153 434,142 434,129 434,104 434,94 434,93 434,86 434,32 434,31 434,22 435,390 435,379 435,347 435,317 435,311 435,309 435,294 435,289 435,245 435,220 435,215 435,201 435,197 435,176 435,166 435,165 435,160 435,139 435,132 435,128 435,124 435,114 435,98 435,59 437,378 437,335 437,251 437,248 437,241 437,235 437,230 437,210 437,200 437,190 437,186 437,167 437,158 437,153 437,105 437,86 437,73 437,59 437,45 437,43 437,31 438,416 438,397 438,375 438,341 438,331 438,330 438,245 438,239 438,237 438,230 438,225 438,207 438,187 438,186 438,177 438,175 438,165 438,163 438,145 438,142 438,132 438,129 438,122 438,108 438,104 438,103 438,100 438,94 438,50 440,395 440,382 440,373 440,361 440,330 440,307 440,292 440,289 440,249 440,232 440,231 440,222 440,213 440,200 440,191 440,183 440,167 440,156 440,148 440,110 440,94 440,91 440,63 440,52 441,426 441,316 441,301 441,269 441,266 441,210 441,204 441,200 441,186 441,182 441,177 441,166 441,159 441,151 441,128 441,100 441,97 442,427 443,428 443,327 443,323 443,309 443,304 443,299 443,276 443,242 443,241 443,238 443,220 443,213 443,208 443,189 443,187 443,163 443,158 443,151 443,138 443,134 443,125 443,121 443,112 443,105 443,76 443,59 443,21 444,431 444,397 444,389 444,379 444,369 444,364 444,354 444,341 444,325 444,313 444,311 444,310 444,294 444,293 444,285 444,246 444,235 444,224 444,193 444,191 444,184 444,182 444,173 444,163 444,160 444,159 444,145 444,101 444,84 444,29 445,432 445,428 445,393 445,383 445,309 445,290 445,287 445,282 445,237 445,215 445,211 445,208 445,207 445,201 445,197 445,194 445,175 445,173 445,166 445,165 445,158 445,153 445,142 445,139 445,135 445,129 445,118 445,117 445,111 445,98 445,97 445,84 447,434 447,356 447,331 447,324 447,320 447,231 447,217 447,211 447,207 447,203 447,197 447,183 447,176 447,162 447,132 447,128 447,122 447,120 447,100 447,69 448,402 448,380 448,375 448,368 448,321 448,304 448,248 448,232 448,227 448,220 448,203 448,201 448,200 448,190 448,175 448,170 448,153 448,138 448,114 448,111 448,105 448,97 448,94 448,56 448,52 448,31 450,364 450,327 450,321 450,320 450,317 450,316 450,310 450,266 450,258 450,244 450,241 450,228 450,224 450,204 450,198 450,177 450,172 450,160 450,145 450,125 450,56 451,414 451,406 451,359 451,355 451,340 451,332 451,320 451,307 451,303 451,246 451,194 451,183 451,170 451,131 451,120 451,115 451,107 451,97 451,66 451,60 451,46 451,32 452,423 452,392 452,390 452,313 452,241 452,238 452,190 452,167 452,146 452,139 452,138 452,127 452,110 452,81 452,67 452,49 452,38 452,18 454,424 454,362 454,340 454,332 454,314 454,313 454,310 454,268 454,235 454,221 454,204 454,203 454,172 454,165 454,162 454,159 454,155 454,124 454,117 454,105 454,104 454,98 454,93 454,73 454,31 455,379 455,373 455,342 455,324 455,282 455,254 455,227 455,217 455,214 455,198 455,165 455,158 455,129 455,101 455,57 455,25 455,21 457,368 457,361 457,344 457,337 457,327 457,317 457,313 457,282 457,277 457,272 457,259 457,249 457,245 457,242 457,237 457,221 457,200 457,197 457,184 457,169 457,143 457,138 457,129 457,108 457,104 457,96 457,77 457,33 458,323 458,297 458,277 458,275 458,251 458,246 458,235 458,165 458,159 458,152 458,145 458,129 458,121 458,100 458,96 458,66 458,60 458,32 459,251 459,222 459,220 459,170 459,158 459,121 459,107 459,101 459,96 459,79 459,62 460,63 460,71 460,122 460,127 460,132 460,150 460,75 460,92 460,96 460,36 460,35 461,12 464,33 465,18 471,24 471,10 475,28 479,28 479,101 479,172 479,102 479,100 479,181 479,189 479,81 479,67 479,221 479,113 479,171 479,208 479,107 479,135 479,124 479,89 479,121 479,76 479,104 479,138 479,204 479,224 479,248 479,235 479,259 479,193 479,86 479,34 480,25 480,79 480,103 480,189 480,127 480,210 480,220 480,212 480,141 480,195 480,89 480,147 480,177 480,231 480,93 480,235 480,265 481,260 481,217 481,169 481,167 481,93 481,106 481,205 481,251 481,62 481,63 481,184 481,242 481,175 481,94 481,213 481,119 481,52 482,255 482,249 482,218 482,198 482,180 482,117 482,248 482,200 482,105 482,174 482,199 482,140 482,234 482,171 482,97 482,99 482,63 483,261 483,247 483,245 483,235 483,170 483,163 483,143 483,141 483,134 483,114 483,112 483,98 483,97 483,85 483,83 483,82 483,53 483,36 484,62 484,65 484,108 484,171 484,111 484,121 484,125 484,167 484,226 484,124 484,85 484,165 484,88 484,76 484,75 484,196 484,164 484,228 484,266 485,81 485,253 485,230 485,262 485,235 485,167 485,96 485,186 485,121 485,195 485,265 485,259 485,260 485,113 485,100 485,86 485,75 485,64 485,38 486,37 486,72 486,186 486,136 486,194 486,94 486,108 486,125 486,245 486,248 486,249 486,256 486,232 486,130 486,83 486,78 486,157 486,106 486,173 486,76 487,83 487,155 487,140 487,126 487,124 487,259 487,130 487,235 487,122 487,254 487,120 487,93 487,102 487,175 487,86 488,69 488,75 488,108 488,151 488,114 488,92 488,110 488,115 488,136 488,266 488,240 488,194 488,189 488,186 488,91 488,97 488,137 488,62 489,67 489,97 489,36 491,40 491,60 492,41 495,49 504,48 504,94 504,81 504,118 504,95 505,49 505,128 505,61 505,60 506,75 506,99 506,51 506,50 507,56 507,82 507,109 507,267 508,49 508,100 508,91 508,62 508,92 508,110 508,124 508,136 508,142 509,262 509,125 509,121 509,114 509,111 509,107 509,82 509,103 509,63 510,50 510,90 510,92 510,59 510,117 510,99 510,121 510,122 510,132 510,272 510,273 510,277 510,292 510,293 510,306 510,340 510,379 510,399 510,406 510,417 510,454 511,88 511,97 511,111 511,116 511,101 511,123 511,102 511,131 511,264 512,268 512,107 512,103 512,101 512,88 512,82 512,46 513,97 513,111 513,118 513,125 513,129 514,45 514,99 514,104 514,85 514,113 514,115 514,132 514,140 515,106 515,92 515,85 516,50 517,50 518,50 521,50 521,80 521,79 521,72 521,104 521,113 521,117 522,106 522,77 523,59 523,82 523,105 523,114 523,127 523,276 523,317 523,327 523,335 523,347 523,358 523,362 523,364 523,365 523,376 523,382 523,392 523,404 523,407 523,416 523,419 523,454 523,483 523,761 524,81 524,82 524,83 524,116 524,119 524,469 524,445 524,444 524,431 524,430 524,419 524,396 524,395 524,386 524,382 524,366 524,354 524,351 524,344 524,330 524,327 524,275 524,272 524,270 524,115 525,136 525,120 525,109 525,104 525,92 525,99 525,66 525,48 531,48 531,64 531,98 532,53 532,55 532,58 532,100 532,109 533,107 533,105 533,106 533,104 533,97 533,83 533,94 533,99 533,91 533,72 533,81 533,89 533,57 533,51 534,108 534,101 534,68 534,67 534,64 534,60 534,54 534,55 534,53 536,53 536,76 536,80 536,87 536,92 536,117 537,77 537,109 537,79 537,101 537,84 537,118 537,115 537,119 538,110 538,92 538,75 539,107 539,106 539,91 539,97 539,104 539,71 539,64 540,120 540,115 540,104 540,61 541,113 541,107 541,111 541,98 541,105 541,103 541,81 541,80 542,65 542,83 542,87 542,90 542,97 542,100 543,124 543,116 543,110 543,105 543,112 543,91 543,108 543,55 543,56 543,54 544,120 544,118 544,114 544,101 544,82 544,106 544,62 544,64 544,96 544,58 544,51 545,122 545,110 545,85 545,89 545,79 545,103 545,54 546,53 546,102 546,116 546,92 546,93 546,107 546,64 546,61 546,54 546,59 546,57 546,118 546,124 547,58 547,83 547,96 547,94 547,109 547,112 547,306 547,375 547,383 547,386 547,387 547,392 547,403 547,417 547,424 547,426 547,428 547,438 547,448 547,475 547,488 547,489 548,61 548,67 548,111 548,82 548,72 548,91 548,106 548,66 548,122 548,125 548,293 548,294 548,297 548,301 548,311 548,314 548,317 548,331 548,332 548,347 548,349 548,355 548,364 548,366 548,368 548,376 548,378 548,382 548,383 548,399 548,411 548,427 548,479 549,68 549,111 549,83 549,119 549,88 549,126 550,782 550,448 550,435 550,420 550,417 550,414 550,396 550,386 550,341 550,321 550,313 550,111 550,103 550,93 550,83 550,80 550,68 550,58 550,95 550,52 551,52 551,112 551,76 551,82 551,74 551,71 551,113 551,116 551,124 551,292 551,311 551,314 551,335 551,342 551,347 551,358 551,369 551,375 551,378 551,396 551,404 551,419 551,431 551,471 551,502 551,763 551,780 552,57 552,70 552,72 552,66 552,86 552,84 552,90 552,96 552,100 552,91 552,102 552,104 553,784 553,763 553,498 553,493 553,430 553,382 553,373 553,366 553,355 553,354 553,347 553,338 553,323 553,313 553,304 553,296 553,294 553,289 553,128 553,118 553,111 553,95 553,58 553,126 553,110 553,74 553,56 554,53 554,79 554,56 554,101 554,80 554,88 554,104 554,111 554,297 554,310 554,313 554,324 554,345 554,375 554,376 554,378 554,383 554,389 554,392 554,395 554,414 554,416 554,419 554,437 554,500 554,771 555,81 555,84 555,92 555,114 555,317 555,325 555,327 555,328 555,356 555,361 555,372 555,376 555,404 555,416 555,417 555,420 556,63 556,92 556,67 556,80 556,70 556,75 556,95 556,100 556,110 557,785 557,459 557,428 557,420 557,406 557,390 557,387 557,386 557,362 557,348 557,341 557,330 557,311 557,300 557,296 557,292 557,88 557,87 557,84 557,81 557,63 557,76 557,62 558,778 558,763 558,496 558,455 558,447 558,420 558,417 558,387 558,351 558,349 558,334 558,324 558,318 558,314 558,297 558,293 558,118 558,114 558,97 558,93 558,83 558,101 558,81 558,64 559,61 559,77 559,88 559,103 559,112 560,798 560,764 560,716 560,450 560,423 560,406 560,396 560,393 560,383 560,382 560,361 560,341 560,340 560,337 560,324 560,316 560,309 560,294 560,115 560,88 560,113 560,82 560,106 560,76 561,498 561,430 561,428 561,423 561,419 561,400 561,395 561,383 561,368 561,340 561,309 561,307 561,301 561,117 561,110 561,90 561,99 561,84 561,64 561,87 561,59 562,61 562,76 562,103 562,98 562,96 562,64 562,84 562,75 562,97 562,91 562,112 562,114 562,481 562,454 562,430 562,428 562,424 562,409 562,399 562,395 562,389 562,385 562,382 562,380 562,379 562,354 562,342 562,292 563,66 563,81 563,80 563,79 563,83 563,85 563,75 563,91 563,102 564,100 564,104 564,122 564,119 564,107 564,307 564,323 564,354 564,375 564,382 564,383 564,387 564,392 564,403 564,413 564,414 564,420 564,428 564,431 564,469 564,486 564,761 565,808 565,498 565,420 565,407 565,402 565,397 565,392 565,383 565,379 565,378 565,344 565,325 565,321 565,85 565,95 565,104 565,79 565,88 565,55 566,76 566,81 566,98 566,87 566,84 566,101 566,102 567,818 567,802 567,427 567,410 567,409 567,407 567,406 567,404 567,400 567,392 567,382 567,380 567,373 567,364 567,345 567,341 567,324 567,301 567,117 567,102 567,91 567,82 567,75 568,816 568,811 568,809 568,775 568,768 568,765 568,760 568,758 568,437 568,435 568,413 568,410 568,407 568,406 568,404 568,392 568,386 568,380 568,371 568,354 568,335 568,303 568,77 568,108 568,79 568,74 568,100 568,107 568,66 568,65 569,57 569,59 569,80 569,105 569,311 569,349 569,356 569,359 569,364 569,372 569,393 569,396 569,400 569,402 569,404 569,409 569,430 569,431 569,767 569,791 570,112 570,108 570,86 570,78 570,67 570,64 570,62 570,90 570,102 570,106 570,80 570,96 570,97 570,99 570,61 571,60 571,75 571,64 571,82 571,87 571,84 571,92 571,98 571,83 571,100 571,110 571,299 571,301 571,325 571,355 571,368 571,385 571,386 571,400 571,402 571,407 571,437 571,478 572,62 572,76 572,81 572,97 572,297 572,303 572,311 572,323 572,337 572,347 572,356 572,358 572,359 572,366 572,385 572,393 572,402 572,411 572,427 572,433 572,438 572,451 572,474 572,482 572,758 572,768 573,103 573,77 573,89 573,97 573,85 573,55 576,56 581,55 585,55 596,54 601,56 601,120 602,117 603,118 603,120 604,118 604,123 605,123 606,123 606,122 606,120 609,122 611,122 612,496 612,469 612,466 612,438 612,392 612,389 612,382 612,373 612,371 612,347 612,344 612,340 612,132 612,128 612,127 613,822 613,797 613,784 613,479 613,465 613,462 613,428 613,387 613,380 613,368 613,134 613,129 613,127 614,131 614,126 614,124 615,815 615,805 615,802 615,509 615,489 615,483 615,455 615,443 615,433 615,427 615,423 615,421 615,383 615,368 615,359 615,132 615,131 615,130 615,129 615,127 616,830 616,544 616,505 616,496 616,474 616,468 616,465 616,404 616,351 617,128 617,129 617,130 617,354 617,364 617,371 617,386 617,402 617,414 617,417 617,443 617,466 617,469 617,472 617,500 619,791 619,512 619,499 619,488 619,481 619,478 619,474 619,469 619,468 619,445 619,427 619,419 619,406 619,392 619,383 619,373 619,359 619,356 619,131 620,788 620,512 620,499 620,490 620,489 620,481 620,466 620,437 620,417 620,386 622,830 622,809 622,475 622,469 622,433 622,392 622,390 622,387 622,369 622,362 623,775 623,519 623,503 623,496 623,457 623,455 623,448 624,507 624,499 624,493 624,407 624,373 626,778 626,506 626,489 626,483 626,472 626,387 626,382 627,819 627,505 627,503 627,498 627,496 627,493 627,475 627,472 627,458 627,443 627,433 627,417 627,410 627,406 627,397 627,396 629,791 629,781 629,544 629,495 629,481 629,419 629,395 630,808 630,777 630,503 630,500 630,493 630,482 630,472 630,414 630,379 632,816 632,811 632,802 632,794 632,792 632,516 632,510 632,509 632,496 632,493 632,481 632,417 632,410 632,403 633,538 633,537 633,516 633,506 633,502 633,499 633,476 633,475 633,472 633,469 633,435 633,416 633,402 634,823 634,537 634,521 634,505 634,500 634,486 634,478 634,476 634,466 634,413 634,386 636,836 636,798 636,792 636,540 636,496 636,469 636,450 637,798 637,794 637,471 637,465 637,400 637,397 637,390 637,389 637,122 639,795 639,513 639,488 639,476 639,466 640,825 640,816 640,521 640,471 640,462 640,416 640,396 641,777 641,538 641,502 641,499 641,461 641,419 641,393 643,811 643,799 643,774 643,537 643,523 643,493 643,483 644,534 644,533 644,530 644,516 644,502 644,496 644,488 644,462 644,421 644,420 644,411 646,829 646,536 646,529 646,527 646,524 646,523 646,521 646,513 646,505 646,489 646,485 646,465 646,450 646,445 646,437 646,416 647,560 647,537 647,536 647,506 647,475 647,431 647,421 647,406 647,397 648,844 648,560 648,536 648,530 648,529 648,503 648,489 648,471 648,462 648,459 648,450 648,444 648,427 648,419 648,410 648,400 650,854 650,802 650,536 650,534 650,527 650,512 650,506 650,490 650,485 650,459 650,447 650,440 650,413 651,812 651,811 651,531 651,530 651,529 651,526 651,516 651,503 651,498 651,451 653,517 653,514 653,505 653,502 653,474 653,444 653,411 653,406 653,402 654,849 654,534 654,526 654,517 654,514 654,447 654,444 654,441 654,433 654,427 654,416 654,413 655,785 655,514 655,506 655,499 655,474 655,472 655,437 655,423 655,416 655,411 657,555 657,534 657,529 657,519 657,516 657,507 657,503 657,493 657,475 657,471 657,468 657,464 657,438 657,424 658,795 658,557 658,538 658,534 658,475 658,445 658,444 658,433 660,836 660,828 660,781 660,554 660,536 660,526 660,514 660,512 660,509 660,506 660,434 660,416 660,414 661,847 661,555 661,553 661,533 661,530 661,519 661,513 661,510 661,492 661,464 661,458 661,441 661,438 661,430 661,424 661,423 661,417 663,553 663,533 663,523 663,503 663,493 663,478 663,434 663,423 663,420 663,413 663,411 664,550 664,529 664,514 664,495 664,455 664,454 664,420 664,417 664,414 665,836 665,553 665,533 665,527 665,514 665,509 665,466 665,441 667,825 667,527 667,516 667,479 667,471 667,465 667,462 667,431 668,821 668,809 668,780 668,773 668,541 668,540 668,538 668,534 668,500 668,496 668,465 670,788 670,540 670,519 670,510 670,498 670,479 670,452 670,437 670,416 671,825 671,791 671,536 671,530 671,520 671,514 671,509 671,498 671,493 671,482 671,457 671,437 671,423 672,870 672,833 672,548 672,543 672,512 672,468 672,464 672,444 674,821 674,799 674,554 674,545 674,526 674,519 674,513 674,503 674,498 674,495 674,450 674,421 675,853 675,825 675,727 675,526 675,519 675,506 675,469 675,435 677,788 677,727 677,554 677,514 677,476 677,471 677,450 677,433 677,424 678,815 678,813 678,771 678,541 678,531 678,530 678,529 678,519 678,481 678,448 678,426 679,794 679,789 679,538 679,519 679,500 679,462 679,451 681,832 681,828 681,813 681,809 681,771 681,551 681,543 681,537 681,516 681,512 681,500 681,488 681,464 681,427 682,867 682,805 682,771 682,770 682,548 682,544 682,531 682,527 682,526 682,520 682,516 682,509 682,499 682,448 682,443 684,819 684,770 684,533 684,510 684,509 685,792 685,774 685,771 685,768 685,544 685,507 685,493 685,482 685,466 685,440 685,431 687,842 687,822 687,804 687,543 687,541 687,538 687,498 687,459 688,878 688,857 688,847 688,828 688,822 688,774 688,770 688,540 688,537 688,520 688,514 688,489 688,464 688,458 688,447 689,843 689,799 689,794 689,789 689,765 689,516 689,486 689,482 689,469 691,849 691,802 691,770 691,768 691,550 691,529 691,524 691,523 691,519 691,498 691,472 691,462 691,457 691,433 692,837 692,833 692,812 692,774 692,761 692,544 692,537 692,527 692,526 692,520 692,517 692,516 692,474 694,871 694,794 694,773 694,770 694,540 694,538 694,524 694,519 694,500 694,486 694,474 694,468 694,444 695,788 695,765 695,548 695,533 695,530 695,517 695,516 695,514 696,864 696,856 696,837 696,830 696,818 696,792 696,770 696,768 696,765 696,727 696,551 696,541 696,531 696,519 696,492 696,479 696,469 696,464 696,454 698,839 698,829 698,773 698,729 698,524 699,821 699,804 699,794 699,763 699,726 699,529 699,523 699,490 699,481 701,849 701,839 701,835 701,768 701,544 701,534 701,531 701,520 701,519 701,505 701,459 701,435 702,806 702,761 702,545 702,530 702,472 703,853 703,830 703,808 703,792 703,768 703,765 703,764 703,553 703,529 703,527 703,524 703,517 703,507 703,496 705,854 705,835 705,812 705,771 705,767 705,763 705,550 705,479 706,733 706,531 706,517 706,457 706,444 708,864 708,850 708,832 708,829 708,732 708,545 709,876 709,802 709,785 709,781 709,768 709,765 709,763 709,737 709,736 709,582 709,521 709,440 710,866 710,863 710,816 710,782 710,764 710,734 710,547 710,524 710,488 710,465 710,464 712,877 712,842 712,770 712,586 712,547 712,527 712,523 712,492 712,471 712,462 713,836 713,781 713,774 713,771 713,764 713,586 713,529 713,517 713,513 713,493 713,458 713,437 715,880 715,849 715,837 715,808 715,771 715,763 715,585 715,584 715,581 715,551 715,550 715,536 715,534 715,520 715,513 715,448 716,874 716,861 716,847 716,588 716,581 716,527 716,524 716,499 716,441 718,878 718,856 718,829 718,812 718,765 718,591 718,589 718,586 718,584 718,582 718,581 718,579 718,576 718,575 719,880 719,857 719,816 719,813 719,806 719,770 719,578 719,576 719,555 719,521 720,868 720,839 720,585 720,571 720,531 720,524 720,509 720,496 720,468 722,883 722,877 722,818 722,805 722,802 722,798 722,780 722,775 722,591 722,572 722,550 722,513 722,490 723,861 723,811 723,809 723,808 723,770 723,765 723,550 723,527 723,485 723,482 723,479 723,476 723,472 723,471 725,813 725,804 725,798 725,792 725,789 725,784 725,774 725,585 725,584 725,576 725,564 725,561 726,853 726,592 726,579 726,454 727,844 727,812 727,768 727,588 727,526 727,500 727,450 729,847 729,836 729,811 729,799 729,774 729,771 729,764 729,763 729,709 729,595 729,569 729,533 729,517 729,502 729,495 730,805 730,797 730,795 730,794 730,770 730,767 730,761 730,581 730,564 730,544 730,526 730,520 730,512 730,493 732,842 732,788 732,763 732,560 732,540 732,517 733,799 733,777 733,765 733,763 733,757 733,708 733,595 733,593 733,576 733,565 733,551 733,548 734,778 734,761 734,760 734,592 734,579 734,569 734,519 734,507 736,777 736,761 736,557 736,503 736,450 737,788 737,778 737,777 737,763 737,761 737,603 737,596 737,595 737,593 737,589 737,585 737,579 737,512 737,464 739,784 739,593 739,585 739,540 739,514 739,490 740,777 740,775 740,761 740,760 740,600 740,599 740,593 740,571 740,567 740,558 740,538 740,537 740,471 742,777 742,763 742,595 742,578 742,576 742,572 742,568 742,533 742,507 742,500 742,479 743,764 743,763 743,599 743,595 743,557 743,448 744,777 744,761 744,758 744,602 744,576 744,561 744,534 744,530 746,764 746,763 746,758 746,605 746,509 746,503 746,464 747,764 747,598 747,592 747,551 747,536 747,498 747,495 749,763 749,761 749,591 749,589 749,558 750,756 750,754 750,598 750,560 750,540 750,490 751,756 751,557 751,553 751,455 753,763 753,595 753,569 754,765 754,764 754,761 754,760 754,754 754,602 754,568 754,543 756,765 756,764 756,763 756,757 756,555 757,765 757,761 757,760 757,758 757,756 757,599 757,551 757,510 758,760 758,599 758,595 758,578 758,574 758,537 758,521 760,761 760,599 760,592 760,585 760,560 761,529 761,505 761,483 761,451 763,753 763,598 763,465 764,754 764,595 765,593 765,584 765,495 767,760 767,757 767,600 767,596 767,591 767,560 767,553 768,771 768,767 768,763 768,757 768,543 768,540 768,521 770,777 770,774 770,757 770,603 770,557 770,538 770,529 770,526 771,770 771,768 771,765 771,761 771,758 771,599 771,588 771,545 771,544 771,540 771,524 773,771 773,767 773,764 773,761 773,615 773,608 773,584 774,765 774,764 774,760 774,754 774,609 774,544 774,538 774,536 775,777 775,765 775,757 775,608 775,571 775,500 775,486 775,462 777,777 777,600 777,540 777,530 778,774 778,768 778,760 778,754 778,608 778,603 778,596 778,498 780,774 780,756 780,754 780,622 780,558 780,502 781,777 781,753 781,751 781,619 781,612 782,777 782,774 782,613 782,574 782,564 782,531 784,634 784,530 785,765 785,749 785,719 785,567 785,534 785,496 785,485 787,753 787,742 787,723 787,639 787,608 787,464 788,767 788,764 788,760 788,753 788,751 788,750 788,743 788,726 788,725 788,633 788,630 788,624 788,619 788,585 788,582 788,543 788,464 788,444 789,773 789,751 789,747 789,744 789,740 789,722 789,720 789,718 789,617 789,499 789,471 791,771 791,770 791,756 791,739 791,734 791,718 791,627 791,623 791,617 791,615 791,562 791,550 792,775 792,736 792,729 792,727 792,726 792,718 792,610 792,544 794,747 794,743 794,740 794,736 794,729 794,719 794,644 794,600 794,483 794,445 795,774 795,754 795,742 795,739 795,734 795,729 795,727 795,726 795,609 795,567 797,713 797,644 797,639 797,616 797,613 797,608 797,605 797,581 797,557 797,527 798,750 798,725 798,723 798,639 798,615 798,600 798,592 798,540 799,778 799,749 799,746 799,716 799,715 799,655 799,654 799,637 799,634 799,609 799,608 799,602 799,599 801,775 801,750 801,749 801,743 801,715 801,641 801,639 801,610 801,557 802,774 802,770 802,743 802,723 802,722 802,716 802,665 802,644 802,643 802,640 802,632 802,608 804,763 804,742 804,739 804,736 804,722 804,719 804,718 804,679 804,677 804,675 804,674 804,671 804,644 804,613 804,586 805,773 805,763 805,737 805,734 805,726 805,678 805,675 805,668 805,609 805,593 805,591 805,548 805,524 805,492 806,767 806,743 806,736 806,732 806,725 806,722 806,720 806,716 806,682 806,679 806,675 806,600 806,560 808,761 808,723 808,719 808,679 808,658 808,651 808,647 808,644 809,715 809,684 809,678 809,658 809,657 809,651 809,648 809,647 809,643 809,632 809,608 809,605 809,582 811,688 811,663 811,660 811,639 811,595 811,593 811,574 811,565 811,490 812,713 812,694 812,692 812,685 812,681 812,678 812,665 812,664 812,653 812,647 812,623 812,609 812,608 812,596 812,582 812,572 812,448 895,517 897,529 899,559 899,529 899,520 900,571 900,558 901,557 901,547 901,521 902,566 902,565 902,555 903,571 904,569 904,567 905,567 905,540 908,572 908,531 909,537 912,540 914,536 926,551 932,544 935,553 936,572 936,564 942,551 943,560 945,567 953,571 963,551 967,565 969,572 971,584 972,565 983,574 983,567 984,567 984,575 986,581 986,571 987,605 987,586 987,578 988,570 988,589 988,593 988,608 988,615 990,581 991,593 991,585 991,578 993,610 993,609 993,599 993,596 993,595 993,593 993,582 993,574 994,619 994,612 994,581 995,620 995,619 995,616 995,605 995,603 995,602 995,599 995,589 997,613 997,608 997,593 998,609 998,599 1000,606 1000,605 1000,602 1000,596 1000,584 1010,593 1007,603 1005,598 1004,602 1002,596 1002,599 1002,600 1001,595 1001,603 1001,606 1001,613 998,612 998,615 998,616 997,616 997,617 997,620 997,623 984,620 984,596 984,581 981,581 981,585 981,592 981,593 981,600 981,606 981,612 980,581 978,595 978,572 977,581 977,593 977,612 976,579 976,595 976,598 976,610 974,608 974,600 974,578 974,572 973,575 973,598 969,600 967,582 966,602 966,594 964,571 964,578 943,576 933,574 923,576 922,557 921,574 919,561 915,564 915,568 915,571 915,572 912,574 911,543 911,558 911,574 908,574 902,572 894,684 894,688 894,694 892,524 892,534 892,674 892,688 892,692 891,674 891,675 891,694 890,516 890,658 890,661 890,684 890,691 888,658 888,670 888,681 888,692 888,694 888,698 887,671 887,682 887,684 887,695 885,654 884,665 884,672 884,699 883,520 883,655 883,675 881,650 881,668 881,674 881,688 880,554 880,658 880,660 880,665 878,531 878,648 878,670 878,674 878,681 878,682 877,553 877,660 876,516 876,520 876,661 876,670 876,677 876,695 874,648 874,655 874,665 874,692 873,519 873,569 873,653 873,685 873,695 871,650 871,675 871,679 870,510 870,664 870,682 870,688 870,696 868,530 868,647 868,651 868,675 868,685 868,687 867,667 867,670 867,677 866,521 866,575 866,668 866,670 866,682 866,685 864,664 864,668 864,679 864,681 864,687 864,695 864,698 863,510 863,531 863,640 863,643 863,646 863,653 863,654 863,668 863,681 863,698 861,507 861,519 861,557 861,655 861,657 861,672 861,694 860,640 859,640 859,667 859,695 857,517 857,585 857,692 857,701 856,513 856,521 856,572 856,639 856,640 856,646 856,648 856,668 856,696 854,537 854,640 854,641 854,651 854,696 854,701 854,703 853,664 853,665 852,639 852,641 852,653 852,671 852,675 852,685 852,695 852,702 850,653 850,657 850,665 850,682 850,684 850,692 849,505 849,516 849,550 849,675 849,689 849,698 849,702 849,708 847,524 847,610 847,612 847,640 847,648 847,658 847,675 847,689 847,692 847,694 847,699 847,708 846,517 846,582 846,639 846,640 846,670 846,696 846,703 846,727 846,734 844,513 844,537 844,562 844,574 844,709 844,710 844,718 843,548 843,603 843,616 843,617 843,657 843,663 843,670 843,694 843,699 843,710 843,718 843,722 843,742 842,592 842,637 842,643 842,648 842,655 842,670 842,679 842,684 842,722 842,725 840,558 840,599 840,639 840,655 840,665 840,684 840,712 840,713 840,739 839,512 839,598 839,639 839,644 839,653 839,665 839,689 839,694 839,701 839,720 837,585 837,608 837,613 837,619 837,633 837,647 837,692 837,695 837,703 837,740 836,565 836,627 836,648 836,689 836,710 836,712 836,732 836,740 835,574 835,634 835,637 835,687 835,695 835,719 835,739 833,498 833,509 833,537 833,591 833,674 833,685 833,694 833,699 833,702 833,705 833,706 833,715 833,718 833,730 833,737 832,636 832,647 832,657 832,660 832,677 832,687 832,689 832,701 832,708 832,719 832,749 830,555 830,596 830,619 830,629 830,653 830,684 830,695 830,722 830,733 829,626 829,629 829,640 829,672 829,684 829,685 829,694 829,703 829,715 829,720 829,744 828,602 828,629 828,633 828,688 828,689 828,719 828,722 828,739 826,599 826,616 826,624 826,636 826,641 826,664 826,665 826,667 826,670 826,679 826,685 826,687 826,692 826,706 826,708 826,723 826,726 826,739 826,746 826,750 825,624 825,634 825,648 825,663 825,665 825,671 825,675 825,679 825,691 825,698 825,706 825,709 825,712 825,729 825,747 823,603 823,609 823,630 823,664 823,668 823,677 823,734 823,747 823,751 823,753 822,495 822,503 822,553 822,615 822,627 822,647 822,653 822,655 822,670 822,674 822,682 822,684 822,703 822,709 822,715 822,722 822,744 822,751 821,620 821,639 821,685 821,688 821,710 821,751 819,565 819,584 819,586 819,609 819,627 819,660 819,670 819,671 819,672 819,678 819,694 819,698 819,708 819,722 819,751 819,756 818,543 818,560 818,624 818,668 818,670 818,679 818,685 818,691 818,702 818,730 818,744 818,750 816,670 816,701 816,713 816,727 816,753 815,599 815,602 815,664 815,672 815,689 815,692 815,727 815,749 815,761 813,561 813,591 813,610 813,663 813,716 812,723 812,729 812,730 812,737 812,746 812,750 811,753 811,756 811,760 811,768 809,767 809,773 806,771 806,777 805,778 804,780 802,781 797,782 792,780 791,781 785,781 781,778 780,782 773,780 756,767 753,771 750,771 749,773 749,777 746,780 744,780 743,780 743,782 740,785 739,854 733,852 732,852 729,863 725,887 716,883 713,884 706,878 701,884 696,883 691,884 682,881 677,876 672,874 665,870 627,832 626,837 622,836 622,842 610,835 610,787 610,482 610,475 610,454 610,437 610,382 610,348 610,133 610,130 610,128 609,830 609,488 609,482 609,478 609,431 609,414 609,410 609,386 609,385 609,383 609,382 609,368 609,362 609,352 609,132 609,126 609,125 609,129 608,125 608,132 608,331 608,373 608,379 608,386 608,410 608,464 608,479 608,490 608,492 608,782 606,826 606,821 606,498 606,469 606,445 606,440 606,428 606,426 606,424 606,387 606,376 606,372 606,371 606,366 606,364 606,356 606,349 606,327 606,124 605,846 605,499 605,466 605,464 605,423 605,396 605,393 605,392 605,390 605,380 605,378 605,375 605,133 605,132 603,826 603,777 603,500 603,479 603,476 603,417 603,410 603,385 603,378 603,376 603,375 603,372 603,368 603,323 603,121 602,498 602,489 602,427 602,421 602,411 602,396 602,393 602,379 602,378 602,376 602,371 602,365 602,358 602,354 602,332 602,324 600,818 600,781 600,483 600,475 600,468 600,465 600,464 600,423 600,417 600,393 600,392 600,379 600,373 600,372 600,325 600,324 600,316 600,118 600,117 599,792 599,777 599,476 599,434 599,416 599,396 599,392 599,390 599,385 599,366 599,347 599,311 599,117 599,84 598,787 598,486 598,471 598,458 598,433 598,416 598,407 598,396 598,395 598,393 598,387 598,385 598,383 598,380 598,375 598,373 598,372 598,371 598,368 598,358 598,345 598,323 598,317 598,116 598,100 598,85 596,826 596,500 596,498 596,475 596,472 596,464 596,461 596,448 596,395 596,393 596,392 596,390 596,380 596,371 596,358 596,345 596,325 596,307 595,823 595,802 595,475 595,421 595,417 595,416 595,414 595,386 595,385 595,382 595,376 595,371 595,349 595,344 595,338 595,318 595,316 595,307 595,118 595,116 595,103 594,55 594,57 594,107 594,117 594,504 593,499 593,447 593,431 593,420 593,416 593,413 593,410 593,396 593,387 593,359 593,355 593,348 593,344 593,340 593,321 593,108 593,114 593,107 593,104 593,85 593,86 593,87 592,833 592,782 592,503 592,481 592,474 592,472 592,464 592,454 592,416 592,414 592,387 592,382 592,379 592,378 592,365 592,361 592,358 592,351 592,348 592,341 592,337 592,325 592,324 592,321 592,304 592,502 592,110 592,83 592,58 591,90 591,303 591,307 591,313 591,347 591,361 591,366 591,380 591,382 591,390 591,469 591,471 590,86 590,90 590,117 589,830 589,826 589,816 589,782 589,773 589,767 589,466 589,452 589,450 589,441 589,417 589,416 589,392 589,375 589,373 589,364 589,362 589,355 589,351 589,345 589,337 589,116 589,115 589,85 589,88 589,100 589,104 589,83 589,82 589,109 588,91 588,108 588,113 588,332 588,356 588,358 588,364 588,383 588,385 588,387 588,407 588,413 588,414 588,426 588,450 588,475 588,479 587,92 587,112 587,103 587,119 587,116 587,113 587,123 586,430 586,427 586,416 586,414 586,404 586,390 586,387 586,385 586,379 586,376 586,375 586,335 586,303 586,299 586,121 586,94 586,110 586,65 586,83 586,87 586,92 585,808 585,789 585,404 585,387 585,382 585,375 585,362 585,351 585,345 585,342 585,304 585,114 585,109 585,98 585,90 585,86 585,84 585,91 584,88 584,96 584,99 584,112 584,100 584,115 584,301 584,309 584,334 584,337 584,340 584,341 584,344 584,354 584,382 584,383 584,387 584,389 584,392 584,407 584,410 584,413 584,414 584,433 584,440 584,447 584,451 584,468 584,488 584,768 584,784 584,787 584,802 584,822 584,835 583,114 583,86 583,100 583,82 582,778 582,773 582,770 582,465 582,464 582,430 582,413 582,410 582,409 582,406 582,385 582,376 582,375 582,372 582,369 582,364 582,361 582,351 582,349 582,347 582,306 582,99 582,100 582,115 582,65 581,81 581,110 581,108 581,106 581,92 581,87 581,118 581,300 581,310 581,359 581,378 581,411 581,428 581,500 580,64 580,90 580,102 579,89 579,91 579,118 579,95 579,314 579,318 579,325 579,331 579,337 579,342 579,348 579,354 579,356 579,361 579,364 579,366 579,368 579,371 579,375 579,434 579,445 579,464 579,469 579,474 579,780 578,79 578,105 578,88 578,97 578,115 578,95 578,126 578,113 578,109 578,300 578,304 578,334 578,354 578,361 578,365 578,372 578,375 578,404 578,443 578,483 578,723 578,823 577,126 577,110 577,87 577,93 577,83 577,95 577,94 577,99 577,60 577,101 577,105 576,832 576,802 576,773 576,441 576,435 576,416 576,369 576,362 576,359 576,341 576,335 576,330 576,314 576,309 576,307 576,118 576,107 576,106 576,95 576,73 575,76 575,91 575,117 575,87 575,86 575,118 575,299 575,340 575,348 575,361 575,362 575,373 575,390 575,406 575,410 575,430 575,433 575,765 575,785 574,59 574,64 574,68 574,65 574,115 574,109 574,108 574,297 574,299 574,304 574,330 574,338 574,351 574,354 574,366 574,435 574,492 574,828 545,802 545,794 545,496 545,437 545,434 545,426 545,417 545,410 545,403 545,390 545,389 545,387 545,376 545,369 545,323 545,314 545,300 545,292 545,282 544,794 544,489 544,433 544,430 544,424 544,421 544,416 544,404 544,390 544,389 544,375 544,372 544,371 544,366 544,365 544,334 544,331 544,310 544,128 544,127 543,128 543,283 543,313 543,317 543,320 543,334 543,337 543,354 543,361 543,368 543,372 543,383 543,389 543,435 543,443 543,459 543,481 543,530 541,801 541,777 541,485 541,476 541,472 541,433 541,419 541,416 541,414 541,409 541,389 541,386 541,382 541,365 541,361 541,359 541,354 541,307 541,292 541,290 541,285 541,121 541,117 540,121 540,314 540,324 540,328 540,331 540,342 540,356 540,371 540,386 540,404 540,407 540,437 540,448 540,457 540,489 539,127 538,474 538,472 538,452 538,441 538,438 538,426 538,417 538,410 538,409 538,407 538,402 538,387 538,382 538,378 538,376 538,372 538,361 538,359 538,356 538,337 538,334 538,316 538,310 538,287 538,283 538,279 538,269 537,488 537,459 537,434 537,368 537,364 537,361 537,359 537,349 537,325 537,289 537,276 537,131 536,287 536,289 536,314 536,320 536,352 536,365 536,369 536,396 536,404 536,407 536,428 536,431 536,433 536,435 536,486 536,812 535,118 535,116 535,109 535,77 535,78 535,85 535,89 535,92 535,93 535,83 535,87 535,94 535,86 535,108 534,111 534,115 534,118 534,280 534,290 534,294 534,354 534,359 534,362 534,395 534,409 534,410 534,413 534,445 534,447 534,455 534,774 534,799 533,464 533,458 533,444 533,440 533,414 533,386 533,373 533,369 533,335 533,327 533,324 533,294 533,286 533,277 531,486 531,413 531,407 531,406 531,403 531,393 531,372 531,365 531,361 531,359 531,330 531,321 531,310 531,297 531,292 531,285 531,121 531,112 531,106 530,486 530,461 530,435 530,428 530,423 530,416 530,382 530,376 530,375 530,373 530,368 530,355 530,327 530,307 530,304 530,282 530,117 530,76 530,103 530,84 530,100 530,63 530,55 529,64 529,95 529,114 529,96 529,111 529,77 529,282 529,287 529,318 529,347 529,364 529,380 529,413 529,416 529,423 529,448 529,472 529,770 529,787 528,131 528,108 528,80 528,84 528,101 527,791 527,778 527,454 527,452 527,435 527,426 527,417 527,416 527,403 527,392 527,390 527,385 527,371 527,355 527,340 527,338 527,311 527,299 527,294 527,134 527,100 527,74 527,63 526,54 526,86 526,63 526,72 526,91 526,102 526,121 526,112 526,122 526,128 526,292 526,320 526,332 526,334 526,337 526,345 526,368 526,371 526,372 526,373 526,375 526,376 526,379 526,385 526,392 526,404 526,409 526,423 526,444 526,464 526,481 526,773 521,781 521,775 521,444 521,435 521,421 521,417 521,389 521,383 521,380 521,334 521,331 521,324 521,309 521,307 521,296 521,293 521,286 521,132 521,120 520,472 520,468 520,466 520,461 520,459 520,441 520,390 520,389 520,385 520,372 520,371 520,369 520,366 520,365 520,358 520,330 520,309 520,283 520,275 520,270 520,137 520,124 520,111 520,59 519,57 519,80 519,86 519,135 519,125 519,99 519,124 519,128 519,283 519,289 519,332 519,351 519,354 519,356 519,365 519,379 519,386 519,416 519,423 519,430 519,457 519,465 519,475 519,770 519,777 519,780 519,794 518,114 518,93 517,781 517,778 517,771 517,770 517,454 517,424 517,416 517,414 517,404 517,403 517,392 517,382 517,378 517,372 517,371 517,368 517,366 517,364 517,359 517,355 517,338 517,330 517,283 517,121 517,59 517,96 517,101 517,115 517,111 517,118 516,124 516,107 516,65 516,112 516,122 516,114 516,139 516,267 516,300 516,334 516,354 516,356 516,358 516,372 516,373 516,455 516,461 516,469 516,771 516,773 516,791 514,812 514,778 514,774 514,483 514,459 514,458 514,457 514,396 514,383 514,378 514,354 514,348 514,296 514,289 514,287 514,272 514,270 514,269 513,799 513,777 513,771 513,475 513,472 513,434 513,407 513,404 513,402 513,399 513,356 513,313 513,293 513,290 513,286 513,279 513,275 512,276 512,289 512,325 512,331 512,332 512,335 512,347 512,354 512,362 512,364 512,368 512,372 512,389 512,410 512,417 512,438 512,443 512,457 512,461 512,466 512,483 512,773 509,773 509,481 509,444 509,426 509,423 509,409 509,407 509,404 509,397 509,387 509,366 509,365 509,361 509,356 509,355 509,352 509,334 509,323 509,282 507,447 507,434 507,416 507,411 507,403 507,396 507,378 507,361 507,290 507,279 507,269 506,791 506,777 506,770 506,471 506,458 506,438 506,430 506,409 506,406 506,400 506,385 506,379 506,378 506,375 506,371 506,354 506,309 506,134 506,131 506,124 506,118 506,119 506,103 506,107 506,121 506,261 505,794 505,792 505,791 505,781 505,466 505,465 505,462 505,455 505,430 505,426 505,417 505,348 505,344 505,342 505,334 505,332 505,325 505,282 505,276 505,275 505,273 505,270 505,269 505,138 505,120 505,98 505,110 505,132 505,265 504,259 504,101 504,106 504,122 504,260 503,51 503,109 503,258 503,60 503,121 503,129 503,264 503,128 503,143 503,303 503,323 503,337 503,366 503,372 503,375 503,382 503,392 503,433 503,454 503,780 503,782 503,787 503,788 503,792 503,797 503,798 502,141 502,57 502,49 502,76 502,104 502,107 502,135 502,280 502,283 502,286 502,320 502,327 502,345 502,361 502,395 502,396 502,397 502,426 502,427 502,428 502,444 502,469 502,474 502,781 502,788 502,797 502,801 501,104 501,123 501,117 501,186 500,90 500,110 500,120 500,114 500,128 500,261 500,264 500,286 500,293 500,335 500,342 500,344 500,362 500,369 500,375 500,379 500,382 500,396 500,402 500,420 500,445 500,447 500,448 500,465 500,774 500,785 500,794 500,799 500,801 500,802 499,787 499,445 499,409 499,399 499,395 499,389 499,365 499,359 499,341 499,313 499,290 499,277 499,272 499,77 499,69 499,113 499,193 499,102 499,255 499,122 499,52 499,54 498,266 498,143 498,58 498,192 498,130 498,52 498,124 498,136 498,187 498,255 498,276 498,356 498,371 498,380 498,428 498,459 497,253 497,106 497,112 497,57 497,182 497,129 497,111 497,104 497,188 497,53 497,51 496,792 496,458 496,443 496,423 496,417 496,400 496,399 496,396 496,393 496,379 496,376 496,362 496,361 496,356 496,351 496,345 496,316 496,290 496,285 496,280 496,268 496,267 496,118 496,111 496,103 496,84 496,74 496,262 496,116 496,188 496,113 496,183 496,252 496,253 496,60 495,451 495,419 495,413 495,390 495,366 495,364 495,354 495,332 495,330 495,324 495,313 495,296 495,292 495,282 495,269 495,59 495,87 495,104 495,72 495,117 495,123 495,82 495,129 495,142 495,183 495,252 494,260 494,142 494,110 494,91 494,103 494,107 494,90 494,112 494,115 494,135 494,144 494,184 494,251 493,459 493,457 493,438 493,430 493,406 493,373 493,371 493,362 493,356 493,348 493,289 493,276 493,275 493,266 493,256 493,108 493,110 493,104 493,106 493,119 493,122 493,102 493,116 493,137 492,450 492,437 492,435 492,426 492,399 492,378 492,369 492,354 492,351 492,331 492,330 492,320 492,273 492,269 492,255 492,182 492,100 492,93 492,249 492,197 492,61 492,62 492,252 492,196 492,112 492,256 491,260 491,148 491,252 491,85 491,107 491,125 491,134 491,247 491,123 491,65 490,447 490,434 490,395 490,390 490,368 490,366 490,341 490,337 490,334 490,311 490,292 490,290 490,287 490,285 490,282 490,279 490,275 490,270 490,189 490,148 490,99 490,97 490,50 490,113 490,116 490,265 489,254 489,144 489,198 489,244 489,178 489,241 489,123 489,102 489,100 489,108 489,124 489,128 489,138 489,246 489,273 489,282 489,283 489,290 489,292 489,330 489,332 489,347 489,365 489,366 489,373 489,378 489,382 489,390 489,402 489,417 489,430 489,438 489,452 489,784 488,781 488,777 488,447 488,389 488,380 488,376 488,375 488,361 488,327 488,297 488,286 488,277 488,273 488,272 487,263 487,261 486,275 486,280 486,331 486,334 486,337 486,356 486,365 486,371 486,383 486,396 486,434 486,440 486,459 485,782 485,458 485,409 485,387 485,373 485,345 485,313 485,310 485,293 485,280 485,279 485,269 483,276 483,277 483,299 483,356 483,361 483,376 483,380 483,433 482,459 482,430 482,409 482,404 482,397 482,364 482,355 482,345 482,316 482,306 482,268 481,440 481,430 481,424 481,354 481,351 481,340 481,273 481,269 479,402 479,390 479,378 479,375 479,356 479,351 479,347 479,323 479,314 479,292 479,276 479,273 479,272 478,447 478,435 478,417 478,413 478,380 478,348 478,335 478,323 478,309 478,286 478,276 478,273 478,141 478,94 478,60 478,98 478,246 478,86 478,130 478,61 478,123 478,85 478,155 478,38 478,117 478,112 478,250 478,183 478,179 478,185 478,244 478,254 478,267 477,262 477,241 477,175 477,35 477,111 477,119 477,84 477,122 477,146 477,163 476,32 476,128 476,33 476,58 476,129 476,69 476,67 476,232 476,59 476,95 476,138 476,228 476,246 476,254 476,260 476,177 476,251 476,190 476,90 476,89 476,88 476,109 476,249 476,85 476,266 476,272 476,290 476,352 476,382 476,389 476,392 476,419 476,423 476,450 475,258 475,223 475,241 475,252 475,91 475,200 475,256 475,120 475,90 475,125 475,236 475,187 475,171 475,130 475,209 475,148 475,84 475,179 475,204 475,142 475,152 475,273 475,293 475,300 475,310 475,321 475,344 475,349 475,364 475,383 475,386 475,416 475,443 474,428 474,397 474,393 474,386 474,378 474,375 474,289 474,273 474,272 474,269 474,268 474,110 474,103 474,152 474,183 474,105 474,87 474,194 474,95 474,107 474,46 474,88 474,189 474,195 474,246 474,115 474,36 474,163 474,254 473,70 473,102 473,138 473,175 473,166 473,180 473,147 473,139 473,90 473,95 473,141 473,185 473,256 473,92 473,127 473,263 473,266 472,438 472,427 472,402 472,344 472,340 472,317 472,303 472,197 472,145 472,137 472,136 472,93 472,167 472,104 472,68 472,165 472,245 472,243 472,238 472,53 472,54 472,140 472,148 472,193 472,184 472,135 472,103 472,239 472,91 472,83 472,106 472,37 471,426 471,423 471,407 471,351 471,331 471,294 471,275 471,269 471,202 471,172 471,86 471,152 471,92 471,131 471,265 471,101 471,175 471,173 471,66 471,250 471,251 471,264 471,162 471,145 471,168 471,259 471,213 471,245 471,112 471,247 471,68 471,51 471,267 470,258 470,101 470,84 470,104 470,90 470,106 470,129 470,66 470,93 470,147 470,125 470,69 470,171 470,163 470,53 470,181 469,433 469,424 469,386 469,383 469,376 469,330 469,311 469,310 469,306 469,292 469,275 469,269 469,134 469,117 469,100 469,32 469,191 469,186 469,139 469,110 469,94 469,78 469,225 469,197 469,230 469,65 469,92 469,133 469,61 469,163 469,247 469,242 469,34 469,33 469,226 469,260 468,402 468,379 468,364 468,313 468,276 468,225 468,221 468,175 468,169 468,168 468,131 468,74 468,89 468,153 468,228 468,256 468,38 468,134 468,104 468,69 468,130 468,141 468,159 468,262 468,126 468,166 468,88 468,107 468,27 467,241 467,86 467,151 467,159 467,173 467,230 467,236 467,87 467,237 467,228 467,181 467,239 467,182 467,123 467,27 467,240 466,440 466,419 466,411 466,402 466,385 466,359 466,323 466,311 466,304 466,287 466,286 466,276 466,221 466,194 466,184 466,145 466,111 466,104 466,94 466,120 466,93 466,150 466,183 466,165 466,244 466,240 466,175 466,129 466,127 466,34 466,109 466,160 466,29 466,247 466,185 466,252 465,416 465,380 465,366 465,314 465,294 465,266 465,220 465,190 465,186 465,131 465,105 465,103 465,98 465,152 465,174 465,141 465,227 465,183 465,61 465,95 465,166 465,257 465,90 465,75 465,231 465,250 465,87 465,89 465,154 465,224 465,267 464,259 464,94 464,92 464,130 464,225 464,106 464,43 464,110 464,203 464,124 464,113 464,89 464,247 464,185 464,148 464,133 464,60 464,280 464,304 464,307 464,345 464,347 464,361 464,393 464,433 463,261 463,167 463,127 463,117 463,225 463,234 463,226 463,222 463,230 463,156 463,82 463,198 463,91 463,158 463,189 463,124 463,186 463,252 463,60 463,255 463,223 463,74 463,258 462,878 462,427 462,392 462,351 462,334 462,310 462,290 462,277 462,272 462,184 462,122 462,101 462,112 462,182 462,245 462,251 462,239 462,177 462,162 462,159 462,200 462,233 462,147 462,142 462,173 462,181 462,136 462,236 462,116 462,261 461,396 461,372 461,364 461,348 461,310 461,306 461,276 461,252 461,204 461,218 461,149 461,156 461,227 461,95 461,202 461,139 461,175 461,89 461,164 461,230 461,59 461,39 461,62 461,91 461,129 461,188 461,94 461,77 461,231 461,113 461,171 461,65 461,144 461,250 460,183 460,254 460,264 459,279 459,286 459,330 459,334 458,340 458,371 458,378 458,382 455,434 455,874 265,612 262,609 260,619 258,623 257,647 254,655 254,654 254,632 253,661 251,680 250,680 249,681 248,680 248,609 248,622 248,603 248,598 248,671 238,676 238,677 232,673 231,673 230,672 228,672 221,670 217,675 217,669 216,670 213,665 207,678 207,653 207,679 206,690 206,651 206,660 206,636 206,631 206,680 206,685 205,688 204,693 201,696 200,696 200,630 199,697 199,635 199,628 199,631 199,655 196,698 195,630 195,626 195,637 194,695 186,698 185,612 185,607 184,676 184,540 184,550 184,568 184,652 184,678 183,687 182,675 182,611 182,683 182,688 178,681 176,677 175,691 175,633 175,627 175,684 174,687 171,689 169,688 166,685 165,681 165,677 161,668 161,564 161,537 160,658 160,687 159,685 159,613 159,646 156,691 156,692 155,674 155,560 155,657 153,673 152,687 147,678 "/><text x="0" y="20">Length: 442122.5392306781</text></svg>
