<?xml version="1.0" encoding="utf-8"?><svg xmlns="http://www.w3.org/2000/svg" version="1.1" width="1020.0" height="1020.0"><polygon stroke="white" stroke-width="1" fill="none" points="687,206 717,196 710,207 730,201 737,198 736,198 745,197 728,187 706,186 678,173 706,185 710,142 781,149 759,160 751,175 745,183 800,196 788,173 786,170 790,169 832,245 836,182 803,132 866,106 878,145 889,175 884,156 892,160 879,312 874,231 843,282 893,325 1010,324 1008,325 963,327 847,342 847,346 851,358 858,379 860,380 880,384 900,379 900,353 946,340 942,455 955,462 955,463 919,475 932,459 899,472 907,490 888,524 884,525 865,501 852,457 817,459 790,462 783,465 779,413 782,413 791,417 776,373 748,348 759,388 756,401 742,376 724,319 746,339 768,351 822,414 824,402 869,453 880,458 885,524 884,452 898,432 848,376 851,365 825,365 838,372 837,406 789,362 780,345 777,342 757,315 757,312 789,315 770,299 802,313 795,313 819,326 821,331 809,330 799,327 799,332 824,335 843,348 830,286 822,271 723,233 707,214 733,245 710,242 715,246 733,254 756,263 802,312 742,267 761,289 732,292 664,272 657,269 658,266 679,263 702,266 713,248 714,246 709,242 697,240 678,245 691,253 679,252 673,255 630,271 645,273 637,288 654,301 662,279 660,299 624,332 612,336 625,342 610,352 601,374 667,359 669,360 654,320 658,321 667,317 688,311 684,301 664,300 700,300 674,355 678,345 672,357 725,367 722,385 748,405 749,405 761,417 750,430 730,404 722,386 682,368 692,374 730,416 780,458 696,434 628,395 617,389 561,398 572,423 556,402 528,362 559,355 600,334 583,335 581,338 566,350 536,347 540,347 537,343 543,342 545,336 587,331 629,316 614,317 605,318 604,318 616,310 634,284 624,287 615,279 572,243 578,286 621,296 536,340 516,342 524,352 517,351 508,353 489,343 488,350 482,333 500,336 510,342 510,347 511,350 514,347 511,348 510,314 498,282 519,289 524,269 517,277 513,274 504,255 503,251 442,256 435,259 439,271 450,270 449,266 447,260 502,258 509,274 510,280 473,280 457,265 481,304 461,280 465,306 451,299 447,303 440,294 438,291 432,246 429,303 443,318 429,304 423,277 422,276 416,279 421,293 421,294 414,274 414,279 378,266 337,267 384,285 382,278 381,272 382,274 384,270 392,306 402,300 410,297 405,302 401,322 408,319 418,314 395,331 445,348 449,347 445,343 425,332 412,298 429,309 430,310 454,349 452,366 468,364 466,366 443,369 440,349 432,352 431,350 420,347 433,361 412,362 473,379 493,374 451,370 488,372 492,373 503,381 521,376 524,367 521,359 491,365 470,350 471,353 473,357 458,353 457,348 466,344 485,356 490,357 492,349 500,357 509,354 531,354 525,367 531,381 523,381 519,380 516,378 501,390 502,399 480,387 448,376 490,410 535,438 570,459 533,436 526,428 514,419 551,442 524,408 540,423 534,394 562,413 539,403 545,421 590,434 594,437 593,441 618,441 646,460 660,466 623,398 674,476 671,476 648,472 633,460 590,457 589,455 589,457 585,435 579,445 579,450 564,432 578,467 574,455 588,466 588,463 588,457 591,459 611,467 643,501 753,521 782,519 727,510 719,494 729,489 693,436 702,437 789,476 788,470 795,483 807,525 796,519 773,484 732,490 742,494 802,526 802,528 796,529 789,528 612,524 584,527 614,513 621,521 617,515 643,502 612,487 623,503 623,510 447,486 229,518 229,506 227,507 267,449 263,452 278,436 283,431 309,408 283,444 279,445 280,446 281,447 292,447 299,444 287,445 385,399 359,402 307,420 305,418 307,416 336,395 327,399 291,397 285,403 257,446 222,435 216,435 273,402 168,460 167,417 170,407 166,404 158,401 183,294 169,404 189,406 177,414 175,414 175,417 180,421 180,426 189,429 215,396 230,373 225,406 255,382 272,386 288,389 344,391 361,385 353,365 370,357 392,403 424,390 449,377 417,378 440,370 432,369 414,363 413,365 395,366 381,357 359,349 354,356 339,378 338,341 342,335 352,319 351,318 322,281 294,311 291,279 280,321 288,284 254,307 259,344 280,326 298,322 314,348 336,329 308,362 274,343 244,348 226,343 229,356 226,352 211,329 212,336 198,288 213,227 215,227 213,261 220,322 227,320 219,272 226,275 242,282 284,271 291,274 300,274 317,274 327,276 329,279 360,308 371,342 381,353 387,350 417,356 384,333 318,259 333,262 415,268 418,263 430,242 402,264 385,260 378,247 373,241 366,246 354,243 397,224 394,220 393,215 380,222 362,226 366,235 355,234 355,232 356,229 355,221 350,221 338,230 335,233 327,233 335,234 327,235 324,236 338,234 339,234 306,259 294,268 308,251 296,248 290,271 284,262 271,260 245,257 221,225 239,219 235,217 235,211 240,210 253,208 240,206 242,208 231,209 223,201 230,201 335,205 312,215 271,213 257,212 247,213 246,213 248,214 283,223 311,232 319,244 316,235 314,225 293,221 272,216 307,220 313,218 335,212 350,203 341,201 213,137 231,155 232,159 235,180 233,185 221,155 212,160 220,173 200,172 211,185 212,185 208,189 206,187 197,187 193,183 186,186 190,187 202,190 218,205 196,190 195,208 203,217 101,402 106,403 141,403 142,401 151,426 151,427 109,405 131,438 56,454 40,453 42,447 44,405 45,404 63,435 60,410 44,400 35,432 32,477 32,479 23,503 32,497 42,491 40,477 39,488 40,473 42,455 66,468 77,473 141,443 153,472 160,468 211,462 229,480 233,487 225,489 205,488 207,489 229,490 226,505 217,499 194,504 207,517 208,527 224,518 227,519 220,538 306,562 319,563 307,563 348,563 314,558 323,559 417,567 373,557 424,557 464,550 536,531 538,528 541,536 593,542 578,548 778,534 901,558 885,551 885,549 893,547 893,529 922,530 923,529 900,523 933,505 960,466 957,465 995,449 997,447 996,463 1006,469 988,561 960,511 960,481 949,483 963,547 931,541 910,550 956,564 963,555 955,567 904,569 385,572 354,572 306,570 402,570 325,566 289,569 155,545 150,548 176,555 169,556 94,562 128,551 122,536 192,543 198,543 209,530 205,527 204,527 185,512 154,494 172,488 160,475 149,476 159,475 150,475 45,494 21,511 108,512 133,481 143,497 129,530 101,523 92,540 87,543 94,540 100,542 97,559 91,564 51,551 46,549 17,513 18,510 16,509 10,192 23,172 26,188 29,415 30,404 132,226 179,257 151,208 175,210 177,207 176,176 181,175 184,173 184,165 181,164 178,169 170,169 178,162 173,163 155,167 79,181 67,174 67,173 85,166 127,121 124,108 123,109 74,145 37,181 58,140 166,54 157,91 125,101 140,118 170,150 159,125 186,167 199,180 194,169 196,161 205,163 206,133 205,129 204,129 174,117 172,123 145,108 167,108 153,104 149,101 166,100 184,78 185,77 393,169 389,173 373,180 376,175 388,168 350,184 353,183 361,181 353,190 351,188 349,184 352,177 207,129 340,196 364,203 347,208 341,211 330,218 321,230 326,227 333,225 350,210 356,209 350,215 358,209 369,204 365,207 375,208 372,209 364,212 370,212 368,216 358,229 368,218 371,214 383,208 396,207 386,212 396,210 404,208 400,226 402,224 406,217 403,224 427,234 419,224 413,221 419,213 441,208 408,206 401,206 370,205 387,198 378,201 377,200 354,196 354,193 379,184 392,184 426,193 441,198 460,190 445,194 401,179 435,181 513,202 529,207 475,194 463,216 439,241 438,256 440,245 451,237 473,250 520,249 498,239 467,232 480,226 497,229 498,225 501,217 542,246 556,241 541,233 540,230 533,229 489,199 484,197 519,207 528,211 532,217 530,207 544,203 533,204 513,201 455,184 474,174 484,168 521,185 522,171 550,190 556,191 561,186 561,180 530,153 524,147 511,153 480,160 461,172 470,163 526,113 472,161 414,169 294,95 252,69 469,159 486,117 502,119 519,104 477,79 444,81 265,55 155,43 54,132 151,43 375,30 483,24 416,30 378,34 376,34 375,37 370,38 426,52 485,27 492,14 476,15 474,15 473,12 285,18 492,10 496,10 497,17 495,28 498,29 521,63 520,48 558,53 539,31 499,29 665,21 659,22 664,23 819,24 669,21 821,22 911,15 956,21 964,18 1004,26 976,209 954,153 891,153 902,150 926,32 898,79 812,82 731,134 716,135 813,81 838,67 805,80 860,49 678,140 678,143 669,142 673,138 841,35 914,24 820,25 671,138 667,134 631,31 642,39 628,25 621,42 576,62 625,81 573,62 556,64 542,102 541,106 558,116 531,111 586,164 579,192 594,198 564,201 574,207 550,196 562,214 565,224 567,229 579,241 595,223 626,198 634,186 608,147 611,148 671,164 675,165 709,136 707,168 634,172 650,182 638,189 625,222 629,226 666,204 667,188 679,196 677,197 679,199 648,221 641,227 627,247 612,246 597,245 599,245 603,241 621,230 594,227 584,242 627,267 651,260 666,248 669,243 640,243 642,227 665,235 669,237 685,236 "/><text x="0" y="20">Length: 30534.72038338438</text></svg>
