<?xml version="1.0" encoding="utf-8"?>
<svg xmlns="http://www.w3.org/2000/svg" version="1.1" width="1020.0" height="1020.0">
<polygon stroke="white" stroke-width="1" fill="none" points="687,206 373,557 291,397 178,169 418,314 807,525 227,519 97,559 667,317 438,256 955,567 335,205 220,322 373,180 440,370 542,246 211,329 246,213 440,245 812,82 672,357 796,519 600,334 433,361 461,172 585,435 503,251 710,207 375,30 245,257 311,232 131,438 312,215 624,287 58,140 491,365 536,340 432,246 54,132 851,358 466,366 426,193 66,468 484,197 354,196 216,435 1008,325 902,150 381,357 621,521 892,160 29,415 205,527 578,467 229,490 338,234 427,234 402,300 730,201 625,342 503,381 573,62 540,423 263,452 215,227 441,198 44,400 206,187 605,318 211,185 155,43 414,169 449,377 541,106 387,350 825,365 306,570 404,208 623,510 231,209 466,344 422,276 595,223 646,460 742,494 101,523 227,320 307,563 417,567 450,270 521,63 556,191 500,336 957,465 194,169 402,224 240,210 623,503 205,163 424,390 541,536 335,234 350,215 852,457 423,277 502,399 628,395 530,153 92,540 368,218 410,297 354,356 271,260 338,230 724,319 366,246 341,201 510,314 860,380 150,475 748,348 421,294 533,204 678,143 184,173 603,241 919,475 495,28 327,235 574,207 885,549 473,250 955,462 654,320 308,251 559,355 624,332 205,488 408,319 388,168 413,221 628,25 556,64 143,497 395,366 94,562 524,352 218,205 737,198 591,459 440,294 457,265 313,218 745,197 942,455 280,321 402,570 309,408 914,24 445,194 17,513 272,386 415,268 46,549 447,303 684,301 702,266 799,327 337,267 730,404 898,79 32,477 414,279 353,365 492,14 830,286 226,343 776,373 643,501 717,196 366,235 730,416 889,175 588,457 194,504 693,436 579,241 627,247 675,165 473,12 198,288 257,212 206,133 402,264 519,104 611,467 773,484 154,494 306,259 900,379 809,330 193,183 869,453 443,369 294,268 233,487 786,170 204,527 468,364 384,270 531,381 314,348 364,203 454,349 534,394 460,190 488,372 533,229 208,189 513,274 594,227 588,463 567,229 524,147 439,271 240,206 789,528 545,336 393,169 637,288 330,218 671,476 308,362 372,209 338,341 445,343 753,521 519,289 429,309 638,189 458,353 604,318 149,476 715,246 230,201 176,555 175,414 389,173 467,232 198,543 378,247 664,272 327,276 145,108 742,376 207,517 626,198 173,163 671,138 795,313 556,241 438,291 419,224 189,429 280,446 790,462 525,367 625,81 510,342 955,463 665,235 387,198 522,171 170,150 167,108 184,165 795,483 56,454 189,406 122,536 305,418 267,449 396,210 900,523 654,301 469,159 851,365 381,353 284,271 821,331 439,241 802,526 501,217 226,275 802,313 484,168 207,489 736,198 843,282 222,435 648,221 949,483 168,460 584,242 217,499 10,192 789,362 392,184 344,391 26,188 496,10 329,279 893,529 395,331 521,185 932,459 562,413 408,206 212,160 514,419 566,350 288,389 370,205 995,449 350,203 378,266 963,547 667,359 486,117 885,524 790,169 837,406 123,109 691,253 471,353 353,183 878,145 199,180 748,405 732,490 213,261 101,402 565,224 621,296 633,460 157,91 253,208 729,489 702,437 641,227 379,184 612,487 645,273 597,245 709,242 593,441 239,219 209,530 177,207 432,352 91,564 629,316 880,458 526,428 449,266 229,356 759,160 447,260 219,272 514,347 586,164 67,173 254,307 504,255 235,211 213,137 235,217 660,466 692,374 579,192 745,183 172,123 540,347 537,343 822,271 551,442 283,223 616,310 612,336 599,245 832,245 470,350 223,201 678,245 731,134 202,190 322,281 498,239 373,241 417,356 673,138 220,173 405,302 669,142 392,306 954,153 203,217 678,173 319,244 528,362 564,432 176,176 535,438 727,510 401,322 325,566 396,207 617,515 465,306 355,221 583,335 336,329 594,198 956,21 664,23 378,201 480,160 77,473 502,119 904,569 412,298 492,373 579,450 476,15 370,212 964,18 418,263 688,311 435,181 180,421 445,348 259,344 749,405 526,113 516,342 227,507 358,229 212,336 473,379 257,446 416,279 480,226 425,332 782,519 159,125 1004,26 37,181 424,557 274,343 342,335 40,473 674,355 631,31 392,403 293,221 160,468 480,387 666,248 847,342 355,232 380,222 679,263 87,543 327,399 716,135 910,550 750,430 393,215 100,542 200,172 414,274 364,212 746,339 377,200 976,209 847,346 751,175 666,204 225,489 175,210 360,308 435,259 501,390 481,304 922,530 142,401 574,455 960,466 184,78 898,432 822,414 497,229 722,385 1006,469 323,559 361,385 891,153 634,172 612,524 679,196 709,136 960,511 365,207 224,518 298,322 160,475 185,512 289,569 132,226 634,186 79,181 296,248 817,459 657,269 520,249 678,345 153,104 523,381 220,538 788,173 513,202 625,222 911,15 723,233 707,214 963,327 707,168 673,255 371,214 511,350 174,117 351,318 530,207 926,32 874,231 669,360 640,243 327,233 788,470 356,209 757,315 677,197 782,413 362,226 578,286 252,69 431,350 561,186 669,237 956,564 697,240 169,556 517,277 292,447 426,52 719,494 931,541 561,180 669,243 880,384 884,156 643,502 413,365 440,349 780,345 248,214 498,225 225,406 508,353 588,466 963,555 291,274 167,417 221,225 141,443 483,24 406,217 536,347 242,282 780,458 682,368 472,161 838,67 824,335 581,338 204,129 614,513 996,463 660,299 441,208 820,25 678,140 448,376 307,420 783,465 359,349 539,403 314,225 213,227 42,455 658,321 181,164 384,285 756,401 923,529 376,34 541,233 383,208 556,402 207,129 151,426 356,229 819,326 540,230 669,21 350,210 339,234 642,39 791,417 432,369 893,325 858,379 725,367 796,529 352,177 463,216 781,149 443,318 524,367 196,190 497,17 696,434 803,132 149,101 128,551 127,121 108,512 572,243 520,48 488,350 150,548 288,284 561,398 590,457 516,378 159,475 23,172 158,401 802,528 539,31 265,55 621,230 35,432 524,269 789,315 354,193 155,167 370,357 307,220 230,373 475,194 324,236 866,106 848,376 543,342 166,100 610,352 813,81 777,342 742,267 442,256 186,186 247,213 511,153 23,503 368,216 521,376 284,262 532,217 544,203 190,187 710,142 381,272 531,111 489,199 170,169 385,572 474,174 732,292 285,403 650,182 700,300 550,190 713,248 300,274 617,389 170,407 621,42 524,408 183,294 444,81 888,524 498,282 946,340 94,540 319,563 779,413 196,161 85,166 509,354 178,162 584,527 759,388 615,279 40,477 307,416 316,235 39,488 416,30 997,447 242,208 485,356 352,319 545,421 212,185 314,558 211,462 884,525 665,21 229,518 455,184 510,347 30,404 244,348 778,534 350,221 430,310 578,548 273,402 564,201 576,62 470,163 371,342 349,184 382,278 988,561 74,145 226,352 500,357 221,155 317,274 420,347 865,501 376,175 340,196 361,181 397,224 517,351 375,37 63,435 608,147 451,237 278,436 232,159 538,528 629,226 519,380 400,226 473,280 369,204 756,263 821,22 533,436 630,271 229,480 166,404 722,386 21,511 166,54 255,382 336,395 884,452 542,102 421,293 299,444 513,201 714,246 510,280 197,187 733,254 562,214 358,209 593,542 287,445 461,280 489,343 401,179 382,274 558,53 350,184 451,370 498,29 449,347 761,289 335,212 531,354 192,543 674,476 768,351 558,116 306,562 124,108 226,505 40,453 612,246 634,284 339,378 502,258 477,79 321,230 485,27 843,348 195,208 291,279 570,459 290,271 860,49 401,206 519,207 153,472 129,530 590,434 341,211 205,129 587,331 528,211 614,317 960,481 679,252 351,188 215,396 430,242 802,312 231,155 710,242 348,563 208,527 664,300 658,266 511,348 770,299 285,18 900,353 824,402 550,196 536,531 419,213 492,10 499,29 579,445 594,437 901,558 141,403 45,404 109,405 838,372 789,476 151,208 805,80 179,257 386,212 572,423 294,95 933,505 490,357 51,551 169,404 667,134 473,357 667,188 375,208 482,333 133,481 521,359 140,118 611,148 403,224 42,491 279,445 180,426 32,497 326,227 885,551 907,490 333,262 429,303 493,374 685,236 281,447 283,431 836,182 229,506 16,509 235,180 651,260 151,427 509,274 45,494 280,326 378,34 601,374 233,185 353,190 355,234 106,403 627,267 529,207 347,208 899,472 394,220 464,550 490,410 155,545 354,572 474,15 294,311 679,199 67,174 492,349 151,43 18,510 761,417 642,227 335,233 662,279 457,348 185,77 589,457 879,312 414,363 800,196 283,444 60,410 893,547 706,185 618,441 318,259 370,38 671,164 354,243 819,24 385,399 452,366 385,260 451,299 412,362 181,175 359,402 186,167 728,187 799,332 623,398 659,22 175,417 333,225 32,479 177,414 648,472 42,447 271,213 841,35 733,245 447,486 1010,324 272,216 417,378 589,455 125,101 706,186 757,312 44,405 172,488 429,304 384,333"/>
 <text x="0" y="20">Length: 334291.741</text>
</svg>
