<?xml version="1.0" encoding="utf-8"?>
<svg xmlns="http://www.w3.org/2000/svg" version="1.1" width="1020.0" height="1020.0">
<polygon stroke="white" stroke-width="1" fill="none" points="10,192 16,509 17,513 18,510 21,511 23,503 23,172 26,188 29,415 30,404 32,497 32,477 32,479 35,432 37,181 39,488 40,477 40,473 40,453 42,455 42,447 42,491 44,405 44,400 45,404 45,494 46,549 51,551 54,132 56,454 58,140 60,410 63,435 66,468 67,174 67,173 74,145 77,473 79,181 85,166 87,543 91,564 92,540 94,562 94,540 97,559 100,542 101,402 101,523 106,403 108,512 109,405 122,536 123,109 124,108 125,101 127,121 128,551 129,530 131,438 132,226 133,481 140,118 141,403 141,443 142,401 143,497 145,108 149,476 149,101 150,548 150,475 151,427 151,208 151,43 151,426 153,104 153,472 154,494 155,167 155,545 155,43 157,91 158,401 159,475 159,125 160,468 160,475 166,100 166,404 166,54 167,417 167,108 168,460 169,404 169,556 170,407 170,169 170,150 172,123 172,488 173,163 174,117 175,417 175,414 175,210 176,555 176,176 177,414 177,207 178,169 178,162 179,257 180,426 180,421 181,175 181,164 183,294 184,173 184,165 184,78 185,512 185,77 186,167 186,186 189,406 189,429 190,187 192,543 193,183 194,504 194,169 195,208 196,190 196,161 197,187 198,543 198,288 199,180 200,172 202,190 203,217 204,527 204,129 205,527 205,488 205,129 205,163 206,133 206,187 207,489 207,129 207,517 208,527 208,189 209,530 211,185 211,462 211,329 212,185 212,160 212,336 213,261 213,227 213,137 215,227 215,396 216,435 217,499 218,205 219,272 220,322 220,538 220,173 221,155 221,225 222,435 223,201 224,518 225,489 225,406 226,505 226,352 226,343 226,275 227,519 227,507 227,320 229,518 229,490 229,480 229,506 229,356 230,201 230,373 231,209 231,155 232,159 233,487 233,185 235,211 235,217 235,180 239,219 240,210 240,206 242,282 242,208 244,348 245,257 246,213 247,213 248,214 252,69 253,208 254,307 255,382 257,446 257,212 259,344 263,452 265,55 267,449 271,213 271,260 272,386 272,216 273,402 274,343 278,436 279,445 280,446 280,326 280,321 281,447 283,444 283,431 283,223 284,262 284,271 285,403 285,18 287,445 288,389 288,284 289,569 290,271 291,397 291,279 291,274 292,447 293,221 294,311 294,95 294,268 296,248 298,322 299,444 300,274 305,418 306,570 306,562 306,259 307,416 307,220 307,420 307,563 308,251 308,362 309,408 311,232 312,215 313,218 314,558 314,348 314,225 316,235 317,274 318,259 319,563 319,244 321,230 322,281 323,559 324,236 325,566 326,227 327,399 327,233 327,276 327,235 329,279 330,218 333,262 333,225 335,234 335,205 335,233 335,212 336,395 336,329 337,267 338,341 338,230 338,234 339,234 339,378 340,196 341,201 341,211 342,335 344,391 347,208 348,563 349,184 350,210 350,203 350,215 350,184 350,221 351,188 351,318 352,177 352,319 353,183 353,365 353,190 354,243 354,572 354,193 354,356 354,196 355,234 355,232 355,221 356,229 356,209 358,209 358,229 359,402 359,349 360,308 361,385 361,181 362,226 364,203 364,212 365,207 366,235 366,246 368,216 368,218 369,204 370,357 370,38 370,212 370,205 371,342 371,214 372,209 373,557 373,180 373,241 375,208 375,30 375,37 376,175 376,34 377,200 378,34 378,247 378,266 378,201 379,184 380,222 381,357 381,272 381,353 382,274 382,278 383,208 384,285 384,270 384,333 385,399 385,260 385,572 386,212 387,350 387,198 388,168 389,173 392,403 392,306 392,184 393,215 393,169 394,220 395,331 395,366 396,210 396,207 397,224 400,226 401,322 401,206 401,179 402,224 402,264 402,570 402,300 403,224 404,208 405,302 406,217 408,319 408,206 410,297 412,362 412,298 413,365 413,221 414,363 414,279 414,274 414,169 415,268 416,279 416,30 417,567 417,378 417,356 418,314 418,263 419,224 419,213 420,347 421,294 421,293 422,276 423,277 424,390 424,557 425,332 426,193 426,52 427,234 429,303 429,309 429,304 430,310 430,242 431,350 432,352 432,369 432,246 433,361 435,259 435,181 438,291 438,256 439,271 439,241 440,349 440,294 440,370 440,245 441,198 441,208 442,256 443,318 443,369 444,81 445,343 445,348 445,194 447,486 447,260 447,303 448,376 449,377 449,347 449,266 450,270 451,370 451,237 451,299 452,366 454,349 455,184 457,348 457,265 458,353 460,190 461,172 461,280 463,216 464,550 465,306 466,366 466,344 467,232 468,364 469,159 470,350 470,163 471,353 472,161 473,12 473,250 473,379 473,357 473,280 474,174 474,15 475,194 476,15 477,79 480,160 480,387 480,226 481,304 482,333 483,24 484,197 484,168 485,27 485,356 486,117 488,350 488,372 489,199 489,343 490,357 490,410 491,365 492,349 492,10 492,373 492,14 493,374 495,28 496,10 497,229 497,17 498,29 498,239 498,282 498,225 499,29 500,357 500,336 501,217 501,390 502,399 502,258 502,119 503,251 503,381 504,255 508,353 509,274 509,354 510,342 510,314 510,280 510,347 511,153 511,350 511,348 513,202 513,274 513,201 514,347 514,419 516,378 516,342 517,277 517,351 519,207 519,380 519,289 519,104 520,249 520,48 521,376 521,359 521,185 521,63 522,171 523,381 524,147 524,408 524,269 524,352 524,367 525,367 526,428 526,113 528,362 528,211 529,207 530,207 530,153 531,354 531,381 531,111 532,217 533,436 533,204 533,229 534,394 535,438 536,531 536,340 536,347 537,343 538,528 539,31 539,403 540,230 540,347 540,423 541,106 541,233 541,536 542,102 542,246 543,342 544,203 545,336 545,421 550,196 550,190 551,442 556,402 556,191 556,241 556,64 558,53 558,116 559,355 561,186 561,180 561,398 562,413 562,214 564,201 564,432 565,224 566,350 567,229 570,459 572,423 572,243 573,62 574,207 574,455 576,62 578,286 578,467 578,548 579,450 579,241 579,445 579,192 581,338 583,335 584,527 584,242 585,435 586,164 587,331 588,457 588,466 588,463 589,455 589,457 590,434 590,457 591,459 593,441 593,542 594,227 594,437 594,198 595,223 597,245 599,245 600,334 601,374 603,241 604,318 605,318 608,147 610,352 611,148 611,467 612,336 612,524 612,487 612,246 614,317 614,513 615,279 616,310 617,515 617,389 618,441 621,42 621,230 621,521 621,296 623,510 623,503 623,398 624,287 624,332 625,222 625,342 625,81 626,198 627,267 627,247 628,395 628,25 629,316 629,226 630,271 631,31 633,460 634,284 634,172 634,186 637,288 638,189 640,243 641,227 642,227 642,39 643,502 643,501 645,273 646,460 648,472 648,221 650,182 651,260 654,320 654,301 657,269 658,266 658,321 659,22 660,299 660,466 662,279 664,272 664,23 664,300 665,21 665,235 666,248 666,204 667,188 667,359 667,317 667,134 669,237 669,142 669,21 669,243 669,360 671,164 671,138 671,476 672,357 673,255 673,138 674,355 674,476 675,165 677,197 678,345 678,245 678,143 678,173 678,140 679,199 679,263 679,196 679,252 682,368 684,301 685,236 687,206 688,311 691,253 692,374 693,436 696,434 697,240 700,300 702,266 702,437 706,186 706,185 707,168 707,214 709,136 709,242 710,142 710,207 710,242 713,248 714,246 715,246 716,135 717,196 719,494 722,386 722,385 723,233 724,319 725,367 727,510 728,187 729,489 730,416 730,404 730,201 731,134 732,490 732,292 733,245 733,254 736,198 737,198 742,376 742,267 742,494 745,197 745,183 746,339 748,405 748,348 749,405 750,430 751,175 753,521 756,401 756,263 757,312 757,315 759,388 759,160 761,417 761,289 768,351 770,299 773,484 776,373 777,342 778,534 779,413 780,458 780,345 781,149 782,519 782,413 783,465 786,170 788,470 788,173 789,362 789,528 789,315 789,476 790,169 790,462 791,417 795,313 795,483 796,519 796,529 799,332 799,327 800,196 802,313 802,526 802,312 802,528 803,132 805,80 807,525 809,330 812,82 813,81 817,459 819,326 819,24 820,25 821,22 821,331 822,414 822,271 824,335 824,402 825,365 830,286 832,245 836,182 837,406 838,372 838,67 841,35 843,348 843,282 847,346 847,342 848,376 851,365 851,358 852,457 858,379 860,380 860,49 865,501 866,106 869,453 874,231 878,145 879,312 880,458 880,384 884,525 884,452 884,156 885,551 885,524 885,549 888,524 889,175 891,153 892,160 893,529 893,325 893,547 898,432 898,79 899,472 900,523 900,379 900,353 901,558 902,150 904,569 907,490 910,550 911,15 914,24 919,475 922,530 923,529 926,32 931,541 932,459 933,505 942,455 946,340 949,483 954,153 955,567 955,463 955,462 956,564 956,21 957,465 960,511 960,481 960,466 963,547 963,327 963,555 964,18 976,209 988,561 995,449 996,463 997,447 1004,26 1006,469 1008,325 1010,324"/>
 <text x="0" y="20">Length: 137087.744</text>
</svg>
