<?xml version="1.0" encoding="utf-8"?><svg xmlns="http://www.w3.org/2000/svg" version="1.1" width="1020.0" height="1020.0"><polygon stroke="white" stroke-width="1" fill="none" points="10,192 16,509 17,513 18,510 21,511 23,503 32,497 39,488 40,477 40,473 40,453 42,447 42,455 42,491 44,405 44,400 45,404 45,494 46,549 51,551 87,543 91,564 92,540 94,562 94,540 97,559 100,542 128,551 169,556 172,488 175,417 175,414 175,210 176,555 192,543 198,543 220,538 227,519 229,518 229,506 229,490 229,480 233,487 244,348 245,257 253,208 254,307 255,382 257,446 257,212 259,344 263,452 281,447 287,445 288,389 288,284 289,569 290,271 291,397 291,279 291,274 292,447 293,221 294,311 294,268 296,248 298,322 299,444 300,274 305,418 306,570 306,562 306,259 307,220 307,416 307,420 307,563 308,251 308,362 309,408 311,232 312,215 313,218 314,558 314,348 314,225 316,235 317,274 318,259 319,563 319,244 321,230 322,281 323,559 324,236 325,566 326,227 327,399 327,276 327,235 327,233 329,279 330,218 333,262 333,225 335,234 335,233 335,212 335,205 336,395 336,329 337,267 338,341 338,234 338,230 339,234 339,378 340,196 341,201 341,211 342,335 344,391 347,208 348,563 349,184 350,184 350,210 350,203 350,215 350,221 351,188 351,318 352,177 352,319 353,183 353,190 353,365 354,193 354,196 354,243 354,356 354,572 355,234 355,232 355,221 356,229 356,209 358,209 358,229 359,402 359,349 360,308 361,385 361,181 362,226 364,203 364,212 365,207 366,235 366,246 368,216 368,218 369,204 370,357 370,212 370,205 371,342 371,214 372,209 373,557 381,357 381,353 384,270 384,285 384,333 385,260 385,399 385,572 392,403 392,306 394,220 395,331 395,366 397,224 400,226 401,322 402,264 402,300 402,570 417,567 424,390 424,557 464,550 490,410 501,390 502,399 503,381 509,354 511,348 511,350 514,347 514,419 516,378 517,351 519,380 521,376 521,359 521,185 521,63 522,171 523,381 524,147 524,367 524,352 524,269 524,408 525,367 526,428 526,113 528,362 528,211 529,207 530,207 530,153 531,381 531,354 531,111 532,217 533,436 533,229 533,204 534,394 535,438 536,531 536,347 536,340 537,343 538,528 539,403 540,230 540,347 540,423 541,106 541,233 541,536 542,102 542,246 543,342 544,203 545,336 545,421 550,196 550,190 551,442 556,402 556,241 556,191 558,116 559,355 561,180 561,186 561,398 562,413 562,214 564,201 564,432 565,224 566,350 567,229 570,459 572,423 572,243 574,207 574,455 578,286 578,467 578,548 579,450 579,445 579,241 581,338 583,335 584,527 588,457 588,463 588,466 590,457 591,459 593,441 593,542 612,524 621,521 623,510 623,503 643,502 643,501 671,476 672,357 674,355 674,476 678,345 679,263 682,368 684,301 685,236 687,206 688,311 691,253 692,374 693,436 696,434 697,240 700,300 702,266 702,437 709,242 710,142 710,207 710,242 713,248 714,246 715,246 717,196 719,494 722,386 722,385 723,233 724,319 725,367 727,510 732,490 732,292 733,245 733,254 736,198 737,198 742,267 742,376 742,494 745,197 745,183 746,339 748,405 748,348 749,405 750,430 751,175 753,521 756,401 756,263 757,312 757,315 759,388 759,160 761,417 761,289 768,351 770,299 773,484 776,373 777,342 778,534 779,413 780,458 780,345 781,149 782,519 782,413 783,465 786,170 788,470 788,173 789,315 789,362 789,476 789,528 790,169 790,462 791,417 795,313 795,483 796,519 796,529 799,332 799,327 800,196 802,312 802,313 802,526 802,528 807,525 817,459 821,331 822,414 822,271 824,335 824,402 825,365 830,286 832,245 836,182 837,406 838,372 843,348 843,282 847,346 847,342 848,376 851,365 851,358 852,457 858,379 860,380 860,49 865,501 866,106 869,453 874,231 878,145 879,312 880,458 880,384 884,525 884,452 884,156 885,551 885,549 885,524 888,524 889,175 891,153 892,160 893,325 893,529 893,547 898,432 898,79 899,472 900,523 900,379 900,353 901,558 902,150 904,569 907,490 910,550 931,541 932,459 933,505 942,455 946,340 949,483 954,153 955,567 955,463 955,462 956,564 988,561 1006,469 1008,325 1010,324 1004,26 997,447 996,463 995,449 976,209 964,18 963,555 963,327 963,547 960,466 960,481 960,511 957,465 956,21 926,32 923,529 922,530 919,475 914,24 911,15 841,35 838,67 821,22 820,25 819,24 819,326 813,81 812,82 809,330 805,80 803,132 731,134 730,201 730,404 730,416 729,489 728,187 716,135 709,136 707,214 707,168 706,185 706,186 679,196 679,199 679,252 678,140 678,173 678,143 678,245 677,197 675,165 673,138 673,255 671,138 671,164 669,360 669,243 669,21 669,142 669,237 667,134 667,188 667,317 667,359 666,204 666,248 665,235 665,21 664,300 664,23 664,272 662,279 660,466 660,299 659,22 658,321 658,266 657,269 654,301 654,320 651,260 650,182 648,221 648,472 646,460 645,273 642,39 642,227 641,227 640,243 638,189 637,288 634,186 634,172 634,284 633,460 631,31 630,271 629,226 629,316 628,25 628,395 627,247 627,267 626,198 625,81 625,222 625,342 624,332 624,287 623,398 621,296 621,230 621,42 618,441 617,389 617,515 616,310 615,279 614,513 614,317 612,246 612,336 612,487 611,467 611,148 610,352 608,147 605,318 604,318 603,241 601,374 600,334 599,245 597,245 595,223 594,198 594,227 594,437 590,434 589,457 589,455 587,331 586,164 585,435 584,242 579,192 576,62 573,62 558,53 556,64 539,31 520,48 520,249 519,104 519,207 519,289 517,277 516,342 513,201 513,202 513,274 511,153 510,347 510,280 510,314 510,342 509,274 508,353 504,255 503,251 502,119 502,258 501,217 500,336 500,357 499,29 498,282 498,239 498,225 498,29 497,17 497,229 496,10 495,28 493,374 492,373 492,14 492,10 492,349 491,365 490,357 489,343 489,199 488,372 488,350 486,117 485,356 485,27 484,168 484,197 483,24 482,333 481,304 480,387 480,226 480,160 477,79 476,15 475,194 474,15 474,174 473,379 473,357 473,280 473,250 473,12 472,161 471,353 470,163 470,350 469,159 468,364 467,232 466,344 466,366 465,306 463,216 461,280 461,172 460,190 458,353 457,265 457,348 455,184 454,349 452,366 451,299 451,237 451,370 450,270 449,266 449,347 449,377 448,376 447,303 447,260 447,486 445,194 445,343 445,348 444,81 443,369 443,318 442,256 441,208 441,198 440,245 440,349 440,294 440,370 439,241 439,271 438,256 438,291 435,181 435,259 433,361 432,246 432,352 432,369 431,350 430,242 430,310 429,309 429,304 429,303 427,234 426,52 426,193 425,332 423,277 422,276 421,293 421,294 420,347 419,213 419,224 418,263 418,314 417,356 417,378 416,30 416,279 415,268 414,169 414,274 414,279 414,363 413,221 413,365 412,298 412,362 410,297 408,206 408,319 406,217 405,302 404,208 403,224 402,224 401,179 401,206 396,207 396,210 393,169 393,215 392,184 389,173 388,168 387,198 387,350 386,212 383,208 382,278 382,274 381,272 380,222 379,184 378,266 378,247 378,201 378,34 377,200 376,34 376,175 375,37 375,30 375,208 373,241 373,180 370,38 294,95 285,18 285,403 284,271 284,262 283,223 283,431 283,444 280,321 280,326 280,446 279,445 278,436 274,343 273,402 272,216 272,386 271,260 271,213 267,449 265,55 252,69 248,214 247,213 246,213 242,208 242,282 240,206 240,210 239,219 235,180 235,211 235,217 233,185 232,159 231,155 231,209 230,373 230,201 229,356 227,320 227,507 226,275 226,343 226,352 226,505 225,406 225,489 224,518 223,201 222,435 221,225 221,155 220,173 220,322 219,272 218,205 217,499 216,435 215,396 215,227 213,137 213,227 213,261 212,336 212,160 212,185 211,462 211,329 211,185 209,530 208,189 208,527 207,517 207,129 207,489 206,187 206,133 205,163 205,129 205,488 205,527 204,129 204,527 203,217 202,190 200,172 199,180 198,288 197,187 196,161 196,190 195,208 194,169 194,504 193,183 190,187 189,429 189,406 186,186 186,167 185,77 185,512 184,78 184,165 184,173 183,294 181,164 181,175 180,421 180,426 179,257 178,162 178,169 177,207 177,414 176,176 174,117 173,163 172,123 170,150 170,169 170,407 169,404 168,460 167,108 167,417 166,54 166,100 166,404 160,475 160,468 159,125 159,475 158,401 157,91 155,43 155,167 155,545 154,494 153,472 153,104 151,426 151,43 151,208 151,427 150,475 150,548 149,101 149,476 145,108 143,497 142,401 141,443 141,403 140,118 133,481 132,226 131,438 129,530 127,121 125,101 124,108 123,109 122,536 109,405 108,512 106,403 101,523 101,402 85,166 79,181 77,473 74,145 67,173 67,174 66,468 63,435 60,410 58,140 56,454 54,132 37,181 35,432 32,479 32,477 30,404 29,415 26,188 23,172 "/><text x="0" y="20">Length: 111752.4362723903</text></svg>
