<?xml version="1.0" encoding="utf-8"?>
<svg xmlns="http://www.w3.org/2000/svg" version="1.1" width="1020.0" height="1020.0">
<polygon stroke="white" stroke-width="1" fill="none" points="182,220 770,854 46,46 72,513 77,633 962,248 336,874 787,247 191,590 992,422 789,584 36,851 133,780 37,650 831,867 594,760 544,147 331,354 736,483 994,1006 479,551 838,1010 558,669 586,540 685,271 777,119 685,823 205,960 245,799 460,636 212,393 178,937 924,396 848,989 322,556 779,581 928,10 982,84 556,726 748,762 116,391 717,712 709,758 497,380 148,98 572,560 533,945 627,399 226,202 439,470 296,788 424,181 857,398 973,446 382,86 199,715 662,93 166,317 806,725 855,752 456,184 780,59 507,382 160,773 149,193 131,270 814,711 10,747 789,825 909,551 242,920 170,23 110,446 624,195 979,675 783,992 198,539 629,590 306,1005 281,470 550,303 374,466 865,422 431,65 126,1003 661,83 721,817 88,746 599,239 731,170 76,47 728,758 503,327 627,788 718,1007 965,987 447,887 482,327 801,211 540,755"/>
 <text x="0" y="20">Length: 52793.086</text>
</svg>
