<?xml version="1.0" encoding="utf-8"?><svg xmlns="http://www.w3.org/2000/svg" version="1.1" width="1020.0" height="1020.0"><polygon stroke="white" stroke-width="1" fill="none" points="182,220 148,98 170,23 76,47 116,391 131,270 149,193 110,446 72,513 46,46 10,747 133,780 242,920 36,851 126,1003 306,1005 205,960 178,937 718,1007 838,1010 783,992 965,987 848,989 831,867 770,854 685,823 533,945 447,887 336,874 245,799 627,788 721,817 806,725 789,825 855,752 814,711 909,551 924,396 979,675 994,1006 973,446 992,422 982,84 928,10 962,248 748,762 728,758 717,712 709,758 594,760 556,726 779,581 789,584 736,483 629,590 627,399 586,540 540,755 199,715 296,788 160,773 88,746 37,650 77,633 166,317 212,393 198,539 322,556 191,590 558,669 572,560 460,636 479,551 507,382 439,470 374,466 497,380 550,303 599,239 624,195 777,119 857,398 787,247 801,211 731,170 685,271 865,422 780,59 661,83 431,65 424,181 456,184 544,147 662,93 482,327 503,327 331,354 281,470 382,86 226,202 "/><text x="0" y="20">Length: 16753.8161302237</text></svg>
