<?xml version="1.0" encoding="utf-8"?>
<svg xmlns="http://www.w3.org/2000/svg" version="1.1" width="1020.0" height="1020.0">
<polygon stroke="white" stroke-width="1" fill="none" points="10,747 36,851 37,650 46,46 72,513 76,47 77,633 88,746 110,446 116,391 126,1003 131,270 133,780 148,98 149,193 160,773 166,317 170,23 178,937 182,220 191,590 198,539 199,715 205,960 212,393 226,202 242,920 245,799 281,470 296,788 306,1005 322,556 331,354 336,874 374,466 382,86 424,181 431,65 439,470 447,887 456,184 460,636 479,551 482,327 497,380 503,327 507,382 533,945 540,755 544,147 550,303 556,726 558,669 572,560 586,540 594,760 599,239 624,195 627,788 627,399 629,590 661,83 662,93 685,271 685,823 709,758 717,712 718,1007 721,817 728,758 731,170 736,483 748,762 770,854 777,119 779,581 780,59 783,992 787,247 789,825 789,584 801,211 806,725 814,711 831,867 838,1010 848,989 855,752 857,398 865,422 909,551 924,396 928,10 962,248 965,987 973,446 979,675 982,84 992,422 994,1006"/>
 <text x="0" y="20">Length: 34734.837</text>
</svg>
