<?xml version="1.0" encoding="utf-8"?><svg xmlns="http://www.w3.org/2000/svg" version="1.1" width="1020.0" height="1020.0"><polygon stroke="white" stroke-width="1" fill="none" points="10,747 36,851 77,633 88,746 110,446 116,391 126,1003 178,937 191,590 198,539 199,715 205,960 242,920 296,788 306,1005 718,1007 783,992 831,867 838,1010 848,989 994,1006 992,422 982,84 979,675 973,446 965,987 962,248 928,10 924,396 909,551 865,422 857,398 855,752 814,711 806,725 801,211 789,584 789,825 787,247 780,59 779,581 777,119 770,854 748,762 736,483 731,170 728,758 721,817 717,712 709,758 685,823 685,271 662,93 661,83 629,590 627,399 627,788 624,195 599,239 594,760 586,540 572,560 558,669 556,726 550,303 544,147 540,755 533,945 507,382 503,327 497,380 482,327 479,551 460,636 456,184 447,887 439,470 431,65 424,181 382,86 374,466 336,874 331,354 322,556 281,470 245,799 226,202 212,393 182,220 170,23 166,317 160,773 149,193 148,98 133,780 131,270 76,47 72,513 46,46 37,650 "/><text x="0" y="20">Length: 28822.057101335144</text></svg>
